<svg width="12" height="12" viewBox="0 0 12 12" fill="none" xmlns="http://www.w3.org/2000/svg">
<path d="M1.71582 5.68677C1.30161 5.68677 0.96582 6.02255 0.96582 6.43677C0.96582 6.85098 1.30161 7.18677 1.71582 7.18677L1.71582 6.43677L1.71582 5.68677ZM11.5903 6.9671C11.8832 6.67421 11.8832 6.19933 11.5903 5.90644L6.81736 1.13347C6.52447 0.840574 6.04959 0.840574 5.7567 1.13347C5.4638 1.42636 5.4638 1.90123 5.7567 2.19413L9.99934 6.43677L5.7567 10.6794C5.4638 10.9723 5.4638 11.4472 5.7567 11.7401C6.04959 12.033 6.52446 12.033 6.81736 11.7401L11.5903 6.9671ZM1.71582 6.43677L1.71582 7.18677L11.06 7.18677L11.06 6.43677L11.06 5.68677L1.71582 5.68677L1.71582 6.43677Z" fill="white"/>
</svg>
