<svg width="48" height="48" viewBox="0 0 48 48" fill="none" xmlns="http://www.w3.org/2000/svg">
<rect width="48" height="48" rx="8" fill="url(#paint0_linear_1_8879)"/>
<g clip-path="url(#clip0_1_8879)">
<g clip-path="url(#clip1_1_8879)">
<g clip-path="url(#clip2_1_8879)">
<path d="M24.695 8L20.9672 13.6321L22.9483 13.881C22.3337 15.8896 22.2086 17.2729 22.356 20.0223C23.2985 19.8736 24.06 19.8207 25.0617 20.115C24.4032 17.659 24.4721 16.8198 24.7364 14.1305L26.9112 14.2823L24.695 8ZM39.2605 8.14733L32.0365 10.1493L33.4308 11.881C30.13 13.9489 28.0755 15.5842 26.4481 20.0919C27.3282 20.0818 28.3214 20.2866 29.3931 20.6922C29.7749 17.7145 31.6425 15.6162 34.6799 13.431L36.0121 15.0854L39.2605 8.14733ZM8.35556 8.30133L12.7475 15.1337L14.0198 13.2196C16.39 15.3823 17.8961 18.3083 17.8403 20.3816C19.0782 19.8019 19.8355 19.7465 21.156 20.1297C20.6156 18.0496 18.2508 12.8816 15.0467 11.5229L16.1513 9.78707L8.35556 8.30133ZM26.7634 22.6125C26.4114 22.6204 26.0827 22.7735 25.6342 23.2521L25.1966 23.7167L24.7424 23.2687C24.25 22.7834 23.8613 22.6493 23.4675 22.6667C23.0736 22.684 22.6104 22.8912 22.0924 23.3104L21.6779 23.6457L21.2842 23.2875C20.6909 22.7506 20.1852 22.5915 19.7009 22.6165C19.3483 22.6348 18.9825 22.7676 18.6175 22.9999L21.3486 27.9125C22.3789 28.5426 24.4842 28.7796 25.932 28.05L28.5715 23.1604C28.0709 22.9563 27.6209 22.747 27.2319 22.6667C27.0911 22.6375 26.9606 22.6162 26.8341 22.6125C26.8105 22.6118 26.7869 22.6118 26.7634 22.6125ZM20.7654 29.025C19.563 29.8745 18.5976 31.3396 18.2237 33.4854C17.8613 35.5652 18.4323 36.9698 19.4426 37.927C20.4528 38.8843 21.9694 39.3761 23.5092 39.3562C25.0492 39.3361 26.585 38.8021 27.6176 37.8271C28.6502 36.8519 29.2341 35.4654 28.903 33.4812C28.5605 31.4308 27.6763 30.0048 26.5569 29.1417C24.6581 30.1454 22.284 29.9321 20.7654 29.025Z" fill="white"/>
</g>
</g>
</g>
<defs>
<linearGradient id="paint0_linear_1_8879" x1="24" y1="48" x2="24" y2="0" gradientUnits="userSpaceOnUse">
<stop stop-color="#1D4EFF"/>
<stop offset="1" stop-color="#24B6FF"/>
</linearGradient>
<clipPath id="clip0_1_8879">
<rect width="31.28" height="32" fill="white" transform="translate(8.36 8)"/>
</clipPath>
<clipPath id="clip1_1_8879">
<rect width="31.28" height="32" fill="white" transform="translate(8.36 8)"/>
</clipPath>
<clipPath id="clip2_1_8879">
<rect width="31.2889" height="32" fill="white" transform="translate(8.35556 8)"/>
</clipPath>
</defs>
</svg>
