<svg width="44" height="44" viewBox="0 0 44 44" fill="none" xmlns="http://www.w3.org/2000/svg">
<rect width="44" height="44" rx="22" fill="url(#paint0_linear_241_106)"/>
<rect x="0.5" y="0.5" width="43" height="43" rx="21.5" stroke="#9F6EFD" stroke-opacity="0.1"/>
<path d="M21.7725 22.524C22.8615 22.9518 23.3331 23.1998 23.2796 23.7929C23.2237 24.2912 22.8081 24.6716 22.3073 24.6826C21.6315 24.7798 20.9412 24.4979 20.771 24.0554C20.6409 23.7564 20.2982 23.6142 19.9943 23.7309C19.6905 23.8488 19.5337 24.1843 19.6382 24.493C19.9579 25.2162 20.6264 25.7242 21.4079 25.8397V26.3258C21.4079 26.6613 21.6801 26.9336 22.0156 26.9336C22.351 26.9336 22.6233 26.6613 22.6233 26.3258V25.8397C23.6248 25.7096 24.4003 24.9002 24.4902 23.895C24.6263 22.3344 23.231 21.7899 22.2149 21.3912C21.578 21.1384 20.9168 20.8807 20.7564 20.4869C20.6762 20.0737 20.8865 19.6592 21.2669 19.4805C21.5391 19.325 22.2392 19.0576 23.0608 19.9667C23.2808 20.2207 23.6649 20.2475 23.9189 20.0275C24.173 19.8075 24.1997 19.4234 23.9797 19.1694C23.5579 18.6443 22.966 18.2821 22.3073 18.1436V17.6817C22.3073 17.3462 22.035 17.074 21.6996 17.074C21.3641 17.074 21.0919 17.3462 21.0919 17.6817V18.2262C20.9411 18.2724 20.7953 18.3356 20.6592 18.4158C19.7683 18.8813 19.3283 19.9108 19.609 20.8758C19.9494 21.8093 20.9168 22.1885 21.7725 22.524Z" fill="white"/>
<path d="M22.0153 30.4728C24.2602 30.4728 26.4141 29.5807 28.0013 27.9933C29.5886 26.4059 30.4795 24.2523 30.4795 22.0074C30.4795 19.7613 29.5862 17.6087 27.9988 16.0215C26.4102 14.4353 24.2578 13.5432 22.0116 13.5444C19.7668 13.5457 17.6142 14.4378 16.027 16.0264C14.4408 17.6149 13.5499 19.7686 13.5511 22.0135C13.5548 24.2572 14.4481 26.4073 16.0343 27.9923C17.6217 29.5784 19.7716 30.4703 22.0153 30.4728ZM22.0153 14.7647C23.9382 14.7647 25.7818 15.528 27.1409 16.888C28.501 18.2469 29.2643 20.0907 29.2643 22.0136C29.2643 23.9365 28.501 25.7801 27.1409 27.1392C25.7821 28.4993 23.9383 29.2625 22.0153 29.2625C20.0924 29.2625 18.2489 28.4993 16.8898 27.1392C15.5297 25.7803 14.7664 23.9365 14.7664 22.0136C14.7688 20.092 15.5333 18.2493 16.8922 16.8905C18.251 15.5317 20.0937 14.7671 22.0153 14.7647Z" fill="white"/>
<path d="M10.07 24.3803C10.5294 26.737 11.6804 28.9053 13.3734 30.6083C15.0678 32.3111 17.2289 33.4718 19.5843 33.9435C19.7837 35.131 20.8119 36 22.0152 36C23.2185 36 24.2467 35.131 24.446 33.9435C26.8016 33.4719 28.9627 32.3112 30.6569 30.6083C32.35 28.9054 33.501 26.7372 33.9604 24.3803C35.2087 24.2441 36.1531 23.1904 36.1531 21.9348C36.1531 20.6793 35.2087 19.6255 33.9604 19.4894C33.4694 17.1618 32.305 15.0312 30.6143 13.3588C28.9224 11.6863 26.7784 10.5475 24.446 10.082C24.2601 8.88361 23.2282 8 22.0152 8C20.8022 8 19.7703 8.88361 19.5843 10.082C17.2531 10.5536 15.1103 11.6986 13.4232 13.3771C11.7362 15.0544 10.5791 17.19 10.0942 19.5186C8.89459 19.6985 8.00613 20.7267 8.00003 21.9385C7.99395 23.1515 8.87278 24.1882 10.07 24.3803ZM22.0153 34.8524C21.3189 34.8499 20.7561 34.2848 20.7561 33.5883C20.7537 33.5555 20.7537 33.5239 20.7561 33.4911C20.8121 32.8359 21.3578 32.3315 22.0153 32.3291C22.0943 32.3218 22.1746 32.3218 22.2536 32.3291H22.3119C22.3702 32.34 22.4274 32.3558 22.4821 32.3777H22.521L22.6863 32.4604C22.7446 32.4993 22.7981 32.543 22.8516 32.5868C23.0205 32.7436 23.1433 32.9441 23.2065 33.1653C23.2271 33.2431 23.2405 33.3233 23.2453 33.4036C23.2478 33.4364 23.2478 33.468 23.2453 33.5008C23.2697 33.8448 23.1518 34.1839 22.9196 34.4391C22.6875 34.6943 22.3605 34.8439 22.0153 34.8524ZM34.9184 21.9493C34.916 22.6457 34.3508 23.2084 33.6544 23.2084H33.5231C32.8789 23.1404 32.3916 22.5971 32.3952 21.9493C32.3879 21.8715 32.3879 21.7937 32.3952 21.7159C32.4122 21.6211 32.4414 21.5299 32.4827 21.4436C32.6249 21.1094 32.9081 20.8554 33.2557 20.7484C33.3299 20.7253 33.4065 20.7083 33.4842 20.6998C33.5329 20.6949 33.5815 20.6949 33.6301 20.6998C33.9668 20.6937 34.2925 20.8213 34.5344 21.0559C34.7762 21.2905 34.9148 21.6126 34.9184 21.9493ZM22.0153 9.04615C22.7118 9.04858 23.2745 9.61375 23.2745 10.3102C23.2794 10.3698 23.2794 10.4305 23.2745 10.4901C23.2308 10.7964 22.555 11.2777 21.9278 11.5597H21.7577L21.641 11.5256L21.5292 11.4673L21.4222 11.4187L21.3396 11.3701C21.3055 11.3482 21.2727 11.3239 21.2423 11.2971L21.1743 11.2534L21.0868 11.161L21.043 11.0881L20.9652 10.9762L20.9215 10.9082C20.8923 10.8644 20.868 10.817 20.8485 10.7672L20.8194 10.7089C20.7975 10.6371 20.7817 10.5642 20.7708 10.4901C20.7659 10.4317 20.7659 10.3734 20.7708 10.3151C20.7683 9.62225 21.3225 9.05707 22.0153 9.04615ZM19.7352 11.2534C19.7595 11.3069 19.7887 11.3555 19.813 11.4041C19.8373 11.4527 19.8519 11.4868 19.8762 11.5256C19.9321 11.6192 19.9929 11.708 20.0609 11.793L20.1047 11.8562C20.1898 11.9583 20.2821 12.0544 20.3818 12.1431L20.4693 12.2112L20.7027 12.3813L20.8291 12.4494C20.9057 12.4931 20.9859 12.532 21.0673 12.5661L21.2034 12.6195C21.2909 12.6499 21.3809 12.6755 21.4708 12.6973L21.6021 12.7265C21.7382 12.752 21.8768 12.7642 22.0153 12.7654C23.0047 12.7569 23.8956 12.1638 24.2858 11.2534C26.3508 11.6909 28.2445 12.7168 29.7381 14.2069C31.233 15.697 32.2662 17.5869 32.711 19.6495L32.4388 19.7857C32.3452 19.8391 32.254 19.8975 32.1665 19.9607C32.1446 19.9789 32.1227 19.9947 32.0984 20.0093C31.9939 20.0956 31.8942 20.188 31.8019 20.2864L31.7338 20.3739C31.6706 20.4505 31.6123 20.5295 31.5588 20.6122C31.5296 20.6559 31.5102 20.6948 31.4859 20.7386C31.4409 20.8176 31.3996 20.8978 31.3643 20.9816C31.3643 21.0254 31.3254 21.074 31.3108 21.1178C31.278 21.2077 31.2525 21.3013 31.233 21.3949C31.233 21.4386 31.233 21.4775 31.199 21.5262C31.1735 21.6659 31.1601 21.8069 31.1601 21.9491C31.1613 22.0926 31.1735 22.236 31.199 22.377C31.199 22.4207 31.199 22.4645 31.233 22.5082C31.2513 22.603 31.2768 22.6954 31.3108 22.7854C31.3108 22.834 31.3449 22.8777 31.3692 22.9263C31.4032 23.0102 31.4433 23.0916 31.4907 23.1694C31.5114 23.2132 31.5357 23.2557 31.5636 23.2958C31.6171 23.3809 31.6779 23.4623 31.7435 23.5389C31.7678 23.5389 31.7873 23.5924 31.8116 23.6216C31.904 23.7224 32.0048 23.8148 32.113 23.8987L32.1665 23.9376C32.2589 24.0069 32.3561 24.0676 32.4582 24.1223C32.4971 24.1466 32.5409 24.1612 32.5797 24.1807L32.7402 24.2585C32.3123 26.3344 31.2902 28.2402 29.7988 29.745C28.3075 31.2509 26.4101 32.2901 24.3391 32.7374C24.3391 32.6839 24.2905 32.6401 24.271 32.5867C24.2516 32.5332 24.2321 32.4991 24.2078 32.4554C24.1592 32.3581 24.1021 32.2658 24.0377 32.1783L23.9842 32.1005C23.9015 31.9887 23.8079 31.8853 23.7071 31.7893L23.6244 31.7213C23.5454 31.6532 23.4628 31.5888 23.3765 31.5317L23.2501 31.4587C23.1674 31.4077 23.0787 31.3664 22.9875 31.3323C22.9426 31.308 22.8951 31.2886 22.8465 31.274C22.7554 31.2387 22.6606 31.212 22.5646 31.1913L22.4333 31.1573C22.1477 31.099 21.8535 31.099 21.5679 31.1573L21.4318 31.1913C21.337 31.212 21.2446 31.2387 21.1547 31.274C21.1061 31.2886 21.0587 31.308 21.0137 31.3323C20.9274 31.3664 20.8447 31.4089 20.7657 31.4587L20.6393 31.5317C20.5518 31.5924 20.468 31.6568 20.3865 31.7261L20.3087 31.7893C20.2078 31.8853 20.1143 31.9887 20.0316 32.1005C20.0134 32.1236 19.9976 32.1479 19.983 32.1734C19.9174 32.2621 19.859 32.3569 19.808 32.4554C19.808 32.4991 19.7691 32.5429 19.7496 32.5867C19.7229 32.6353 19.6986 32.6863 19.6767 32.7374C17.6044 32.2913 15.707 31.2521 14.2157 29.7462C12.7244 28.2415 11.7022 26.3344 11.2756 24.2584L11.4312 24.1855L11.5527 24.1223C11.6524 24.07 11.7484 24.0093 11.8395 23.9424L11.9027 23.8938C12.0097 23.8099 12.1094 23.7176 12.1993 23.6167L12.2722 23.5292C12.3354 23.4526 12.3938 23.3736 12.4473 23.2909L12.525 23.1645C12.5688 23.0855 12.6077 23.0053 12.6417 22.9215L12.7001 22.7805C12.7341 22.6905 12.7596 22.5981 12.7779 22.5033C12.7779 22.4596 12.8022 22.4158 12.8119 22.3721C12.8374 22.2311 12.8496 22.0877 12.8508 21.9442C12.8508 21.802 12.8374 21.661 12.8119 21.5213C12.8119 21.4726 12.7876 21.4338 12.7779 21.39C12.7584 21.2964 12.7329 21.2028 12.7001 21.1129C12.7001 21.0691 12.666 21.0205 12.6466 20.9768C12.6113 20.8929 12.57 20.8127 12.525 20.7337C12.5044 20.6899 12.4801 20.6474 12.4521 20.6073C12.3986 20.5246 12.3403 20.4456 12.2771 20.369L12.209 20.2815C12.1167 20.1831 12.017 20.0907 11.9125 20.0044L11.8395 19.9558C11.7545 19.8914 11.6645 19.833 11.5721 19.7808C11.532 19.7565 11.4895 19.7358 11.4457 19.7176L11.2999 19.6446C11.7472 17.5808 12.7803 15.6909 14.2777 14.202C15.7739 12.7131 17.6701 11.6897 19.7352 11.2534ZM10.3764 20.69C10.425 20.6851 10.4736 20.6851 10.5223 20.69C11.1616 20.7592 11.6465 21.2989 11.6465 21.9418C11.6465 22.5848 11.1616 23.1245 10.5223 23.1937H10.3764C9.68118 23.1937 9.11722 22.6298 9.11722 21.9345C9.11722 21.2393 9.68118 20.6753 10.3764 20.6753V20.69Z" fill="white"/>
<defs>
<linearGradient id="paint0_linear_241_106" x1="22" y1="44" x2="22" y2="0" gradientUnits="userSpaceOnUse">
<stop stop-color="#1D4EFF"/>
<stop offset="1" stop-color="#24B6FF"/>
</linearGradient>
</defs>
</svg>
