<svg width="44" height="44" viewBox="0 0 44 44" fill="none" xmlns="http://www.w3.org/2000/svg">
<rect width="44" height="44" rx="22" fill="url(#paint0_linear_241_89)"/>
<rect x="0.5" y="0.5" width="43" height="43" rx="21.5" stroke="#9F6EFD" stroke-opacity="0.1"/>
<path fill-rule="evenodd" clip-rule="evenodd" d="M17.8156 12.4238C18.6755 10.9246 20.2717 10 22 10C23.7283 10 25.3245 10.9246 26.1844 12.4238L34.4406 26.8188C34.8072 27.4578 35 28.1816 35 28.9183C35 31.2488 33.1107 33.1381 30.7802 33.1381H13.2199C10.8893 33.1381 9 31.2488 9 28.9183C9 28.1816 9.19286 27.4578 9.55935 26.8188L17.8156 12.4238ZM22 12.1667C21.048 12.1667 20.1687 12.676 19.6951 13.5018L11.4388 27.8967C11.2605 28.2076 11.1667 28.5598 11.1667 28.9183C11.1667 30.0523 12.0859 30.9714 13.2199 30.9714H30.7802C31.914 30.9714 32.8333 30.0523 32.8333 28.9183C32.8333 28.5598 32.7395 28.2076 32.5612 27.8967L24.3049 13.5018C23.8313 12.676 22.952 12.1667 22 12.1667Z" fill="white"/>
<path fill-rule="evenodd" clip-rule="evenodd" d="M22 16.4678C22.5983 16.4678 23.0833 16.9528 23.0833 17.5511V23.2313C23.0833 23.8296 22.5983 24.3146 22 24.3146C21.4017 24.3146 20.9166 23.8296 20.9166 23.2313V17.5511C20.9166 16.9528 21.4017 16.4678 22 16.4678ZM22 26.4472C22.5983 26.4472 23.0833 26.9322 23.0833 27.5305V28.0452C23.0833 28.6435 22.5983 29.1286 22 29.1286C21.4017 29.1286 20.9166 28.6435 20.9166 28.0452V27.5305C20.9166 26.9322 21.4017 26.4472 22 26.4472Z" fill="white"/>
<defs>
<linearGradient id="paint0_linear_241_89" x1="22" y1="44" x2="22" y2="0" gradientUnits="userSpaceOnUse">
<stop stop-color="#1D4EFF"/>
<stop offset="1" stop-color="#24B6FF"/>
</linearGradient>
</defs>
</svg>
