<svg width="44" height="44" viewBox="0 0 44 44" fill="none" xmlns="http://www.w3.org/2000/svg">
<rect width="44" height="44" rx="22" fill="url(#paint0_linear_241_129)"/>
<rect x="0.5" y="0.5" width="43" height="43" rx="21.5" stroke="#9F6EFD" stroke-opacity="0.1"/>
<path fill-rule="evenodd" clip-rule="evenodd" d="M21.9964 12.6173C27.1785 12.6173 31.3805 16.8183 31.3805 21.9993C31.3805 27.1803 27.1785 31.3813 21.9964 31.3813C17.1441 31.3813 13.1375 27.7131 12.6559 22.8964C12.3983 20.2064 13.3004 17.4254 15.3614 15.3657L16.7749 16.7799L17.225 11.6512L12.0952 12.1002L13.5096 13.5144C10.9897 16.0338 9.8002 19.3693 10.0274 22.8893C10.5436 29.1144 15.6014 34 21.9974 34C28.6264 34 34 28.6265 34 22C34 15.3725 28.6254 10 21.9974 10C21.2739 10 20.6885 10.5862 20.6885 11.3095C20.6885 12.0329 21.2749 12.6191 21.9974 12.6191L21.9964 12.6173ZM23.1641 21.5158L25.4048 23.7559C25.8598 24.2118 25.8598 24.95 25.4048 25.4059C24.9487 25.8618 24.2104 25.8618 23.7544 25.4059L21.198 22.849C20.9631 22.628 20.8298 22.3211 20.8298 21.9993V16.036C20.8298 15.3916 21.353 14.8685 21.9975 14.8685C22.6421 14.8685 23.1652 15.3916 23.1652 16.036V21.5168L23.1641 21.5158Z" fill="white"/>
<defs>
<linearGradient id="paint0_linear_241_129" x1="22" y1="44" x2="22" y2="0" gradientUnits="userSpaceOnUse">
<stop stop-color="#1D4EFF"/>
<stop offset="1" stop-color="#24B6FF"/>
</linearGradient>
</defs>
</svg>
