<svg width="44" height="44" viewBox="0 0 44 44" fill="none" xmlns="http://www.w3.org/2000/svg">
<rect width="44" height="44" rx="22" fill="url(#paint0_linear_241_57)"/>
<rect x="0.5" y="0.5" width="43" height="43" rx="21.5" stroke="#9F6EFD" stroke-opacity="0.1"/>
<path d="M15.7433 33.9872C15.5295 33.9872 15.3562 33.8139 15.3562 33.6001V30.3236C15.3562 30.1098 15.5295 29.9365 15.7433 29.9365C15.9572 29.9365 16.1304 30.1098 16.1304 30.3236V33.6001C16.1304 33.8139 15.9572 33.9872 15.7433 33.9872Z" fill="white"/>
<path d="M28.1936 33.9871C27.9797 33.9871 27.8065 33.8138 27.8065 33.6V30.3236C27.8065 30.1098 27.9797 29.9365 28.1936 29.9365C28.4074 29.9365 28.5807 30.1098 28.5807 30.3236V33.6C28.5807 33.8138 28.4074 33.9871 28.1936 33.9871Z" fill="white"/>
<path d="M29.7438 34H14.1929C13.5626 34 12.9623 33.7284 12.546 33.2547C12.1298 32.7813 11.9374 32.1517 12.018 31.5271L12.5393 27.4783C12.6525 26.589 12.9937 25.7313 13.5261 24.9983C14.1736 24.1106 15.066 23.4508 16.1072 23.0898L19.1776 22.0274L19.5476 20.7515L20.2911 20.9672L19.8653 22.4356C19.8304 22.5563 19.7389 22.6524 19.6201 22.6935L16.3606 23.8213C15.4695 24.1304 14.7057 24.6949 14.1521 25.4538C13.6965 26.0812 13.4041 26.8155 13.3072 27.5766L12.7859 31.6261C12.7338 32.0301 12.8582 32.4373 13.1274 32.7437C13.3968 33.05 13.7852 33.2258 14.1929 33.2258H29.7438C30.1516 33.2258 30.54 33.05 30.8094 32.7437C31.0785 32.4373 31.203 32.0301 31.1508 31.6263L30.6296 27.5771C30.5327 26.8155 30.2403 26.0812 29.7842 25.4532C29.5107 25.0785 29.1808 24.7469 28.8042 24.4687C28.43 24.1906 28.0174 23.9731 27.5768 23.8215L24.3167 22.6935C24.1978 22.6524 24.1064 22.5563 24.0715 22.4356L23.6457 20.9672L24.3891 20.7515L24.7592 22.0274L27.8291 23.0897C28.3445 23.2668 28.8279 23.5216 29.2651 23.8467C29.7041 24.1711 30.0897 24.5585 30.4102 24.9976C30.9431 25.7313 31.2843 26.589 31.3974 27.4788L31.9187 31.5273C31.9994 32.1517 31.807 32.7813 31.3908 33.2547C30.9744 33.7284 30.3741 34 29.7438 34Z" fill="white"/>
<path d="M21.9684 22.0595C19.29 22.0595 16.9951 18.3619 16.9951 15.3348C16.9951 12.1439 18.9937 10 21.9684 10C24.9431 10 26.9417 12.1439 26.9417 15.3348C26.9417 18.3619 24.6468 22.0595 21.9684 22.0595ZM21.9684 10.7742C19.4568 10.7742 17.7693 12.607 17.7693 15.3348C17.7693 17.9578 19.7464 21.2853 21.9684 21.2853C24.1904 21.2853 26.1675 17.9578 26.1675 15.3348C26.1675 12.607 24.48 10.7742 21.9684 10.7742Z" fill="white"/>
<defs>
<linearGradient id="paint0_linear_241_57" x1="22" y1="44" x2="22" y2="0" gradientUnits="userSpaceOnUse">
<stop stop-color="#1D4EFF"/>
<stop offset="1" stop-color="#24B6FF"/>
</linearGradient>
</defs>
</svg>
