<svg width="44" height="44" viewBox="0 0 44 44" fill="none" xmlns="http://www.w3.org/2000/svg">
<rect width="44" height="44" rx="22" fill="url(#paint0_linear_241_27)"/>
<rect x="0.5" y="0.5" width="43" height="43" rx="21.5" stroke="#9F6EFD" stroke-opacity="0.1"/>
<path d="M19.5235 20.2502C20.6029 18.0711 21.3471 16.75 22.5882 16.75C23.8294 16.75 24.5735 18.0711 25.6529 20.2502C26.7706 22.5064 28.0382 25.0625 30.8235 25.0625H32V22.6875H30.8235C29.5824 22.6875 28.8382 21.3664 27.7588 19.1873C26.6412 16.9311 25.3735 14.375 22.5882 14.375C19.8029 14.375 18.5353 16.9311 17.4176 19.1873C16.3382 21.3664 15.5941 22.6875 14.3529 22.6875V12H12V29.8125C12 30.1274 12.1239 30.4295 12.3446 30.6522C12.5652 30.8749 12.8645 31 13.1765 31H32V28.625H14.3529V25.0625C17.1382 25.0625 18.4059 22.5064 19.5235 20.2502Z" fill="white"/>
<defs>
<linearGradient id="paint0_linear_241_27" x1="22" y1="44" x2="22" y2="0" gradientUnits="userSpaceOnUse">
<stop stop-color="#1D4EFF"/>
<stop offset="1" stop-color="#24B6FF"/>
</linearGradient>
</defs>
</svg>
