<svg width="40" height="41" viewBox="0 0 40 41" fill="none" xmlns="http://www.w3.org/2000/svg">
<rect x="0.5" y="0.72998" width="39" height="39" rx="19.5" fill="url(#paint0_linear_153_8606)"/>
<rect x="0.5" y="0.72998" width="39" height="39" rx="19.5" stroke="#47549E"/>
<path d="M30.8265 13.6171L29.6647 12.4186C29.5474 12.2984 29.3882 12.23 29.2199 12.23H29.2173C29.0498 12.23 28.889 12.2984 28.7725 12.4178L17.205 24.3307L12.2266 19.2022C12.111 19.0828 11.9501 19.0152 11.7834 19.0152H11.7826C11.6159 19.0152 11.4559 19.082 11.3395 19.2022L10.1734 20.4006C9.9422 20.6393 9.9422 21.0174 10.1734 21.2561L16.761 28.0422C16.8775 28.1624 17.0375 28.23 17.205 28.23C17.3725 28.23 17.5325 28.1624 17.649 28.0422L30.8266 14.476C30.9372 14.3608 31 14.2039 31 14.0445C31 13.8851 30.9371 13.7314 30.8265 13.6171Z" fill="white"/>
<defs>
<linearGradient id="paint0_linear_153_8606" x1="20" y1="40.23" x2="20" y2="0.22998" gradientUnits="userSpaceOnUse">
<stop stop-color="#1D4EFF"/>
<stop offset="1" stop-color="#24B6FF"/>
</linearGradient>
</defs>
</svg>
