<svg width="40" height="40" viewBox="0 0 40 40" fill="none" xmlns="http://www.w3.org/2000/svg">
<rect x="0.5" y="0.5" width="39" height="39" rx="19.5" fill="url(#paint0_linear_1_26)"/>
<rect x="0.5" y="0.5" width="39" height="39" rx="19.5" stroke="#47549E"/>
<path d="M26.4437 14.9376C24.9056 13.8561 22.7453 13.2188 20.0224 13.0431C19.5777 13.0143 19.1375 13 18.7137 13C13.4238 13 10.2532 15.2346 10.0145 19.131C9.75379 23.3934 13.0208 26.0585 18.9774 26.4427C19.1005 26.4507 19.2284 26.4561 19.3687 26.4593L23.8159 29L23.8742 28.0891C23.8734 28.0754 23.8012 27.088 24.6602 25.6942C26.8973 24.4789 28.8008 23.3768 28.9856 20.3548C29.1252 18.0783 28.2463 16.2048 26.4437 14.9376ZM16.5956 20.8432C16.3899 21.0526 16.1464 21.1573 15.8652 21.1573C15.5803 21.1573 15.3352 21.0535 15.1295 20.8461C14.9238 20.6387 14.821 20.3905 14.821 20.1018C14.821 19.8131 14.9238 19.5632 15.1295 19.3521C15.3352 19.141 15.5806 19.0354 15.8652 19.0354C16.1464 19.0354 16.3899 19.1418 16.5956 19.3549C16.8012 19.5677 16.9041 19.8168 16.9041 20.1021C16.9041 20.3874 16.8012 20.6338 16.5956 20.8432ZM20.1397 20.8432C19.934 21.0526 19.6906 21.1573 19.4093 21.1573C19.1244 21.1573 18.8793 21.0535 18.6736 20.8461C18.468 20.6387 18.3651 20.3905 18.3651 20.1018C18.3651 19.8131 18.468 19.5632 18.6736 19.3521C18.8793 19.141 19.1247 19.0354 19.4093 19.0354C19.6906 19.0354 19.934 19.1418 20.1397 19.3549C20.3454 19.5677 20.4482 19.8168 20.4482 20.1021C20.4482 20.3874 20.3457 20.6338 20.1397 20.8432ZM23.6841 20.8432C23.4785 21.0526 23.235 21.1573 22.9537 21.1573C22.6689 21.1573 22.4237 21.0535 22.2181 20.8461C22.0124 20.6387 21.9096 20.3905 21.9096 20.1018C21.9096 19.8131 22.0124 19.5632 22.2181 19.3521C22.4237 19.141 22.6691 19.0354 22.9537 19.0354C23.235 19.0354 23.4785 19.1418 23.6841 19.3549C23.8898 19.5677 23.9926 19.8168 23.9926 20.1021C23.9926 20.3874 23.8898 20.6338 23.6841 20.8432Z" fill="white"/>
<defs>
<linearGradient id="paint0_linear_1_26" x1="20" y1="40" x2="20" y2="0" gradientUnits="userSpaceOnUse">
<stop stop-color="#1D4EFF"/>
<stop offset="1" stop-color="#24B6FF"/>
</linearGradient>
</defs>
</svg>
