<svg width="40" height="40" viewBox="0 0 40 40" fill="none" xmlns="http://www.w3.org/2000/svg">
<rect x="0.5" y="0.5" width="39" height="39" rx="19.5" fill="url(#paint0_linear_1_46)"/>
<rect x="0.5" y="0.5" width="39" height="39" rx="19.5" stroke="#47549E"/>
<path d="M24.3162 9.73521C24.2752 9.31732 23.9552 9.00003 23.5737 9.00003H19.7265C19.5502 9.00003 19.3982 9.13556 19.3609 9.3245L18.9579 11.3986C18.9234 11.5711 18.9942 11.7487 19.1333 11.8381L19.8497 12.298L18.8795 14.2407L18.9728 12.9675C18.984 12.7878 18.8888 12.6204 18.7377 12.5527L17.7936 12.1337L18.2563 11.0905C18.2965 11.0002 18.3049 10.8954 18.2787 10.7989L17.8944 9.29982C17.8496 9.12218 17.7031 9 17.5362 9H16.4242C16.0417 8.99898 15.7208 9.31624 15.6816 9.73518L15.0286 16.4708C14.898 17.8087 15.218 19.1528 15.9279 20.2473C16.6378 21.3429 17.6873 22.114 18.8794 22.4138V28.2705C18.8822 28.6894 18.6891 29.0806 18.3682 29.3055C17.8822 29.7542 16.7823 29.8373 16.7972 30.7388C16.8103 31.0684 17.0015 31.358 17.2823 31.474C19.0371 32.1753 20.9596 32.1753 22.7154 31.474C22.9962 31.359 23.1865 31.0684 23.1968 30.7388C23.2173 29.8343 22.1081 29.7562 21.6295 29.3055C21.3077 29.0806 21.1146 28.6894 21.1183 28.2705V22.4138C22.2154 22.1294 23.1949 21.4466 23.8974 20.4763C24.6008 19.506 24.987 18.3036 24.9954 17.0623C25.0645 17.3673 24.3265 9.77411 24.3162 9.73521Z" fill="white"/>
<defs>
<linearGradient id="paint0_linear_1_46" x1="20" y1="40" x2="20" y2="0" gradientUnits="userSpaceOnUse">
<stop stop-color="#1D4EFF"/>
<stop offset="1" stop-color="#24B6FF"/>
</linearGradient>
</defs>
</svg>
