<svg width="40" height="40" viewBox="0 0 40 40" fill="none" xmlns="http://www.w3.org/2000/svg">
<rect x="0.5" y="0.5" width="39" height="39" rx="19.5" fill="url(#paint0_linear_1_58)"/>
<rect x="0.5" y="0.5" width="39" height="39" rx="19.5" stroke="#47549E"/>
<path d="M16.1519 24.7156H14.3284C14.5285 25.1112 14.8286 25.6478 15.2424 26.1798C15.6517 25.6478 15.9563 25.1112 16.1519 24.7156Z" fill="white"/>
<path d="M10.736 32.0867H19.826C20.8765 32.0867 21.7359 31.2318 21.7359 30.1768V23.2058H20.5263C18.9712 23.2058 17.707 21.9416 17.707 20.3864V19.1814H10.736C9.68099 19.1814 8.8261 20.0363 8.8261 21.0867V30.1768C8.8261 31.2318 9.68099 32.0867 10.736 32.0867ZM12.1274 23.806H14.7876V22.9284C14.7876 22.6783 14.9923 22.4737 15.2424 22.4737C15.4925 22.4737 15.6971 22.6783 15.6971 22.9284V23.806H18.3573C18.6074 23.806 18.812 24.0106 18.812 24.2607C18.812 24.5108 18.6074 24.7155 18.3573 24.7155H17.1613C16.9658 25.1611 16.5383 26.0251 15.8562 26.8664C16.3837 27.3802 17.0294 27.8031 17.7843 27.9714C18.0299 28.0259 18.1845 28.2669 18.1299 28.5125C18.0844 28.7262 17.898 28.8672 17.6888 28.8672C17.657 28.8672 17.6206 28.8672 17.5888 28.8581C16.6475 28.6534 15.8699 28.1442 15.2424 27.5394C14.6103 28.1442 13.8327 28.6534 12.8914 28.8581C12.8596 28.8672 12.8277 28.8672 12.7959 28.8672C12.5867 28.8672 12.3957 28.7262 12.3503 28.5125C12.2957 28.2669 12.4549 28.0259 12.7004 27.9714C13.4553 27.8031 14.0964 27.3802 14.6239 26.8664C13.9418 26.0251 13.5144 25.1611 13.3234 24.7155H12.1274C11.8773 24.7155 11.6727 24.5108 11.6727 24.2607C11.6727 24.0106 11.8773 23.806 12.1274 23.806Z" fill="white"/>
<path d="M25.0691 13.9158L23.9505 16.5896H26.1923L25.0691 13.9158Z" fill="white"/>
<path d="M20.5263 22.2964H29.6163C30.6668 22.2964 31.5217 21.4415 31.5217 20.3865V11.2964C31.5217 10.246 30.6668 9.39111 29.6163 9.39111H20.5263C19.4713 9.39111 18.6164 10.246 18.6164 11.2964V20.3865C18.6164 21.4415 19.4713 22.2964 20.5263 22.2964ZM22.0496 18.7768L22.8499 16.8714V16.8669L24.6507 12.5606C24.7234 12.3923 24.8871 12.2832 25.069 12.2832C25.2555 12.2832 25.4192 12.3923 25.4919 12.5606L27.2927 16.8669C27.2927 16.8669 27.2927 16.8669 27.2927 16.8714L28.0884 18.7768C28.1885 19.0087 28.0793 19.2724 27.8474 19.3679C27.7883 19.3952 27.7292 19.4043 27.6701 19.4043C27.4927 19.4043 27.3245 19.2997 27.2517 19.1269L26.5696 17.499H23.5684L22.8909 19.1269C22.7954 19.3588 22.5271 19.468 22.2952 19.3679C22.0632 19.2724 21.9541 19.0087 22.0496 18.7768Z" fill="white"/>
<path d="M11.6091 18.2309C11.8592 18.2309 12.0638 18.0263 12.0638 17.7762V17.7307C12.0638 15.9573 13.2598 14.4612 14.8832 13.9974L14.8013 14.0974C14.6467 14.293 14.6785 14.5795 14.8741 14.7341C14.9559 14.8023 15.056 14.8341 15.156 14.8341C15.2879 14.8341 15.4243 14.775 15.5107 14.6613L16.2974 13.67C16.311 13.6563 16.3156 13.6336 16.3247 13.62C16.3428 13.5927 16.3565 13.5654 16.3656 13.5381C16.3747 13.5108 16.3792 13.479 16.3838 13.4517C16.3883 13.429 16.3974 13.4108 16.3974 13.3881C16.3974 13.379 16.3929 13.3699 16.3929 13.3608C16.3929 13.3517 16.3974 13.3426 16.3929 13.3335C16.3883 13.3108 16.3792 13.2926 16.3747 13.2698C16.3656 13.2425 16.361 13.2107 16.3474 13.1834C16.3337 13.1607 16.3201 13.138 16.3019 13.1152C16.2837 13.0879 16.2655 13.0652 16.2428 13.047C16.2383 13.0425 16.2337 13.0334 16.2246 13.0288L15.2333 12.2421C15.0378 12.0875 14.7513 12.1194 14.5921 12.3149C14.4375 12.5104 14.4693 12.7969 14.6649 12.9561L14.8104 13.0697C12.7095 13.579 11.1453 15.4707 11.1453 17.7216V17.7671C11.1544 18.0263 11.3544 18.2309 11.6091 18.2309Z" fill="white"/>
<path d="M25.4329 26.7845C25.2373 26.6299 24.9509 26.6617 24.7917 26.8572L24.005 27.8486C23.9914 27.8622 23.9868 27.8849 23.9777 27.8986C23.9595 27.9259 23.9459 27.9531 23.9368 27.9804C23.9277 28.0123 23.9232 28.0395 23.9186 28.0714C23.9141 28.0896 23.905 28.1078 23.905 28.1259C23.905 28.135 23.9095 28.1441 23.9095 28.1532C23.9095 28.1851 23.9186 28.2123 23.9277 28.2442C23.9368 28.2715 23.9413 28.2987 23.9504 28.3215C23.9641 28.3442 23.9823 28.3669 23.9959 28.3897C24.0141 28.417 24.0323 28.4397 24.055 28.4624C24.0596 28.467 24.0641 28.4761 24.0732 28.4806L25.0645 29.2673C25.1464 29.3355 25.2464 29.3674 25.3465 29.3674C25.4783 29.3674 25.6148 29.3082 25.7012 29.1946C25.8558 28.999 25.8239 28.7125 25.6284 28.5534L25.4829 28.4397C27.5837 27.9304 29.148 26.0387 29.148 23.7878V23.7423C29.148 23.4922 28.9434 23.2876 28.6933 23.2876C28.4432 23.2876 28.2386 23.4922 28.2386 23.7423V23.7878C28.2386 25.5613 27.0426 27.0573 25.4192 27.5211L25.5011 27.4211C25.6602 27.2256 25.6284 26.9391 25.4329 26.7845Z" fill="white"/>
<defs>
<linearGradient id="paint0_linear_1_58" x1="20" y1="40" x2="20" y2="0" gradientUnits="userSpaceOnUse">
<stop stop-color="#1D4EFF"/>
<stop offset="1" stop-color="#24B6FF"/>
</linearGradient>
</defs>
</svg>
