<svg width="65" height="65" viewBox="0 0 65 65" fill="none" xmlns="http://www.w3.org/2000/svg">
<path d="M65 32.5C65 14.5507 50.4493 0 32.5 0C14.5507 0 0 14.5507 0 32.5C0 50.4493 14.5507 65 32.5 65C50.4493 65 65 50.4493 65 32.5Z" fill="url(#paint0_linear_85_8550)"/>
<path d="M32.4484 28.0037C34.9307 28.0037 36.9502 25.9841 36.9502 23.5018C36.9502 21.0195 34.9307 19 32.4484 19C29.9661 19 27.9465 21.0195 27.9465 23.5018C27.9465 25.9842 29.9661 28.0037 32.4484 28.0037Z" fill="white"/>
<path d="M27.9821 44.5358C27.4395 44.5358 27 44.9753 27 45.5179C27 46.0606 27.4395 46.5001 27.9821 46.5001H36.9135C37.4562 46.5001 37.8957 46.0606 37.8957 45.5179C37.8957 44.9753 37.4562 44.5358 36.9135 44.5358H36.1573V33.1699C36.1573 31.0743 34.4619 29.3715 32.3698 29.3529C32.3575 29.3529 32.3465 29.3456 32.3342 29.3456H27.9832C27.4406 29.3456 27.0011 29.7851 27.0011 30.3277C27.0011 30.8704 27.4406 31.3099 27.9832 31.3099H28.7383L28.7395 44.5356L27.9821 44.5358Z" fill="white"/>
<defs>
<linearGradient id="paint0_linear_85_8550" x1="32.5" y1="65" x2="32.5" y2="0" gradientUnits="userSpaceOnUse">
<stop stop-color="#1D4EFF"/>
<stop offset="1" stop-color="#24B6FF"/>
</linearGradient>
</defs>
</svg>
