<svg width="65" height="65" viewBox="0 0 65 65" fill="none" xmlns="http://www.w3.org/2000/svg">
<path d="M65 32.5C65 14.5507 50.4493 0 32.5 0C14.5507 0 0 14.5507 0 32.5C0 50.4493 14.5507 65 32.5 65C50.4493 65 65 50.4493 65 32.5Z" fill="url(#paint0_linear_85_8541)"/>
<path d="M31.9999 47.823C34.0038 47.823 35.6282 46.1986 35.6282 44.1947C35.6282 42.1909 34.0038 40.5664 31.9999 40.5664C29.996 40.5664 28.3716 42.1909 28.3716 44.1947C28.3716 46.1986 29.996 47.823 31.9999 47.823Z" fill="white"/>
<path d="M22 26.4071L22.354 25.2566C23.5044 20.8319 27.3982 18 31.9115 18C37.3097 18 42 22.2478 42 27.7345C42 32.1593 38.9911 35.8761 34.8319 37.0265V38.9735H29.0796V35.5221C29.0796 33.5752 30.4956 31.8938 32.4425 31.7168C34.5664 31.4513 36.3363 29.8584 36.3363 27.7345C36.3363 25.3451 34.2124 23.7522 31.9115 23.7522C29.9646 23.7522 28.3717 24.8142 27.8407 26.7611L27.4867 27.9115L22 26.4071Z" fill="white"/>
<defs>
<linearGradient id="paint0_linear_85_8541" x1="32.5" y1="65" x2="32.5" y2="0" gradientUnits="userSpaceOnUse">
<stop stop-color="#1D4EFF"/>
<stop offset="1" stop-color="#24B6FF"/>
</linearGradient>
</defs>
</svg>
