<svg width="65" height="65" viewBox="0 0 65 65" fill="none" xmlns="http://www.w3.org/2000/svg">
<path d="M65 32.5C65 14.5507 50.4493 0 32.5 0C14.5507 0 0 14.5507 0 32.5C0 50.4493 14.5507 65 32.5 65C50.4493 65 65 50.4493 65 32.5Z" fill="url(#paint0_linear_85_8559)"/>
<path opacity="0.3" d="M48.75 39V26C48.75 20.6153 44.3848 16.25 39 16.25H26L16.25 26H34.125C36.8174 26 39 28.1826 39 30.875V48.75L48.75 39Z" fill="white"/>
<path d="M16.25 26V39C16.25 44.3847 20.6152 48.75 26 48.75H39L48.75 39H32.5C28.9101 39 26 36.0899 26 32.5V16.25L16.25 26Z" fill="white"/>
<defs>
<linearGradient id="paint0_linear_85_8559" x1="32.5" y1="65" x2="32.5" y2="0" gradientUnits="userSpaceOnUse">
<stop stop-color="#1D4EFF"/>
<stop offset="1" stop-color="#24B6FF"/>
</linearGradient>
</defs>
</svg>
