<svg width="14" height="14" viewBox="0 0 14 14" fill="none" xmlns="http://www.w3.org/2000/svg">
<mask id="mask0_1_8493" style="mask-type:alpha" maskUnits="userSpaceOnUse" x="0" y="0" width="14" height="14">
<path d="M13.2415 4.02076C13.4283 3.92909 13.5062 3.70278 13.4045 3.52135C12.7059 2.27557 11.6357 1.27459 10.3389 0.661432C8.92829 -0.00551796 7.33316 -0.174141 5.81433 0.183136C4.29549 0.540413 2.94282 1.40245 1.97748 2.62828C1.01216 3.85411 0.491312 5.3712 0.50011 6.93147C0.508907 8.49173 1.04683 10.0028 2.02591 11.2177C3.005 12.4326 4.36732 13.2793 5.89008 13.6195C7.41286 13.9596 9.00598 13.773 10.4089 13.0902C11.6987 12.4624 12.7576 11.4494 13.4421 10.1958C13.5418 10.0133 13.4613 9.78788 13.2736 9.69835L10.7139 8.4771C10.5261 8.38753 10.303 8.46857 10.1927 8.6449C9.86557 9.16764 9.39709 9.59069 8.83813 9.86268C8.16579 10.19 7.40231 10.2793 6.67254 10.1164C5.94277 9.95331 5.28991 9.54757 4.82069 8.96536C4.35148 8.38315 4.09369 7.65896 4.08947 6.91123C4.08526 6.16349 4.33487 5.43645 4.79748 4.84898C5.2601 4.26152 5.90836 3.84841 6.63624 3.67718C7.36412 3.50597 8.12855 3.58678 8.80455 3.9064C9.36654 4.17212 9.83975 4.58983 10.1727 5.10884C10.285 5.28392 10.509 5.36244 10.6957 5.27076L13.2415 4.02076Z" fill="#D9D9D9"/>
<path d="M2.11957 5.98942L8.09931 0.0376892L9.56067 1.50593L3.58093 7.45766L2.11957 5.98942Z" fill="#D9D9D9"/>
<path d="M1.29095 6.9296L7.27069 12.8813L8.73205 11.4131L2.75232 5.46136L1.29095 6.9296Z" fill="#D9D9D9"/>
<path d="M9.16074 8.36365C10.0084 7.51599 11.3828 7.51599 12.2304 8.36365L13.3125 9.44569C13.5625 9.6958 13.5625 10.1012 13.3125 10.3512L10.9223 12.7415C10.481 13.1827 9.76563 13.1827 9.32433 12.7415L7.05365 10.4708L9.16074 8.36365Z" fill="#D9D9D9"/>
<path d="M9.16074 5.40275C10.0084 6.25041 11.3828 6.25041 12.2304 5.40275L13.3125 4.32067C13.5625 4.07063 13.5625 3.66521 13.3125 3.41516L10.9223 1.02498C10.481 0.583715 9.76563 0.583715 9.32433 1.02498L7.05365 3.29565L9.16074 5.40275Z" fill="#D9D9D9"/>
</mask>
<g mask="url(#mask0_1_8493)">
<path d="M14.199 3.94934L10.6263 0.376648L7.05365 3.94934L10.6263 7.52204L14.199 3.94934Z" fill="#27EBFF"/>
<path d="M14.2366 9.78732L10.6639 6.21463L7.09125 9.78732L10.6639 13.36L14.2366 9.78732Z" fill="#27EBFF"/>
<path d="M7.7207 3.30905L4.14801 -0.263641L0.575317 3.30905L4.14801 6.88175L7.7207 3.30905Z" fill="#2082FF"/>
<path d="M7.75836 10.4276L4.18567 6.85492L0.612976 10.4276L4.18567 14.0003L7.75836 10.4276Z" fill="#2082FF"/>
<path d="M4.18024 6.84952L0.607544 3.27682L-2.96515 6.84952L0.607544 10.4222L4.18024 6.84952Z" fill="#1D4EFF"/>
<path d="M10.9975 13.6668L7.4248 10.0941L3.85211 13.6668L7.4248 17.2395L10.9975 13.6668Z" fill="#24B7FF"/>
<path d="M10.9598 0.0699161L7.38715 -3.50278L3.81445 0.0699161L7.38715 3.64261L10.9598 0.0699161Z" fill="#24B7FF"/>
</g>
</svg>
