<svg width="45" height="45" viewBox="0 0 45 45" fill="none" xmlns="http://www.w3.org/2000/svg">
<rect width="45" height="45" rx="12" fill="black"/>
<path d="M22.5 15.75C21.4246 15.75 20.3733 16.0579 19.4791 16.6348C18.5849 17.2117 17.888 18.0316 17.4764 18.9909C17.0649 19.9502 16.9572 21.0058 17.167 22.0242C17.3768 23.0426 17.8947 23.9781 18.6551 24.7123C19.4156 25.4465 20.3844 25.9466 21.4392 26.1491C22.494 26.3517 23.5873 26.2477 24.5808 25.8504C25.5744 25.453 26.4236 24.7801 27.0211 23.9167C27.6186 23.0534 27.9375 22.0384 27.9375 21C27.936 19.6081 27.3626 18.2735 26.3432 17.2893C25.3238 16.305 23.9417 15.7514 22.5 15.75ZM22.5 24.5C21.783 24.5 21.0822 24.2947 20.4861 23.9101C19.8899 23.5256 19.4253 22.9789 19.1509 22.3394C18.8766 21.6999 18.8048 20.9961 18.9447 20.3172C19.0845 19.6383 19.4298 19.0146 19.9367 18.5251C20.4437 18.0356 21.0896 17.7023 21.7928 17.5673C22.496 17.4322 23.2248 17.5015 23.8872 17.7664C24.5496 18.0313 25.1158 18.4799 25.5141 19.0555C25.9124 19.6311 26.125 20.3078 26.125 21C26.125 21.9283 25.7431 22.8185 25.0633 23.4749C24.3834 24.1313 23.4614 24.5 22.5 24.5ZM27.9375 9.625H17.0625C15.3806 9.62674 13.7681 10.2726 12.5788 11.4209C11.3895 12.5692 10.7205 14.1261 10.7188 15.75V26.25C10.7205 27.8739 11.3895 29.4308 12.5788 30.5791C13.7681 31.7274 15.3806 32.3733 17.0625 32.375H27.9375C29.6194 32.3733 31.2319 31.7274 32.4212 30.5791C33.6105 29.4308 34.2795 27.8739 34.2812 26.25V15.75C34.2795 14.1261 33.6105 12.5692 32.4212 11.4209C31.2319 10.2726 29.6194 9.62674 27.9375 9.625ZM32.4688 26.25C32.4688 27.4103 31.9914 28.5231 31.1416 29.3436C30.2918 30.1641 29.1393 30.625 27.9375 30.625H17.0625C15.8607 30.625 14.7082 30.1641 13.8584 29.3436C13.0086 28.5231 12.5312 27.4103 12.5312 26.25V15.75C12.5312 14.5897 13.0086 13.4769 13.8584 12.6564C14.7082 11.8359 15.8607 11.375 17.0625 11.375H27.9375C29.1393 11.375 30.2918 11.8359 31.1416 12.6564C31.9914 13.4769 32.4688 14.5897 32.4688 15.75V26.25ZM29.75 15.3125C29.75 15.5721 29.6703 15.8258 29.5209 16.0417C29.3715 16.2575 29.1592 16.4258 28.9108 16.5251C28.6624 16.6244 28.3891 16.6504 28.1254 16.5998C27.8617 16.5491 27.6195 16.4241 27.4294 16.2406C27.2393 16.057 27.1098 15.8232 27.0574 15.5686C27.0049 15.314 27.0318 15.0501 27.1347 14.8102C27.2376 14.5704 27.4118 14.3654 27.6354 14.2212C27.8589 14.077 28.1218 14 28.3906 14C28.7512 14 29.0969 14.1383 29.3518 14.3844C29.6068 14.6306 29.75 14.9644 29.75 15.3125Z" fill="white"/>
</svg>
