<svg width="518" height="381" viewBox="0 0 518 381" fill="none" xmlns="http://www.w3.org/2000/svg">
<g filter="url(#filter0_d_267_81476)">
<rect x="15" y="11" width="478" height="341" rx="32" fill="#F4F8FC" shape-rendering="crispEdges"/>
<rect x="13.5" y="9.5" width="481" height="344" rx="33.5" stroke="url(#paint0_linear_267_81476)" stroke-width="3" shape-rendering="crispEdges"/>
<rect x="31.5" y="23.5" width="444" height="316" rx="23.5" fill="url(#paint1_linear_267_81476)" fill-opacity="0.01"/>
<rect x="31.5" y="23.5" width="444" height="316" rx="23.5" stroke="#E0E7F5"/>
<rect x="167" y="195" width="178" height="51" rx="25.5" fill="url(#paint2_linear_267_81476)"/>
<path d="M209 219.448V220.12C209 221.581 208.499 222.797 207.496 223.768C206.493 224.728 205.165 225.208 203.512 225.208C201.805 225.208 200.392 224.648 199.272 223.528C198.163 222.397 197.608 221.021 197.608 219.4C197.608 217.779 198.163 216.408 199.272 215.288C200.392 214.157 201.795 213.592 203.48 213.592C204.515 213.592 205.464 213.843 206.328 214.344C207.192 214.835 207.859 215.485 208.328 216.296L207.048 217.048C206.728 216.44 206.243 215.955 205.592 215.592C204.952 215.219 204.243 215.032 203.464 215.032C202.184 215.032 201.133 215.453 200.312 216.296C199.491 217.128 199.08 218.163 199.08 219.4C199.08 220.637 199.491 221.672 200.312 222.504C201.144 223.336 202.216 223.752 203.528 223.752C204.648 223.752 205.555 223.48 206.248 222.936C206.941 222.381 207.363 221.667 207.512 220.792H203.4V219.448H209ZM211.641 221.64C211.78 222.355 212.105 222.909 212.617 223.304C213.14 223.699 213.78 223.896 214.537 223.896C215.593 223.896 216.361 223.507 216.841 222.728L218.025 223.4C217.247 224.605 216.073 225.208 214.505 225.208C213.236 225.208 212.201 224.813 211.401 224.024C210.612 223.224 210.217 222.216 210.217 221C210.217 219.795 210.607 218.792 211.385 217.992C212.164 217.192 213.172 216.792 214.409 216.792C215.583 216.792 216.537 217.208 217.273 218.04C218.02 218.861 218.393 219.853 218.393 221.016C218.393 221.219 218.377 221.427 218.345 221.64H211.641ZM214.409 218.104C213.663 218.104 213.044 218.317 212.553 218.744C212.063 219.16 211.759 219.72 211.641 220.424H216.985C216.868 219.667 216.569 219.091 216.089 218.696C215.609 218.301 215.049 218.104 214.409 218.104ZM224.111 218.344H221.983V222.68C221.983 223.075 222.058 223.357 222.207 223.528C222.367 223.688 222.607 223.773 222.927 223.784C223.247 223.784 223.642 223.773 224.111 223.752V225C222.895 225.16 222.004 225.064 221.439 224.712C220.874 224.349 220.591 223.672 220.591 222.68V218.344H219.007V217H220.591V215.176L221.983 214.76V217H224.111V218.344ZM231.006 219.16C231.006 219.469 231.161 219.72 231.47 219.912C231.779 220.093 232.153 220.243 232.59 220.36C233.027 220.467 233.465 220.595 233.902 220.744C234.339 220.883 234.713 221.128 235.022 221.48C235.331 221.821 235.486 222.264 235.486 222.808C235.486 223.533 235.203 224.115 234.638 224.552C234.083 224.989 233.369 225.208 232.494 225.208C231.715 225.208 231.049 225.037 230.494 224.696C229.939 224.355 229.545 223.901 229.31 223.336L230.51 222.648C230.638 223.032 230.878 223.336 231.23 223.56C231.582 223.784 232.003 223.896 232.494 223.896C232.953 223.896 233.331 223.811 233.63 223.64C233.929 223.459 234.078 223.181 234.078 222.808C234.078 222.499 233.923 222.253 233.614 222.072C233.305 221.88 232.931 221.731 232.494 221.624C232.057 221.507 231.619 221.373 231.182 221.224C230.745 221.075 230.371 220.829 230.062 220.488C229.753 220.147 229.598 219.709 229.598 219.176C229.598 218.483 229.865 217.912 230.398 217.464C230.942 217.016 231.619 216.792 232.43 216.792C233.081 216.792 233.657 216.941 234.158 217.24C234.67 217.528 235.054 217.933 235.31 218.456L234.142 219.112C233.854 218.429 233.283 218.088 232.43 218.088C232.035 218.088 231.699 218.184 231.422 218.376C231.145 218.557 231.006 218.819 231.006 219.16ZM241.174 218.344H239.046V222.68C239.046 223.075 239.12 223.357 239.27 223.528C239.43 223.688 239.67 223.773 239.99 223.784C240.31 223.784 240.704 223.773 241.174 223.752V225C239.958 225.16 239.067 225.064 238.502 224.712C237.936 224.349 237.654 223.672 237.654 222.68V218.344H236.07V217H237.654V215.176L239.046 214.76V217H241.174V218.344ZM249.039 217H250.431V225H249.039V223.624C248.346 224.68 247.338 225.208 246.015 225.208C244.895 225.208 243.941 224.803 243.151 223.992C242.362 223.171 241.967 222.173 241.967 221C241.967 219.827 242.362 218.835 243.151 218.024C243.941 217.203 244.895 216.792 246.015 216.792C247.338 216.792 248.346 217.32 249.039 218.376V217ZM246.191 223.864C247.002 223.864 247.679 223.592 248.223 223.048C248.767 222.493 249.039 221.811 249.039 221C249.039 220.189 248.767 219.512 248.223 218.968C247.679 218.413 247.002 218.136 246.191 218.136C245.391 218.136 244.719 218.413 244.175 218.968C243.631 219.512 243.359 220.189 243.359 221C243.359 221.811 243.631 222.493 244.175 223.048C244.719 223.592 245.391 223.864 246.191 223.864ZM253.932 218.344C254.391 217.352 255.223 216.856 256.428 216.856V218.312C255.746 218.28 255.159 218.461 254.668 218.856C254.178 219.251 253.932 219.885 253.932 220.76V225H252.54V217H253.932V218.344ZM262.33 218.344H260.202V222.68C260.202 223.075 260.277 223.357 260.426 223.528C260.586 223.688 260.826 223.773 261.146 223.784C261.466 223.784 261.861 223.773 262.33 223.752V225C261.114 225.16 260.223 225.064 259.658 224.712C259.093 224.349 258.81 223.672 258.81 222.68V218.344H257.226V217H258.81V215.176L260.202 214.76V217H262.33V218.344ZM264.548 221.64C264.686 222.355 265.012 222.909 265.524 223.304C266.046 223.699 266.686 223.896 267.444 223.896C268.5 223.896 269.268 223.507 269.748 222.728L270.932 223.4C270.153 224.605 268.98 225.208 267.412 225.208C266.142 225.208 265.108 224.813 264.308 224.024C263.518 223.224 263.124 222.216 263.124 221C263.124 219.795 263.513 218.792 264.292 217.992C265.07 217.192 266.078 216.792 267.316 216.792C268.489 216.792 269.444 217.208 270.18 218.04C270.926 218.861 271.3 219.853 271.3 221.016C271.3 221.219 271.284 221.427 271.252 221.64H264.548ZM267.316 218.104C266.569 218.104 265.95 218.317 265.46 218.744C264.969 219.16 264.665 219.72 264.548 220.424H269.892C269.774 219.667 269.476 219.091 268.996 218.696C268.516 218.301 267.956 218.104 267.316 218.104ZM279.508 213.8H280.9V225H279.508V223.624C278.815 224.68 277.807 225.208 276.484 225.208C275.364 225.208 274.409 224.803 273.62 223.992C272.831 223.171 272.436 222.173 272.436 221C272.436 219.827 272.831 218.835 273.62 218.024C274.409 217.203 275.364 216.792 276.484 216.792C277.807 216.792 278.815 217.32 279.508 218.376V213.8ZM276.66 223.864C277.471 223.864 278.148 223.592 278.692 223.048C279.236 222.493 279.508 221.811 279.508 221C279.508 220.189 279.236 219.512 278.692 218.968C278.148 218.413 277.471 218.136 276.66 218.136C275.86 218.136 275.188 218.413 274.644 218.968C274.1 219.512 273.828 220.189 273.828 221C273.828 221.811 274.1 222.493 274.644 223.048C275.188 223.592 275.86 223.864 276.66 223.864ZM291.121 214.936C289.713 214.819 289.009 215.427 289.009 216.76V217H291.121V218.344H289.009V225H287.617V218.344H286.337V217H287.617V216.76C287.617 215.683 287.916 214.867 288.513 214.312C289.121 213.757 289.99 213.517 291.121 213.592V214.936ZM293.573 218.344C294.032 217.352 294.864 216.856 296.069 216.856V218.312C295.386 218.28 294.8 218.461 294.309 218.856C293.818 219.251 293.573 219.885 293.573 220.76V225H292.181V217H293.573V218.344ZM297.97 221.64C298.108 222.355 298.434 222.909 298.946 223.304C299.468 223.699 300.108 223.896 300.866 223.896C301.922 223.896 302.69 223.507 303.17 222.728L304.354 223.4C303.575 224.605 302.402 225.208 300.834 225.208C299.564 225.208 298.53 224.813 297.73 224.024C296.94 223.224 296.546 222.216 296.546 221C296.546 219.795 296.935 218.792 297.714 217.992C298.492 217.192 299.5 216.792 300.738 216.792C301.911 216.792 302.866 217.208 303.602 218.04C304.348 218.861 304.722 219.853 304.722 221.016C304.722 221.219 304.706 221.427 304.674 221.64H297.97ZM300.738 218.104C299.991 218.104 299.372 218.317 298.882 218.744C298.391 219.16 298.087 219.72 297.97 220.424H303.314C303.196 219.667 302.898 219.091 302.418 218.696C301.938 218.301 301.378 218.104 300.738 218.104ZM307.282 221.64C307.421 222.355 307.746 222.909 308.258 223.304C308.781 223.699 309.421 223.896 310.178 223.896C311.234 223.896 312.002 223.507 312.482 222.728L313.666 223.4C312.887 224.605 311.714 225.208 310.146 225.208C308.877 225.208 307.842 224.813 307.042 224.024C306.253 223.224 305.858 222.216 305.858 221C305.858 219.795 306.247 218.792 307.026 217.992C307.805 217.192 308.813 216.792 310.05 216.792C311.223 216.792 312.178 217.208 312.914 218.04C313.661 218.861 314.034 219.853 314.034 221.016C314.034 221.219 314.018 221.427 313.986 221.64H307.282ZM310.05 218.104C309.303 218.104 308.685 218.317 308.194 218.744C307.703 219.16 307.399 219.72 307.282 220.424H312.626C312.509 219.667 312.21 219.091 311.73 218.696C311.25 218.301 310.69 218.104 310.05 218.104Z" fill="white"/>
<path d="M146.565 137.043H131.391V148.154H145.929V152.462H131.391V167H126.838V132.735H146.565V137.043ZM154.796 146.637C156.2 143.602 158.745 142.084 162.433 142.084V146.539C160.344 146.441 158.549 146.996 157.048 148.203C155.547 149.411 154.796 151.352 154.796 154.028V167H150.538V142.525H154.796V146.637ZM167.147 156.72C167.571 158.907 168.566 160.604 170.133 161.811C171.732 163.019 173.69 163.622 176.007 163.622C179.238 163.622 181.587 162.431 183.056 160.049L186.678 162.105C184.296 165.793 180.706 167.636 175.909 167.636C172.026 167.636 168.86 166.429 166.413 164.014C163.998 161.567 162.79 158.483 162.79 154.762C162.79 151.075 163.981 148.007 166.364 145.56C168.746 143.112 171.83 141.889 175.615 141.889C179.205 141.889 182.126 143.161 184.377 145.707C186.662 148.22 187.804 151.254 187.804 154.811C187.804 155.431 187.755 156.068 187.657 156.72H167.147ZM175.615 145.903C173.331 145.903 171.438 146.555 169.937 147.861C168.436 149.133 167.506 150.846 167.147 153H183.496C183.137 150.683 182.223 148.921 180.755 147.714C179.286 146.506 177.573 145.903 175.615 145.903ZM194.537 156.72C194.962 158.907 195.957 160.604 197.523 161.811C199.122 163.019 201.08 163.622 203.397 163.622C206.628 163.622 208.978 162.431 210.446 160.049L214.068 162.105C211.686 165.793 208.096 167.636 203.299 167.636C199.416 167.636 196.251 166.429 193.803 164.014C191.388 161.567 190.181 158.483 190.181 154.762C190.181 151.075 191.372 148.007 193.754 145.56C196.136 143.112 199.22 141.889 203.006 141.889C206.595 141.889 209.516 143.161 211.768 145.707C214.052 148.22 215.194 151.254 215.194 154.811C215.194 155.431 215.145 156.068 215.047 156.72H194.537ZM203.006 145.903C200.721 145.903 198.829 146.555 197.327 147.861C195.826 149.133 194.896 150.846 194.537 153H210.887C210.528 150.683 209.614 148.921 208.145 147.714C206.677 146.506 204.964 145.903 203.006 145.903ZM223.393 161.958L220.211 173.853H216.54L218.498 161.958H223.393ZM252.028 136.21C247.721 135.851 245.567 137.712 245.567 141.791V142.525H252.028V146.637H245.567V167H241.308V146.637H237.392V142.525H241.308V141.791C241.308 138.495 242.222 135.998 244.049 134.301C245.909 132.604 248.569 131.87 252.028 132.099V136.21ZM273.489 163.916C270.976 166.396 267.925 167.636 264.336 167.636C260.746 167.636 257.695 166.396 255.182 163.916C252.702 161.436 251.462 158.385 251.462 154.762C251.462 151.14 252.702 148.089 255.182 145.609C257.695 143.129 260.746 141.889 264.336 141.889C267.925 141.889 270.976 143.129 273.489 145.609C276.002 148.089 277.258 151.14 277.258 154.762C277.258 158.385 276.002 161.436 273.489 163.916ZM264.336 163.476C266.783 163.476 268.839 162.643 270.503 160.979C272.168 159.315 273 157.243 273 154.762C273 152.282 272.168 150.21 270.503 148.546C268.839 146.882 266.783 146.049 264.336 146.049C261.921 146.049 259.881 146.882 258.217 148.546C256.553 150.21 255.72 152.282 255.72 154.762C255.72 157.243 256.553 159.315 258.217 160.979C259.881 162.643 261.921 163.476 264.336 163.476ZM285.437 146.637C286.841 143.602 289.386 142.084 293.074 142.084V146.539C290.985 146.441 289.19 146.996 287.689 148.203C286.188 149.411 285.437 151.352 285.437 154.028V167H281.179V142.525H285.437V146.637ZM297.788 156.72C298.212 158.907 299.208 160.604 300.774 161.811C302.373 163.019 304.331 163.622 306.648 163.622C309.879 163.622 312.228 162.431 313.697 160.049L317.319 162.105C314.937 165.793 311.347 167.636 306.55 167.636C302.667 167.636 299.501 166.429 297.054 164.014C294.639 161.567 293.431 158.483 293.431 154.762C293.431 151.075 294.623 148.007 297.005 145.56C299.387 143.112 302.471 141.889 306.256 141.889C309.846 141.889 312.767 143.161 315.018 145.707C317.303 148.22 318.445 151.254 318.445 154.811C318.445 155.431 318.396 156.068 318.298 156.72H297.788ZM306.256 145.903C303.972 145.903 302.079 146.555 300.578 147.861C299.077 149.133 298.147 150.846 297.788 153H314.137C313.778 150.683 312.865 148.921 311.396 147.714C309.928 146.506 308.214 145.903 306.256 145.903ZM338.417 142.525H343.018L333.228 167H328.235L318.445 142.525H323.046L330.732 162.448L338.417 142.525ZM347.55 156.72C347.974 158.907 348.969 160.604 350.535 161.811C352.135 163.019 354.093 163.622 356.409 163.622C359.64 163.622 361.99 162.431 363.458 160.049L367.081 162.105C364.698 165.793 361.109 167.636 356.312 167.636C352.428 167.636 349.263 166.429 346.815 164.014C344.4 161.567 343.193 158.483 343.193 154.762C343.193 151.075 344.384 148.007 346.766 145.56C349.149 143.112 352.232 141.889 356.018 141.889C359.608 141.889 362.528 143.161 364.78 145.707C367.064 148.22 368.206 151.254 368.206 154.811C368.206 155.431 368.157 156.068 368.06 156.72H347.55ZM356.018 145.903C353.734 145.903 351.841 146.555 350.34 147.861C348.839 149.133 347.909 150.846 347.55 153H363.899C363.54 150.683 362.626 148.921 361.158 147.714C359.689 146.506 357.976 145.903 356.018 145.903ZM376.26 146.637C377.664 143.602 380.209 142.084 383.897 142.084V146.539C381.808 146.441 380.013 146.996 378.512 148.203C377.011 149.411 376.26 151.352 376.26 154.028V167H372.002V142.525H376.26V146.637Z" fill="#060B13"/>
</g>
<defs>
<filter id="filter0_d_267_81476" x="0" y="0" width="518" height="381" filterUnits="userSpaceOnUse" color-interpolation-filters="sRGB">
<feFlood flood-opacity="0" result="BackgroundImageFix"/>
<feColorMatrix in="SourceAlpha" type="matrix" values="0 0 0 0 0 0 0 0 0 0 0 0 0 0 0 0 0 0 127 0" result="hardAlpha"/>
<feOffset dx="5" dy="9"/>
<feGaussianBlur stdDeviation="8.5"/>
<feComposite in2="hardAlpha" operator="out"/>
<feColorMatrix type="matrix" values="0 0 0 0 0 0 0 0 0 0 0 0 0 0 0 0 0 0 0.14 0"/>
<feBlend mode="normal" in2="BackgroundImageFix" result="effect1_dropShadow_267_81476"/>
<feBlend mode="normal" in="SourceGraphic" in2="effect1_dropShadow_267_81476" result="shape"/>
</filter>
<linearGradient id="paint0_linear_267_81476" x1="254" y1="352" x2="254" y2="11" gradientUnits="userSpaceOnUse">
<stop stop-color="#1D4EFF"/>
<stop offset="1" stop-color="#24B6FF"/>
</linearGradient>
<linearGradient id="paint1_linear_267_81476" x1="253.5" y1="340" x2="253.5" y2="23" gradientUnits="userSpaceOnUse">
<stop stop-color="#1D4EFF"/>
<stop offset="1" stop-color="#24B6FF"/>
</linearGradient>
<linearGradient id="paint2_linear_267_81476" x1="256" y1="246" x2="256" y2="195" gradientUnits="userSpaceOnUse">
<stop stop-color="#1D4EFF"/>
<stop offset="1" stop-color="#24B6FF"/>
</linearGradient>
</defs>
</svg>
