<svg width="63" height="63" viewBox="0 0 63 63" fill="none" xmlns="http://www.w3.org/2000/svg">
<rect width="63" height="63" rx="31.5" fill="white"/>
<rect x="0.5" y="0.5" width="62" height="62" rx="31" stroke="#9F6EFD" stroke-opacity="0.1"/>
<path d="M32.2878 48.8642C33.2798 48.8642 34.1019 48.1442 34.2289 47.2163H30.3467C30.4737 48.1442 31.2958 48.8642 32.2878 48.8642Z" fill="url(#paint0_linear_266_54472)"/>
<path d="M27.3281 43.8094C27.3384 43.8078 27.3504 43.8061 27.3607 43.8061H30.9289C31.0714 43.8061 31.1864 43.9192 31.1864 44.0555C31.1864 44.1919 31.0714 44.3049 30.9289 44.3049H27.3607C27.3504 44.3049 27.3384 44.3033 27.3281 44.3016V45.6402C27.3281 46.2338 27.8276 46.7177 28.4403 46.7177H36.138C36.7524 46.7177 37.2519 46.2338 37.2519 45.6402V44.3016C37.2399 44.3033 37.2296 44.3049 37.2176 44.3049H33.6511C33.5087 44.3049 33.3937 44.1935 33.3937 44.0555C33.3937 43.9175 33.5087 43.8061 33.6511 43.8061H37.2176C37.2296 43.8061 37.2399 43.8078 37.2519 43.8094V41.5513H27.3283L27.3281 43.8094Z" fill="url(#paint1_linear_266_54472)"/>
<path d="M32.2879 24.7349C27.2127 24.7349 23.0835 28.7357 23.0835 33.6526C23.0835 36.6308 24.6024 39.3909 27.1494 41.0524H32.0304V36.7904L30.1733 35.071C30.0721 34.9745 30.0686 34.8166 30.1664 34.7168C30.2643 34.617 30.4273 34.6154 30.5303 34.7101L32.2895 36.3397L34.0487 34.7101C34.1517 34.6154 34.313 34.617 34.4125 34.7168C34.5104 34.8166 34.5069 34.9745 34.404 35.071L32.5452 36.792V41.0523H37.4297C39.975 39.3895 41.4922 36.629 41.4922 33.6526C41.4922 28.7355 37.3629 24.7349 32.2879 24.7349Z" fill="url(#paint2_linear_266_54472)"/>
<path d="M47.4556 31.4894C47.3286 31.4894 47.2222 31.4012 47.2016 31.2815C46.8412 29.1996 46.0363 27.2541 44.8091 25.4998C44.7405 25.4 44.7525 25.267 44.84 25.1839L47.0918 23.0022L43.5957 19.6117L41.3869 21.7534C41.2976 21.8399 41.1586 21.8515 41.0556 21.78C39.2775 20.5479 37.2884 19.7231 35.1465 19.329C35.0247 19.3074 34.9371 19.2043 34.9371 19.0846V16H29.9907V19.0214C29.9907 19.1445 29.8998 19.2475 29.7762 19.2675C27.6257 19.615 25.6159 20.3949 23.8051 21.5855C23.7022 21.652 23.5666 21.6404 23.479 21.5556L21.2273 19.3739L17.7312 22.7611L19.9435 24.9045C20.031 24.9893 20.0431 25.1257 19.971 25.2255C18.6975 26.9482 17.8462 28.8737 17.4412 30.9471C17.4171 31.0652 17.3107 31.15 17.1872 31.15H14V35.9424H17.1219C17.249 35.9424 17.3554 36.0305 17.376 36.1502C17.975 39.6372 19.8629 42.7884 22.6981 45.045C22.7633 45.0001 22.8319 44.9535 22.9092 44.9036V40.843C21.8159 39.4977 21.0367 37.9097 20.6557 36.2451C20.4652 35.4203 20.3691 34.569 20.3691 33.7159C20.3691 32.7415 20.4943 31.7737 20.7398 30.8392C21.0487 29.6752 21.5447 28.5644 22.2175 27.5368C23.2198 26.0037 24.6049 24.7017 26.2216 23.7721C27.2994 23.1569 28.4631 22.7112 29.6765 22.4485C31.5026 22.0527 33.4455 22.081 35.2578 22.53C36.4593 22.8293 37.6075 23.3082 38.6681 23.9584C40.2574 24.9378 41.5996 26.2797 42.5521 27.8411C43.1871 28.8737 43.6471 29.9995 43.9217 31.1851C44.1122 32.0115 44.21 32.8629 44.21 33.7159C44.21 34.6887 44.0847 35.6565 43.8376 36.5926C43.4257 38.1507 42.6928 39.5824 41.6613 40.8495V44.9035C41.7265 44.9467 41.7986 44.9933 41.8724 45.0448C44.6099 42.8748 46.477 39.8417 47.1361 36.483C47.1601 36.3666 47.2665 36.2801 47.3901 36.2801H50.5772V31.4894L47.4556 31.4894Z" fill="url(#paint3_linear_266_54472)"/>
<defs>
<linearGradient id="paint0_linear_266_54472" x1="32.2878" y1="48.8642" x2="32.2878" y2="47.2163" gradientUnits="userSpaceOnUse">
<stop stop-color="#1D4EFF"/>
<stop offset="1" stop-color="#24B6FF"/>
</linearGradient>
<linearGradient id="paint1_linear_266_54472" x1="32.29" y1="46.7177" x2="32.29" y2="41.5513" gradientUnits="userSpaceOnUse">
<stop stop-color="#1D4EFF"/>
<stop offset="1" stop-color="#24B6FF"/>
</linearGradient>
<linearGradient id="paint2_linear_266_54472" x1="32.2878" y1="41.0524" x2="32.2878" y2="24.7349" gradientUnits="userSpaceOnUse">
<stop stop-color="#1D4EFF"/>
<stop offset="1" stop-color="#24B6FF"/>
</linearGradient>
<linearGradient id="paint3_linear_266_54472" x1="32.2886" y1="45.045" x2="32.2886" y2="16" gradientUnits="userSpaceOnUse">
<stop stop-color="#1D4EFF"/>
<stop offset="1" stop-color="#24B6FF"/>
</linearGradient>
</defs>
</svg>
