<svg width="165" height="41" viewBox="0 0 165 41" fill="none" xmlns="http://www.w3.org/2000/svg">
<g clip-path="url(#clip0_1_184)">
<g clip-path="url(#clip1_1_184)">
<g clip-path="url(#clip2_1_184)">
<mask id="mask0_1_184" style="mask-type:luminance" maskUnits="userSpaceOnUse" x="0" y="0" width="165" height="41">
<path d="M164.012 0.77002H0.109955V40.77H164.012V0.77002Z" fill="white"/>
</mask>
<g mask="url(#mask0_1_184)">
<path d="M48.1841 29.0154H59.8446V25.5032H52.3285V12.2739H48.1841V29.0154Z" fill="#060B13"/>
<path d="M66.7561 26.6743C65.0937 26.6743 64.2273 25.2226 64.2273 23.0451C64.2273 20.8675 65.0937 19.3924 66.7561 19.3924C68.4185 19.3924 69.3083 20.8675 69.3083 23.0451C69.3083 25.2226 68.4185 26.6743 66.7561 26.6743ZM66.7795 29.3904C70.6429 29.3904 73.1717 26.6509 73.1717 23.0451C73.1717 19.4392 70.6429 16.6997 66.7795 16.6997C62.9395 16.6997 60.3639 19.4392 60.3639 23.0451C60.3639 26.6509 62.9395 29.3904 66.7795 29.3904Z" fill="#060B13"/>
<path d="M79.8578 33.1603C81.6374 33.1603 83.2061 32.7622 84.2598 31.8256C85.2198 30.9593 85.852 29.6481 85.852 27.8451V17.0276H82.1993V18.3154H82.1525C81.45 17.3085 80.373 16.6763 78.7808 16.6763C75.8071 16.6763 73.7466 19.1583 73.7466 22.6705C73.7466 26.3466 76.252 28.3603 78.9447 28.3603C80.3964 28.3603 81.3095 27.7749 82.012 26.9788H82.1056V28.1729C82.1056 29.6246 81.4266 30.4676 79.811 30.4676C78.5466 30.4676 77.9144 29.929 77.7037 29.2968H74.0042C74.3788 31.8022 76.5564 33.1603 79.8578 33.1603ZM79.8344 25.5271C78.4061 25.5271 77.4695 24.3563 77.4695 22.5534C77.4695 20.7271 78.4061 19.5563 79.8344 19.5563C81.4266 19.5563 82.2695 20.9144 82.2695 22.53C82.2695 24.2159 81.4969 25.5271 79.8344 25.5271Z" fill="#060B13"/>
<path d="M93.3616 26.6743C91.6991 26.6743 90.8328 25.2226 90.8328 23.0451C90.8328 20.8675 91.6991 19.3924 93.3616 19.3924C95.024 19.3924 95.9138 20.8675 95.9138 23.0451C95.9138 25.2226 95.024 26.6743 93.3616 26.6743ZM93.385 29.3904C97.2484 29.3904 99.7767 26.6509 99.7767 23.0451C99.7767 19.4392 97.2484 16.6997 93.385 16.6997C89.545 16.6997 86.9694 19.4392 86.9694 23.0451C86.9694 26.6509 89.545 29.3904 93.385 29.3904Z" fill="#060B13"/>
<path d="M100.891 29.0154H104.708V17.0271H100.891V29.0154ZM100.891 15.3646H104.708V12.2739H100.891V15.3646Z" fill="#060B13"/>
<path d="M106.364 32.9729H110.18V27.7749H110.227C110.977 28.7817 112.077 29.3905 113.622 29.3905C116.76 29.3905 118.844 26.9085 118.844 23.0217C118.844 19.4159 116.9 16.6763 113.716 16.6763C112.077 16.6763 110.906 17.4022 110.087 18.4793H110.017V17.0276H106.364V32.9729ZM112.639 26.4403C111 26.4403 110.063 25.1056 110.063 23.1622C110.063 21.2188 110.906 19.7437 112.569 19.7437C114.208 19.7437 114.98 21.1017 114.98 23.1622C114.98 25.1993 114.091 26.4403 112.639 26.4403Z" fill="#060B13"/>
<path d="M125.057 29.3905C128.195 29.3905 130.513 28.0324 130.513 25.41C130.513 22.3427 128.031 21.8042 125.924 21.4529C124.402 21.172 123.044 21.0549 123.044 20.212C123.044 19.4627 123.77 19.1115 124.706 19.1115C125.76 19.1115 126.486 19.4393 126.626 20.5164H130.138C129.951 18.1515 128.125 16.6763 124.73 16.6763C121.896 16.6763 119.555 17.9876 119.555 20.5164C119.555 23.3261 121.779 23.8881 123.863 24.2393C125.455 24.5203 126.907 24.6373 126.907 25.7144C126.907 26.4871 126.181 26.9085 125.034 26.9085C123.77 26.9085 122.974 26.3232 122.833 25.129H119.227C119.344 27.7749 121.545 29.3905 125.057 29.3905Z" fill="#060B13"/>
<path d="M135.7 29.3673C137.362 29.3673 138.416 28.7117 139.282 27.541H139.352V29.0161H143.005V17.0278H139.188V23.7244C139.188 25.1527 138.392 26.1361 137.081 26.1361C135.864 26.1361 135.278 25.4103 135.278 24.099V17.0278H131.485V24.8951C131.485 27.5644 132.937 29.3673 135.7 29.3673Z" fill="#060B13"/>
<path d="M144.665 29.0159H148.481V22.2959C148.481 20.8676 149.184 19.8607 150.378 19.8607C151.525 19.8607 152.064 20.61 152.064 21.8978V29.0159H155.88V22.2959C155.88 20.8676 156.559 19.8607 157.777 19.8607C158.924 19.8607 159.463 20.61 159.463 21.8978V29.0159H163.279V21.2188C163.279 18.5261 161.921 16.6763 159.205 16.6763C157.66 16.6763 156.372 17.332 155.435 18.7837H155.389C154.78 17.4959 153.586 16.6763 152.017 16.6763C150.284 16.6763 149.137 17.4959 148.388 18.7368H148.317V17.0276H144.665V29.0159Z" fill="#060B13"/>
<path d="M24.8991 2.69857L21.062 1.67041L17.8285 13.7383L14.9091 2.84333L11.072 3.87148L14.2261 15.6427L6.36984 7.78649L3.56087 10.5954L12.1782 19.2128L1.4467 16.3373L0.418549 20.1744L12.1441 23.3162C12.0098 22.7372 11.9388 22.1339 11.9388 21.514C11.9388 17.1261 15.4959 13.569 19.8838 13.569C24.2717 13.569 27.8288 17.1261 27.8288 21.514C27.8288 22.1299 27.7586 22.7295 27.626 23.3051L38.2823 26.1604L39.3104 22.3233L27.5383 19.169L38.2705 16.2933L37.2423 12.4562L25.4707 15.6104L33.3269 7.75423L30.5179 4.94527L22.0202 13.443L24.8991 2.69857Z" fill="#060B13"/>
<path d="M27.6176 23.3501C27.2887 24.7409 26.5941 25.9904 25.6411 26.9914L33.3612 34.7115L36.1701 31.9026L27.6176 23.3501Z" fill="#060B13"/>
<path d="M25.5625 27.0708C24.598 28.0559 23.3792 28.791 22.0123 29.1698L24.8215 39.6537L28.6586 38.6255L25.5625 27.0708Z" fill="#060B13"/>
<path d="M21.8684 29.2085C21.2342 29.3716 20.5696 29.4582 19.8846 29.4582C19.1507 29.4582 18.4401 29.3587 17.7655 29.1724L14.9538 39.6659L18.7908 40.694L21.8684 29.2085Z" fill="#060B13"/>
<path d="M17.6299 29.1344C16.2839 28.7368 15.0868 27.9923 14.142 27.0044L6.40292 34.7434L9.21188 37.5524L17.6299 29.1344Z" fill="#060B13"/>
<path d="M14.0796 26.9366C13.151 25.9425 12.4746 24.7097 12.1526 23.3403L1.46152 26.205L2.48967 30.0421L14.0796 26.9366Z" fill="#060B13"/>
</g>
</g>
</g>
</g>
<defs>
<clipPath id="clip0_1_184">
<rect width="164" height="40" fill="white" transform="translate(0.109955 0.77002)"/>
</clipPath>
<clipPath id="clip1_1_184">
<rect width="164" height="40" fill="white" transform="translate(0.109955 0.77002)"/>
</clipPath>
<clipPath id="clip2_1_184">
<rect width="164" height="40" fill="white" transform="translate(0.109955 0.77002)"/>
</clipPath>
</defs>
</svg>
