<svg width="55" height="55" viewBox="0 0 55 55" fill="none" xmlns="http://www.w3.org/2000/svg">
<g filter="url(#filter0_f_1_8664)">
<circle cx="27.5" cy="27.5" r="7.5" fill="url(#paint0_linear_1_8664)"/>
</g>
<circle cx="27.5798" cy="19.5798" r="15.8298" fill="white" stroke="#F0F0F0" stroke-width="0.5"/>
<path d="M30.2412 23.8591L31.7643 25.3871C31.7893 25.4116 31.8026 25.4456 31.8015 25.4807C31.7959 25.7146 31.8842 25.9408 32.0469 26.1085C32.2096 26.2762 32.4328 26.3708 32.6666 26.3708C32.8976 26.372 33.1197 26.2806 33.2829 26.1163C33.4462 25.9525 33.5373 25.7297 33.5361 25.4974C33.5345 25.2656 33.4406 25.0439 33.2752 24.8818C33.1097 24.7197 32.887 24.6312 32.6555 24.635C32.6166 24.6401 32.5777 24.6267 32.55 24.5988L31.0269 23.0702C31.0069 23.0507 30.9752 23.0507 30.9558 23.0702L30.24 23.7883C30.2212 23.8078 30.2212 23.8395 30.2412 23.8596L30.2412 23.8591ZM30.9008 22.7661C31.3733 22.3043 31.8476 21.8542 32.3406 21.4035C32.3517 21.3935 32.3579 21.379 32.3567 21.364C32.3562 21.3489 32.349 21.335 32.3373 21.3261C31.9386 21.0531 31.4461 20.9545 30.9736 21.0531C29.6659 21.2671 28.441 22.502 28.23 23.8056C28.1317 24.2791 28.23 24.7732 28.5026 25.1726C28.5115 25.1849 28.5254 25.1921 28.5398 25.1932C28.5548 25.1938 28.5692 25.1877 28.5792 25.1765C29.0245 24.6863 29.4754 24.2067 29.9318 23.7382L30.9002 22.7667V22.765L30.9008 22.7661ZM22.9044 15.892C22.8594 15.8408 22.8616 15.7639 22.9094 15.716C22.9577 15.6681 23.0343 15.6653 23.0849 15.7104L25.8361 18.4706C25.8806 18.5213 25.8783 18.5981 25.8306 18.646C25.7828 18.694 25.7057 18.6967 25.6551 18.6516L22.9044 15.892ZM22.9821 18.3018C23.0921 19.6215 23.3186 20.6481 23.9161 21.6157C24.5841 22.6986 25.7235 23.7197 27.6869 25.007H27.6874C27.7474 25.0549 27.8329 25.0549 27.8934 25.007L28.0322 24.9185C28.0522 24.9062 28.0606 24.8817 28.0528 24.8594C27.8901 24.3168 27.9151 23.7347 28.125 23.2089C28.1316 23.1905 28.1272 23.1693 28.1127 23.1554L23.0665 18.2623C23.0515 18.2478 23.0293 18.2439 23.0109 18.2528C22.9921 18.2617 22.9805 18.2812 22.9821 18.3018ZM28.1278 25.1615H28.1283C28.0328 25.2417 27.9145 25.2902 27.7907 25.2985C27.7041 25.2974 27.6203 25.2707 27.5492 25.2216C25.5518 23.9131 24.3902 22.8681 23.6995 21.75C23.016 20.6431 22.7994 19.4761 22.6989 17.923C22.6984 17.9108 22.6928 17.8985 22.6834 17.8907L22.1609 17.3838C22.1459 17.3687 22.1236 17.3648 22.1048 17.3737C22.0859 17.3827 22.0742 17.4022 22.0753 17.4228C22.1836 19.3391 22.4096 20.7824 23.127 22.0859C23.9016 23.4897 25.2548 24.7448 27.6563 26.2717H27.6568C27.7496 26.3391 27.8773 26.3302 27.9606 26.2511C29.0056 25.596 29.8418 25.0718 30.5143 24.5771H30.5137C30.5254 24.5688 30.5326 24.5554 30.5337 24.5409C30.5348 24.5265 30.5298 24.512 30.5193 24.5019L30.0634 24.0435C30.044 24.024 30.0123 24.024 29.9923 24.0435C29.5292 24.522 29.0761 25.0066 28.6336 25.4964C28.6103 25.5226 28.577 25.5382 28.542 25.5387C28.507 25.5398 28.4737 25.5265 28.4487 25.5014C28.3521 25.4045 28.2682 25.2953 28.1988 25.1772C28.1922 25.1655 28.1805 25.1571 28.1672 25.1538C28.1538 25.151 28.14 25.1532 28.1289 25.161L28.1278 25.1615ZM32.1396 20.8599C32.2929 20.2644 32.3984 19.6577 32.4561 19.0449C32.5483 18.2138 32.6149 17.2033 32.686 15.9482C32.7016 15.8301 32.6283 15.7181 32.5133 15.6858L27.8169 14.692H27.7391L24.9783 15.2758C24.9606 15.2792 24.9461 15.2926 24.9406 15.3098C24.9356 15.3276 24.94 15.3466 24.9528 15.3594L30.3262 20.9356C30.3395 20.9501 30.3606 20.9546 30.3789 20.9473C30.9197 20.729 31.52 20.71 32.0736 20.8933C32.0869 20.8983 32.1014 20.8977 32.1141 20.8911C32.1264 20.8849 32.1357 20.8732 32.1396 20.8599ZM24.708 15.072L27.6875 14.4425V14.442C27.7469 14.4286 27.8091 14.4286 27.8685 14.442L32.565 15.4347C32.8038 15.492 32.9642 15.7171 32.9403 15.9627C32.8693 17.2245 32.8015 18.2395 32.7094 19.0744C32.4251 21.6508 32.1219 20.73 32.6638 21.2737L32.6644 21.2732C32.6899 21.2993 32.7032 21.335 32.701 21.3718C32.6988 21.4085 32.6805 21.4425 32.6516 21.4648C32.6511 21.4659 32.6499 21.4665 32.6488 21.467C32.1646 21.9082 31.6849 22.36 31.2113 22.8218H31.2107C31.2013 22.8313 31.1957 22.8441 31.1957 22.8574C31.1957 22.8708 31.2007 22.8836 31.2102 22.8931L31.7388 23.4234C31.7482 23.4329 31.7621 23.4385 31.776 23.4379C31.7899 23.4373 31.8026 23.4307 31.8115 23.4206C32.4279 22.7076 32.7955 21.8887 33.0414 20.6804C33.3063 19.3764 33.4312 17.6194 33.5701 15.062C33.5873 14.9149 33.4929 14.7785 33.3502 14.7428L27.8291 13.6109H27.727L24.0922 14.3562C24.0744 14.3601 24.06 14.3729 24.055 14.3908C24.0495 14.408 24.0539 14.427 24.0667 14.4398L24.6619 15.057V15.0575C24.6736 15.0698 24.6907 15.0754 24.708 15.072ZM29.0118 21.8374C29.31 21.5355 29.6559 21.2854 30.0351 21.096C30.0496 21.0888 30.0596 21.0754 30.0624 21.0598C30.0651 21.0442 30.0607 21.028 30.0496 21.0163L23.2742 13.9851C23.267 13.9773 23.257 13.9723 23.2464 13.9712L20.846 13.5879C20.8304 13.5857 20.8143 13.5907 20.8032 13.6018C20.7921 13.613 20.7866 13.6291 20.7893 13.6453L21.1708 16.0535C21.1719 16.0641 21.1769 16.0741 21.1847 16.0814L28.1928 22.8774C28.2039 22.8891 28.22 22.8941 28.2361 22.8914C28.2516 22.8891 28.2649 22.8786 28.2722 22.8641C28.461 22.4841 28.7108 22.1371 29.0112 21.8374L29.0118 21.8374Z" fill="black"/>
<defs>
<filter id="filter0_f_1_8664" x="0" y="0" width="55" height="55" filterUnits="userSpaceOnUse" color-interpolation-filters="sRGB">
<feFlood flood-opacity="0" result="BackgroundImageFix"/>
<feBlend mode="normal" in="SourceGraphic" in2="BackgroundImageFix" result="shape"/>
<feGaussianBlur stdDeviation="10" result="effect1_foregroundBlur_1_8664"/>
</filter>
<linearGradient id="paint0_linear_1_8664" x1="27.5" y1="35" x2="27.5" y2="20" gradientUnits="userSpaceOnUse">
<stop stop-color="#1D4EFF"/>
<stop offset="1" stop-color="#24B6FF"/>
</linearGradient>
</defs>
</svg>
