<svg width="44" height="44" viewBox="0 0 44 44" fill="none" xmlns="http://www.w3.org/2000/svg">
<rect width="44" height="44" rx="22" fill="white"/>
<rect x="0.5" y="0.5" width="43" height="43" rx="21.5" stroke="#9F6EFD" stroke-opacity="0.1"/>
<path fill-rule="evenodd" clip-rule="evenodd" d="M18.2887 12C17.0449 12 15.8291 12.3688 14.7949 13.0598C13.7607 13.7508 12.9547 14.733 12.4787 15.8821C12.0027 17.0312 11.8782 18.2957 12.1208 19.5155C12.3635 20.7354 12.9624 21.856 13.8419 22.7355C14.7214 23.6149 15.8419 24.2139 17.0618 24.4565C18.2817 24.6992 19.5462 24.5746 20.6953 24.0987C21.8444 23.6227 22.8265 22.8167 23.5175 21.7825C24.2085 20.7483 24.5774 19.5325 24.5774 18.2887C24.5774 17.4628 24.4147 16.6451 24.0987 15.8821C23.7826 15.1191 23.3194 14.4259 22.7355 13.8419C22.1515 13.258 21.4582 12.7947 20.6953 12.4787C19.9323 12.1627 19.1145 12 18.2887 12ZM20.6355 17.6837L18.4231 19.896C18.3589 19.9612 18.2823 20.013 18.1978 20.0484C18.1134 20.0837 18.0227 20.1019 17.9312 20.1019C17.8396 20.1019 17.749 20.0837 17.6645 20.0484C17.58 20.013 17.5035 19.9612 17.4392 19.896L15.9663 18.4231C15.9009 18.3584 15.849 18.2813 15.8136 18.1963C15.7781 18.1113 15.7599 18.0202 15.7599 17.9281C15.7599 17.836 15.7781 17.7449 15.8136 17.6599C15.849 17.575 15.9009 17.4979 15.9663 17.4331C16.0306 17.3679 16.1072 17.3161 16.1916 17.2807C16.2761 17.2453 16.3667 17.2271 16.4583 17.2271C16.5499 17.2271 16.6405 17.2453 16.725 17.2807C16.8094 17.3161 16.886 17.3679 16.9503 17.4331L17.9342 18.417L19.6515 16.6997C19.7842 16.5803 19.9576 16.5163 20.136 16.521C20.3144 16.5256 20.4842 16.5986 20.6104 16.7248C20.7366 16.851 20.8096 17.0208 20.8142 17.1992C20.8189 17.3776 20.7549 17.551 20.6355 17.6837Z" fill="url(#paint0_linear_85_8590)"/>
<path fill-rule="evenodd" clip-rule="evenodd" d="M25.9402 19.0222C25.7908 20.5596 25.1817 22.0163 24.1924 23.2025L25.2619 24.272L26.3192 23.2025C26.4526 23.0729 26.6313 23.0004 26.8172 23.0004C27.0032 23.0004 27.1819 23.0729 27.3153 23.2025C27.4441 23.3338 27.5162 23.5105 27.5162 23.6944C27.5162 23.8784 27.4441 24.055 27.3153 24.1864L26.2458 25.2559L27.3153 26.3254C27.3897 26.3885 27.4501 26.4663 27.4928 26.554C27.5354 26.6417 27.5593 26.7373 27.563 26.8348C27.5667 26.9322 27.5501 27.0293 27.5142 27.12C27.4783 27.2107 27.424 27.2929 27.3546 27.3614C27.2852 27.4299 27.2024 27.4833 27.1113 27.518C27.0202 27.5528 26.9228 27.5682 26.8254 27.5633C26.728 27.5584 26.6327 27.5333 26.5456 27.4896C26.4584 27.4459 26.3813 27.3845 26.3192 27.3093L25.2619 26.2398L24.229 27.3216C24.1643 27.387 24.0872 27.4389 24.0022 27.4743C23.9172 27.5098 23.8261 27.528 23.734 27.528C23.642 27.528 23.5508 27.5098 23.4658 27.4743C23.3809 27.4389 23.3038 27.387 23.239 27.3216C23.1738 27.2573 23.122 27.1807 23.0866 27.0963C23.0513 27.0118 23.033 26.9212 23.033 26.8296C23.033 26.738 23.0513 26.6474 23.0866 26.5629C23.122 26.4785 23.1738 26.4019 23.239 26.3376L24.3024 25.2681L23.2084 24.2231C22.0209 25.2092 20.5646 25.816 19.0282 25.9648C19.1594 27.142 19.6206 28.2581 20.3587 29.1844C21.0969 30.1107 22.0818 30.8095 23.2 31.2002C24.3182 31.5908 25.524 31.6575 26.6784 31.3923C27.8328 31.1272 28.8887 30.5412 29.7244 29.7018C30.5601 28.8624 31.1414 27.8039 31.4015 26.6484C31.6615 25.4928 31.5895 24.2873 31.194 23.1709C30.7984 22.0544 30.0952 21.0726 29.1657 20.3385C28.2361 19.6045 27.118 19.1482 25.9402 19.0222Z" fill="url(#paint1_linear_85_8590)"/>
<defs>
<linearGradient id="paint0_linear_85_8590" x1="18.2887" y1="24.5774" x2="18.2887" y2="12" gradientUnits="userSpaceOnUse">
<stop stop-color="#1D4EFF"/>
<stop offset="1" stop-color="#24B6FF"/>
</linearGradient>
<linearGradient id="paint1_linear_85_8590" x1="25.2915" y1="31.5517" x2="25.2915" y2="19.0222" gradientUnits="userSpaceOnUse">
<stop stop-color="#1D4EFF"/>
<stop offset="1" stop-color="#24B6FF"/>
</linearGradient>
</defs>
</svg>
