<svg width="55" height="55" viewBox="0 0 55 55" fill="none" xmlns="http://www.w3.org/2000/svg">
<g filter="url(#filter0_f_1_8700)">
<circle cx="27.5" cy="27.5" r="7.5" fill="url(#paint0_linear_1_8700)"/>
</g>
<circle cx="27.5798" cy="19.5798" r="15.8298" fill="white" stroke="#F0F0F0" stroke-width="0.5"/>
<path d="M27.6362 12.183V16.5732C27.6362 16.6739 27.5546 16.7561 27.4544 16.7561C25.9509 16.7561 24.7272 17.9873 24.7272 19.5C24.7272 21.0127 25.9509 22.2439 27.4544 22.2439C27.5546 22.2439 27.6362 22.3261 27.6362 22.4268V26.817C27.6362 26.9178 27.5546 26.9999 27.4544 26.9999H26.7087C26.4218 26.9999 26.1739 26.7856 26.132 26.5026L25.9814 25.4894C25.9686 25.405 25.9033 25.3336 25.8159 25.3086C25.365 25.1785 24.9324 24.9978 24.5326 24.7727C24.4523 24.7269 24.3579 24.7305 24.289 24.7834L23.4708 25.3908C23.24 25.563 22.9147 25.5372 22.7123 25.3343L21.6562 24.2718C21.451 24.0653 21.4268 23.7451 21.6001 23.5086L22.2038 22.6876C22.2563 22.6183 22.2599 22.5232 22.2144 22.4403C21.9893 22.0359 21.8089 21.6008 21.6818 21.1492C21.6562 21.0598 21.5852 20.9934 21.5021 20.9805L20.4964 20.829C20.2131 20.7876 20 20.5375 20 20.2502V18.7504C20 18.4631 20.2131 18.2123 20.4943 18.1702L21.5 18.0187C21.5838 18.0058 21.6548 17.9401 21.6797 17.8522C21.8089 17.4006 21.9886 16.9647 22.2144 16.5589C22.2599 16.4767 22.2542 16.3831 22.2038 16.3138L21.6001 15.4928C21.4275 15.2569 21.451 14.9368 21.6562 14.7296L22.7123 13.6671C22.914 13.4641 23.2414 13.4406 23.4708 13.6106L24.289 14.218C24.3579 14.2709 24.4523 14.2744 24.5347 14.2287C24.9346 14.0036 25.3657 13.8228 25.8167 13.6928C25.9054 13.6671 25.9715 13.5978 25.9843 13.512L26.1348 12.4988C26.1746 12.2144 26.4232 12 26.7087 12H27.4544C27.5546 12 27.6362 12.0822 27.6362 12.183ZM34.6674 22.1382C34.7476 22.3468 34.7874 22.5662 34.7874 22.7927C34.7874 23.8502 33.8911 24.7191 32.7584 24.7992C32.7655 24.8614 32.7676 24.9257 32.7676 24.9878C32.7676 26.0982 31.7804 27 30.566 27C29.3508 27 28.3637 26.0982 28.3637 24.9878V23.1914C28.8565 23.2443 29.5021 23.5137 29.6456 24.1318C29.684 24.3004 29.8345 24.4155 30 24.4155C30.027 24.4155 30.0547 24.4119 30.0838 24.4062C30.2798 24.3604 30.3999 24.1632 30.3544 23.9674C30.1378 23.0385 29.2216 22.5241 28.3637 22.4583V16.6226C28.5327 16.4583 28.7671 16.3482 29.0107 16.3297C29.3885 16.3039 29.7763 16.494 29.9596 16.7977C30.0633 16.9699 30.287 17.0242 30.4596 16.9206C30.6307 16.8163 30.6847 16.5912 30.5817 16.4175C30.4688 16.2311 30.3147 16.0717 30.1364 15.9416C30.5931 15.6215 30.8417 15.1535 30.8417 14.5826C30.8417 14.3811 30.6783 14.2167 30.478 14.2167C30.2777 14.2167 30.1144 14.3811 30.1144 14.5826C30.1144 15.0963 29.7778 15.4386 29.118 15.5979C29.0654 15.5958 29.0129 15.5944 28.9596 15.5979C28.7522 15.6122 28.5505 15.6694 28.3651 15.7552L28.3659 13.6466C28.3659 12.7391 29.1734 12.0002 30.1641 12.0002C31.1094 12.0002 31.8878 12.6734 31.9567 13.5237C33.1385 13.7666 33.9823 14.7198 33.9823 15.8417C33.9823 16.0339 33.9589 16.2204 33.9099 16.4012C35.184 16.9885 36 18.1883 36 19.5001C36 20.5205 35.5163 21.4759 34.6676 22.1383L34.6674 22.1382ZM33.9089 18.4025C33.9089 18.2009 33.7455 18.0366 33.5452 18.0366C33.345 18.0366 33.1816 18.2009 33.1816 18.4025C33.1816 18.7683 32.8343 19.0663 32.4089 19.0663H31.9544C30.8762 19.0663 29.9998 19.8751 29.9998 20.8719C29.9998 21.0735 30.1632 21.2378 30.3635 21.2378C30.5638 21.2378 30.7271 21.0734 30.7271 20.8719C30.7271 20.2796 31.2782 19.7965 31.9544 19.7965H32.4089C33.2363 19.798 33.9089 19.1706 33.9089 18.4025Z" fill="black"/>
<defs>
<filter id="filter0_f_1_8700" x="0" y="0" width="55" height="55" filterUnits="userSpaceOnUse" color-interpolation-filters="sRGB">
<feFlood flood-opacity="0" result="BackgroundImageFix"/>
<feBlend mode="normal" in="SourceGraphic" in2="BackgroundImageFix" result="shape"/>
<feGaussianBlur stdDeviation="10" result="effect1_foregroundBlur_1_8700"/>
</filter>
<linearGradient id="paint0_linear_1_8700" x1="27.5" y1="35" x2="27.5" y2="20" gradientUnits="userSpaceOnUse">
<stop stop-color="#1D4EFF"/>
<stop offset="1" stop-color="#24B6FF"/>
</linearGradient>
</defs>
</svg>
