<svg width="63" height="63" viewBox="0 0 63 63" fill="none" xmlns="http://www.w3.org/2000/svg">
<rect width="63" height="63" rx="31.5" fill="white"/>
<rect x="0.5" y="0.5" width="62" height="62" rx="31" stroke="#9F6EFD" stroke-opacity="0.1"/>
<path fill-rule="evenodd" clip-rule="evenodd" d="M31.9082 15C40.9509 15 48.2945 22.2742 48.4069 31.2902C48.5197 40.3397 41.2367 47.8481 32.1875 47.9977C24.6061 48.1231 18.1701 43.1341 16.1035 36.2544C15.6391 34.7086 16.7958 33.1516 18.4098 33.1515L31.4933 33.1503C32.3513 33.1502 32.781 34.1876 32.1742 34.7943L29.5629 37.4047C28.9829 37.9847 28.9249 38.8888 29.3889 39.5337L29.5629 39.7382C30.1429 40.3181 31.047 40.3761 31.6918 39.9122L31.8964 39.7382L38.9678 32.6668C39.5477 32.0868 39.6057 31.1826 39.1417 30.5378L38.9678 30.3333L31.9331 23.2985C31.2871 22.6526 30.2268 22.6106 29.5745 23.2503C28.9838 23.8297 28.9219 24.7417 29.3889 25.3908L29.5629 25.5952L32.1721 28.2036C32.7789 28.8103 32.3493 29.8476 31.4913 29.8478L18.4103 29.8481C16.7941 29.8482 15.6396 28.2884 16.1049 26.7407C18.0959 20.121 24.1321 15.2532 31.341 15.0096L31.9082 15Z" fill="url(#paint0_linear_266_54465)"/>
<defs>
<linearGradient id="paint0_linear_266_54465" x1="32.2041" y1="48" x2="32.2041" y2="15" gradientUnits="userSpaceOnUse">
<stop stop-color="#1D4EFF"/>
<stop offset="1" stop-color="#24B6FF"/>
</linearGradient>
</defs>
</svg>
