<svg width="74" height="82" viewBox="0 0 74 82" fill="none" xmlns="http://www.w3.org/2000/svg">
<path d="M67.3757 47.4384C67.0838 47.5878 66.7885 47.7233 66.4862 47.8484C66.4063 47.8831 66.3264 47.9075 66.2465 47.9387C66.0206 48.0291 65.7948 48.1124 65.5654 48.1889C65.4508 48.2271 65.3361 48.2619 65.218 48.2966C65.0165 48.3557 64.8184 48.4147 64.6134 48.4669C64.4883 48.4981 64.3632 48.5259 64.2381 48.5537C64.0366 48.5989 63.8351 48.6371 63.6301 48.6753C63.505 48.6962 63.3834 48.7205 63.2583 48.7379C63.0359 48.7692 62.8136 48.7935 62.5912 48.8178C62.4835 48.8282 62.3792 48.8421 62.2715 48.8491C61.9414 48.8734 61.6079 48.8873 61.2708 48.8873C60.9338 48.8873 60.6037 48.8734 60.2702 48.8491C60.1624 48.8421 60.0582 48.8282 59.9505 48.8178C59.7246 48.7969 59.5023 48.7726 59.2799 48.7379C59.1548 48.7205 59.0332 48.6962 58.9116 48.6753C58.7066 48.6406 58.5016 48.5989 58.3001 48.5537C58.175 48.5259 58.0499 48.4981 57.9283 48.4669C57.7233 48.4147 57.5218 48.3557 57.3237 48.2966C57.209 48.2619 57.0944 48.2271 56.9797 48.1924C56.7469 48.1159 56.5176 48.0291 56.2917 47.9387C56.2153 47.9074 56.1354 47.8831 56.059 47.8484C55.7567 47.7233 55.4613 47.5843 55.166 47.4349C55.0965 47.4002 55.027 47.3585 54.9575 47.3202C54.7768 47.2229 54.5962 47.1291 54.4189 47.0249V61.1456L60.8921 56.924C60.9477 56.8892 61.0067 56.8614 61.0693 56.8441C61.0936 56.8371 61.1179 56.8337 61.1457 56.8302C61.1805 56.8232 61.2187 56.8163 61.2569 56.8163C61.2604 56.8163 61.2673 56.8128 61.2708 56.8128C61.2951 56.8128 61.316 56.8198 61.3403 56.8232C61.4306 56.8371 61.5175 56.8614 61.6044 56.8962C61.6113 56.8997 61.6183 56.9066 61.6287 56.9136C61.6356 56.917 61.646 56.9205 61.653 56.924L68.1261 61.1422V47.0285C67.9524 47.1328 67.7717 47.2231 67.5945 47.3169C67.5215 47.3586 67.4487 47.4002 67.3757 47.4384Z" fill="url(#paint0_linear_294_109743)"/>
<path d="M54.0753 6.50449L48.5542 0.983398V12.022H59.5928L54.0753 6.50449Z" fill="url(#paint1_linear_294_109743)"/>
<path d="M61.2715 23.1617C55.9971 23.1582 51.3234 26.5563 49.6974 31.5736C48.0678 36.5909 49.8607 42.0839 54.131 45.1802C55.6772 46.3094 57.4666 47.053 59.3568 47.3483C59.9892 47.4491 60.632 47.4977 61.2712 47.4977C63.8389 47.5047 66.3406 46.6951 68.4115 45.1802C72.6818 42.0878 74.4746 36.591 72.8485 31.5736C71.219 26.5563 66.5463 23.1582 61.2715 23.1617ZM67.2096 32.1402L61.4904 39.3778V39.3812C61.3584 39.548 61.1568 39.6453 60.9449 39.6453C60.8198 39.6453 60.6982 39.6106 60.5905 39.548L57.0429 37.4493C56.7128 37.2513 56.6051 36.8274 56.7997 36.4973C56.9943 36.1672 57.4216 36.056 57.7517 36.2506L60.7746 38.04L66.1185 31.2784C66.2297 31.1325 66.3999 31.0387 66.5806 31.0178C66.7648 30.997 66.9489 31.0491 67.0948 31.1638C67.2408 31.2784 67.3311 31.4452 67.3554 31.6294C67.3763 31.8135 67.3242 31.9977 67.2096 32.1402Z" fill="url(#paint2_linear_294_109743)"/>
<path d="M47.8488 33.5195C47.887 33.2241 47.9253 32.9288 47.9843 32.6404C48.0191 32.4632 48.0712 32.2929 48.1129 32.1192C48.1754 31.8655 48.231 31.6084 48.3075 31.3617C48.363 31.1811 48.4325 31.0039 48.4986 30.8267C48.5819 30.5939 48.6584 30.3611 48.7522 30.1352C48.8286 29.9545 48.9155 29.7808 48.9989 29.6071C49.0997 29.3916 49.1969 29.1762 49.3081 28.9678C49.402 28.794 49.5062 28.6272 49.607 28.457C49.7251 28.2589 49.8398 28.0574 49.9683 27.8628C50.0795 27.696 50.2011 27.5362 50.3192 27.3764C50.4547 27.1922 50.5868 27.0081 50.7293 26.8309C50.8578 26.6745 50.9933 26.5251 51.1253 26.3757C51.2748 26.2054 51.4242 26.0352 51.5805 25.8754C51.723 25.7294 51.8724 25.5939 52.0183 25.4549C52.1816 25.302 52.3449 25.1457 52.5187 25.0032C52.675 24.8712 52.8349 24.7496 52.9982 24.6245C53.1754 24.4855 53.3526 24.35 53.5367 24.2215C53.7035 24.1033 53.8772 23.9956 54.0509 23.8844C54.242 23.7628 54.4297 23.6447 54.6243 23.5335C54.8049 23.4327 54.9856 23.3389 55.1698 23.2451C55.3713 23.1443 55.5728 23.0436 55.7778 22.9498C55.9654 22.8664 56.16 22.7899 56.3546 22.7135C56.5665 22.6301 56.7785 22.5502 56.9939 22.4772C57.192 22.4112 57.3935 22.3521 57.595 22.2966C57.8139 22.234 58.0363 22.1749 58.2621 22.1263C58.4671 22.0777 58.6756 22.0394 58.8876 22.0012C59.1169 21.9595 59.3462 21.9248 59.579 21.897C59.791 21.8692 60.0064 21.8483 60.2218 21.8344C60.3399 21.824 60.4581 21.8066 60.5797 21.7997L60.5762 13.412H47.8591C47.675 13.412 47.4978 13.3391 47.3657 13.2105C47.2372 13.0785 47.1642 12.9013 47.1642 12.7171V0H6.83452C3.06111 0.00347437 0.00346903 3.06111 0 6.83452V75.1655C0.00347436 78.9389 3.06111 81.9965 6.83452 82H53.7411C57.5145 81.9965 60.5722 78.9389 60.5756 75.1655V58.7899L54.1025 63.008C53.8871 63.147 53.6161 63.1575 53.3902 63.0358C53.1679 62.9142 53.0289 62.6814 53.0289 62.4278V46.0905C52.9698 46.0453 52.9107 45.9932 52.8517 45.9445C52.7509 45.8646 52.6467 45.7812 52.5494 45.6978C52.4451 45.611 52.3444 45.5206 52.2436 45.4303C52.1463 45.3434 52.0525 45.2566 51.9587 45.1697C51.8614 45.0759 51.7641 44.9786 51.6668 44.8848C51.5765 44.7944 51.4862 44.7041 51.3993 44.6103C51.3055 44.5095 51.2151 44.4088 51.1248 44.308C51.0414 44.2142 50.958 44.1169 50.8781 44.0231C50.7912 43.9188 50.7079 43.8111 50.621 43.7034C50.5446 43.6061 50.4646 43.5054 50.3917 43.4046C50.3118 43.2934 50.2318 43.1822 50.1554 43.071C50.0859 42.9703 50.013 42.866 49.9435 42.7618C49.867 42.6471 49.7975 42.529 49.7246 42.4109C49.6585 42.3066 49.596 42.2024 49.5335 42.0947C49.464 41.9731 49.398 41.8515 49.3319 41.7298C49.2729 41.6221 49.2173 41.5144 49.1617 41.4067C49.0991 41.2816 49.0401 41.1531 48.981 41.028C48.9289 40.9168 48.8768 40.8091 48.8281 40.6979C48.7725 40.5693 48.7204 40.4373 48.6683 40.3053C48.6231 40.1941 48.578 40.0829 48.5363 39.9717C48.4876 39.8362 48.4424 39.7007 48.3973 39.5652C48.3591 39.454 48.3208 39.3428 48.2861 39.2281C48.2444 39.0892 48.2062 38.9467 48.168 38.8042C48.1367 38.6931 48.1054 38.5819 48.0776 38.4707C48.0429 38.3213 48.0151 38.1719 47.9838 38.0259C47.963 37.9182 47.9352 37.8105 47.9178 37.7028C47.89 37.5464 47.8691 37.3901 47.8483 37.2337C47.8344 37.1295 47.8135 37.0253 47.8031 36.921C47.7823 36.7473 47.7684 36.5701 47.7545 36.3929C47.7475 36.306 47.7371 36.2192 47.7302 36.1288C47.7128 35.8648 47.7058 35.5972 47.7058 35.3331L47.7128 35.3297C47.7128 34.8745 47.7371 34.4194 47.7823 33.9677C47.7962 33.8148 47.828 33.6689 47.8488 33.5195ZM9.65304 11.3897H33.7423V17.5293H9.65304V11.3897ZM28.1172 70.3605H10.1636C9.7814 70.3605 9.46869 70.0513 9.46869 69.6656C9.46869 69.2834 9.7814 68.9707 10.1636 68.9707H28.1172C28.4994 68.9707 28.8121 69.2834 28.8121 69.6656C28.8121 70.0513 28.4994 70.3605 28.1172 70.3605ZM37.818 57.0421H10.1636C9.7814 57.0421 9.46869 56.7294 9.46869 56.3472C9.46869 55.965 9.7814 55.6523 10.1636 55.6523H37.818C38.2002 55.6523 38.5129 55.965 38.5129 56.3472C38.5129 56.7294 38.2002 57.0421 37.818 57.0421ZM37.818 43.7237H10.1636C9.7814 43.7237 9.46869 43.411 9.46869 43.0288C9.46869 42.6431 9.7814 42.3339 10.1636 42.3339H37.818C38.2002 42.3339 38.5129 42.6431 38.5129 43.0288C38.5129 43.411 38.2002 43.7237 37.818 43.7237ZM37.818 30.4053H10.1672L10.1637 30.4019C9.78149 30.4019 9.46877 30.0926 9.46877 29.7069C9.46877 29.3247 9.78149 29.012 10.1637 29.012H37.8181C38.2003 29.012 38.513 29.3247 38.513 29.7069C38.513 30.0926 38.2003 30.4019 37.8181 30.4019L37.818 30.4053Z" fill="url(#paint3_linear_294_109743)"/>
<defs>
<linearGradient id="paint0_linear_294_109743" x1="61.2725" y1="61.1456" x2="61.2725" y2="47.0249" gradientUnits="userSpaceOnUse">
<stop stop-color="#1D4EFF"/>
<stop offset="1" stop-color="#24B6FF"/>
</linearGradient>
<linearGradient id="paint1_linear_294_109743" x1="54.0735" y1="12.022" x2="54.0735" y2="0.983398" gradientUnits="userSpaceOnUse">
<stop stop-color="#1D4EFF"/>
<stop offset="1" stop-color="#24B6FF"/>
</linearGradient>
<linearGradient id="paint2_linear_294_109743" x1="61.272" y1="47.4978" x2="61.272" y2="23.1616" gradientUnits="userSpaceOnUse">
<stop stop-color="#1D4EFF"/>
<stop offset="1" stop-color="#24B6FF"/>
</linearGradient>
<linearGradient id="paint3_linear_294_109743" x1="30.2898" y1="82" x2="30.2898" y2="0" gradientUnits="userSpaceOnUse">
<stop stop-color="#1D4EFF"/>
<stop offset="1" stop-color="#24B6FF"/>
</linearGradient>
</defs>
</svg>
