<svg width="86" height="82" viewBox="0 0 86 82" fill="none" xmlns="http://www.w3.org/2000/svg">
<path fill-rule="evenodd" clip-rule="evenodd" d="M9.95798 50.8045L0 53.4626L7.44198 82L17.4 79.3384L9.95798 50.8045ZM80.6406 22.7226C80.3265 22.7475 80.0481 22.5162 80.0231 22.1995C79.9981 21.8864 80.2301 21.6088 80.5478 21.5839L85.3807 21.1712C85.6948 21.1462 85.9732 21.3775 85.9982 21.6942C86.0231 22.0074 85.7911 22.2849 85.4735 22.3098L80.6406 22.7226ZM76.6751 42.3184C76.3896 42.1867 76.2647 41.8451 76.4003 41.5604C76.5324 41.2758 76.875 41.1512 77.1606 41.2864L81.5508 43.336C81.8364 43.4677 81.9613 43.8093 81.8257 44.0939C81.6936 44.3786 81.3509 44.5031 81.0654 44.3679L76.6751 42.3184ZM72.6989 4.63618C72.4954 4.87814 72.1349 4.90662 71.8958 4.70379C71.6531 4.50097 71.6245 4.14158 71.828 3.90317L74.9511 0.202545C75.1546 -0.0394235 75.5151 -0.06789 75.7542 0.134937C75.9969 0.337763 76.0255 0.69715 75.8221 0.935557L72.6989 4.63618ZM35.2564 17.2825L36.8019 35.2268L60.3701 45.4601C60.5593 45.5349 60.7485 45.5598 60.9305 45.542C61.1482 45.5206 61.3517 45.4388 61.523 45.3142C61.6943 45.1861 61.8335 45.0153 61.9156 44.8161C61.987 44.6453 62.0191 44.4531 61.9977 44.2467L58.1964 4.35832C58.1749 4.15194 58.1071 3.97047 58.0072 3.8139C57.8858 3.63242 57.7216 3.49009 57.5289 3.39758C57.3362 3.30506 57.1184 3.26236 56.9007 3.28371C56.7187 3.3015 56.5331 3.36199 56.3582 3.47941L35.2564 17.2825ZM35.6383 35.0884L30.3629 35.494C30.3487 35.494 30.3344 35.494 30.3201 35.4976L25.6621 35.8534C24.7591 35.921 23.8739 35.8818 23.0244 35.7431C23.0137 35.7395 23.003 35.7395 22.9923 35.736C21.329 35.462 19.8084 34.8144 18.5592 33.882C16.696 32.4943 15.4431 30.4803 15.2433 28.1567C15.022 25.577 15.8929 23.3281 17.4277 21.6486C19.0767 19.8481 21.4895 18.6917 24.1558 18.4639L34.1358 17.6099L35.6383 35.0884ZM29.9417 36.6683L25.7478 36.9885C25.0411 37.0419 24.345 37.0348 23.6634 36.9743L24.5486 40.6891L24.5521 40.6998L25.7372 45.6778L31.6265 43.7421L29.9417 36.6683ZM32.4867 44.6637C35.0423 43.8275 37.2124 45.3932 38.8257 48.0974C39.8323 49.7876 40.6247 51.9155 41.1601 54.1963C41.7026 56.495 41.9846 58.9431 41.9775 61.256C41.9596 66.3337 40.5676 70.7606 37.4266 71.4009L17.5636 75.4503L11.8456 53.5207L17.328 50.2684C17.4637 50.1866 17.5529 50.0621 17.5886 49.9197L18.8557 45.0271C18.9842 44.5218 19.1662 44.0557 19.4304 43.6749C19.6731 43.3226 19.9907 43.0415 20.4226 42.8707L23.585 41.604L24.7629 46.55C24.8343 46.856 25.1448 47.0482 25.4518 46.9735C25.4732 46.9699 25.491 46.9628 25.5124 46.9557L32.4726 44.6713L32.4867 44.6637ZM61.773 29.8612L60.6951 18.5639C62.0657 18.571 63.3399 19.0621 64.3323 19.884C65.453 20.8127 66.2169 22.172 66.3632 23.7377L66.3668 23.7697H66.3632C66.4989 25.3318 65.9884 26.8014 65.0569 27.9152C64.2431 28.8972 63.0973 29.605 61.773 29.8612Z" fill="url(#paint0_linear_294_109735)"/>
<defs>
<linearGradient id="paint0_linear_294_109735" x1="43" y1="82" x2="43" y2="0" gradientUnits="userSpaceOnUse">
<stop stop-color="#1D4EFF"/>
<stop offset="1" stop-color="#24B6FF"/>
</linearGradient>
</defs>
</svg>
