<svg width="167" height="41" viewBox="0 0 167 41" fill="none" xmlns="http://www.w3.org/2000/svg">
<g clip-path="url(#clip0_1_223)">
<g clip-path="url(#clip1_1_223)">
<g clip-path="url(#clip2_1_223)">
<mask id="mask0_1_223" style="mask-type:luminance" maskUnits="userSpaceOnUse" x="0" y="0" width="167" height="41">
<path d="M166.311 0.77002H0.457275V40.77H166.311V0.77002Z" fill="white"/>
</mask>
<g mask="url(#mask0_1_223)">
<path d="M50.4846 29.3787H62.1451V25.8665H54.629V12.6372H50.4846V29.3787Z" fill="#060B13"/>
<path d="M69.0526 27.0357C67.3901 27.0357 66.5238 25.5839 66.5238 23.4064C66.5238 21.2288 67.3901 19.7537 69.0526 19.7537C70.715 19.7537 71.6048 21.2288 71.6048 23.4064C71.6048 25.5839 70.715 27.0357 69.0526 27.0357ZM69.076 29.7517C72.9394 29.7517 75.4682 27.0122 75.4682 23.4064C75.4682 19.8005 72.9394 17.061 69.076 17.061C65.236 17.061 62.6604 19.8005 62.6604 23.4064C62.6604 27.0122 65.236 29.7517 69.076 29.7517Z" fill="#060B13"/>
<path d="M82.1544 33.5215C83.9339 33.5215 85.5027 33.1234 86.5564 32.1868C87.5164 31.3205 88.1486 30.0093 88.1486 28.2064V17.3888H84.4959V18.6766H84.449C83.7466 17.6698 82.6695 17.0376 81.0773 17.0376C78.1037 17.0376 76.0432 19.5195 76.0432 23.0317C76.0432 26.7078 78.5485 28.7215 81.2412 28.7215C82.6929 28.7215 83.6061 28.1361 84.3085 27.34H84.4022V28.5342C84.4022 29.9859 83.7232 30.8288 82.1076 30.8288C80.8432 30.8288 80.211 30.2903 80.0003 29.6581H76.3007C76.6754 32.1634 78.8529 33.5215 82.1544 33.5215ZM82.131 25.8883C80.7027 25.8883 79.7661 24.7176 79.7661 22.9147C79.7661 21.0883 80.7027 19.9176 82.131 19.9176C83.7232 19.9176 84.5661 21.2756 84.5661 22.8912C84.5661 24.5771 83.7934 25.8883 82.131 25.8883Z" fill="#060B13"/>
<path d="M95.6619 27.0357C93.9995 27.0357 93.1332 25.5839 93.1332 23.4064C93.1332 21.2288 93.9995 19.7537 95.6619 19.7537C97.3244 19.7537 98.2137 21.2288 98.2137 23.4064C98.2137 25.5839 97.3244 27.0357 95.6619 27.0357ZM95.6853 29.7517C99.5484 29.7517 102.077 27.0122 102.077 23.4064C102.077 19.8005 99.5484 17.061 95.6853 17.061C91.8453 17.061 89.2697 19.8005 89.2697 23.4064C89.2697 27.0122 91.8453 29.7517 95.6853 29.7517Z" fill="#060B13"/>
<path d="M103.192 29.3787H107.008V17.3904H103.192V29.3787ZM103.192 15.7279H107.008V12.6372H103.192V15.7279Z" fill="#060B13"/>
<path d="M108.664 33.3342H112.481V28.1361H112.528C113.277 29.1429 114.378 29.7517 115.923 29.7517C119.06 29.7517 121.144 27.2698 121.144 23.3829C121.144 19.7771 119.201 17.0376 116.017 17.0376C114.378 17.0376 113.207 17.7634 112.387 18.8405H112.317V17.3888H108.664V33.3342ZM114.939 26.8015C113.3 26.8015 112.364 25.4668 112.364 23.5234C112.364 21.58 113.207 20.1049 114.869 20.1049C116.508 20.1049 117.281 21.4629 117.281 23.5234C117.281 25.5605 116.391 26.8015 114.939 26.8015Z" fill="#060B13"/>
<path d="M127.358 29.7517C130.495 29.7517 132.814 28.3937 132.814 25.7712C132.814 22.7039 130.332 22.1654 128.224 21.8142C126.702 21.5332 125.344 21.4161 125.344 20.5732C125.344 19.8239 126.07 19.4727 127.007 19.4727C128.06 19.4727 128.786 19.8005 128.927 20.8776H132.439C132.252 18.5127 130.425 17.0376 127.03 17.0376C124.197 17.0376 121.855 18.3488 121.855 20.8776C121.855 23.6873 124.08 24.2493 126.164 24.6005C127.756 24.8815 129.208 24.9986 129.208 26.0756C129.208 26.8483 128.482 27.2698 127.334 27.2698C126.07 27.2698 125.274 26.6844 125.134 25.4903H121.528C121.645 28.1361 123.846 29.7517 127.358 29.7517Z" fill="#060B13"/>
<path d="M137.996 29.7306C139.659 29.7306 140.712 29.075 141.579 27.9043H141.649V29.3794H145.302V17.3911H141.485V24.0877C141.485 25.516 140.689 26.4994 139.378 26.4994C138.16 26.4994 137.575 25.7735 137.575 24.4623V17.3911H133.782V25.2584C133.782 27.9277 135.233 29.7306 137.996 29.7306Z" fill="#060B13"/>
<path d="M146.961 29.3771H150.778V22.6571C150.778 21.2288 151.48 20.222 152.674 20.222C153.822 20.222 154.36 20.9712 154.36 22.259V29.3771H158.177V22.6571C158.177 21.2288 158.856 20.222 160.073 20.222C161.221 20.222 161.759 20.9712 161.759 22.259V29.3771H165.576V21.58C165.576 18.8873 164.218 17.0376 161.502 17.0376C159.956 17.0376 158.669 17.6932 157.732 19.1449H157.685C157.076 17.8571 155.882 17.0376 154.313 17.0376C152.581 17.0376 151.433 17.8571 150.684 19.0981H150.614V17.3888H146.961V29.3771Z" fill="#060B13"/>
<path fill-rule="evenodd" clip-rule="evenodd" d="M20.0671 40.1088C30.8434 40.1088 39.5792 31.3729 39.5792 20.5966C39.5792 9.82037 30.8434 1.08447 20.0671 1.08447C9.29082 1.08447 0.554932 9.82037 0.554932 20.5966C0.554932 31.3729 9.29082 40.1088 20.0671 40.1088ZM23.0788 16.1601C24.742 14.4968 24.742 11.8001 23.0788 10.1368C21.4154 8.47353 18.7188 8.47353 17.0554 10.1368C15.3922 11.8001 15.3922 14.4968 17.0554 16.1601L20.0671 19.1717L23.0788 16.1601ZM24.5036 23.6083C26.167 25.2716 28.8636 25.2716 30.527 23.6083C32.1902 21.945 32.1902 19.2483 30.527 17.585C28.8636 15.9218 26.167 15.9218 24.5036 17.585L21.492 20.5967L24.5036 23.6083ZM23.0788 31.0565C24.742 29.3932 24.742 26.6965 23.0788 25.0332L20.0671 22.0216L17.0554 25.0332C15.3922 26.6965 15.3922 29.3932 17.0554 31.0565C18.7188 32.7198 21.4154 32.7198 23.0788 31.0565ZM9.60725 23.6083C7.94399 21.945 7.94399 19.2483 9.60725 17.585C11.2706 15.9218 13.9673 15.9218 15.6306 17.585L18.6422 20.5967L15.6306 23.6083C13.9673 25.2716 11.2706 25.2716 9.60725 23.6083Z" fill="#060B13"/>
</g>
</g>
</g>
</g>
<defs>
<clipPath id="clip0_1_223">
<rect width="166" height="40" fill="white" transform="translate(0.429932 0.77002)"/>
</clipPath>
<clipPath id="clip1_1_223">
<rect width="166" height="40" fill="white" transform="translate(0.429932 0.77002)"/>
</clipPath>
<clipPath id="clip2_1_223">
<rect width="166" height="40" fill="white" transform="translate(0.429932 0.77002)"/>
</clipPath>
</defs>
</svg>
