<svg width="168" height="41" viewBox="0 0 168 41" fill="none" xmlns="http://www.w3.org/2000/svg">
<g clip-path="url(#clip0_1_206)">
<g clip-path="url(#clip1_1_206)">
<g clip-path="url(#clip2_1_206)">
<mask id="mask0_1_206" style="mask-type:luminance" maskUnits="userSpaceOnUse" x="0" y="0" width="167" height="41">
<path d="M166.616 0.77002H0.761841V40.77H166.616V0.77002Z" fill="white"/>
</mask>
<g mask="url(#mask0_1_206)">
<path d="M51.3556 28.2225H63.0161V24.7103H55.5V11.481H51.3556V28.2225Z" fill="#060B13"/>
<path d="M69.9275 25.8794C68.2651 25.8794 67.3987 24.4277 67.3987 22.2501C67.3987 20.0726 68.2651 18.5974 69.9275 18.5974C71.5899 18.5974 72.4797 20.0726 72.4797 22.2501C72.4797 24.4277 71.5899 25.8794 69.9275 25.8794ZM69.9509 28.5955C73.8143 28.5955 76.3431 25.856 76.3431 22.2501C76.3431 18.6443 73.8143 15.9048 69.9509 15.9048C66.1109 15.9048 63.5353 18.6443 63.5353 22.2501C63.5353 25.856 66.1109 28.5955 69.9509 28.5955Z" fill="#060B13"/>
<path d="M83.0293 32.3652C84.8089 32.3652 86.3776 31.9672 87.4313 31.0306C88.3913 30.1643 89.0235 28.853 89.0235 27.0501V16.2325H85.3708V17.5204H85.324C84.6215 16.5135 83.5445 15.8813 81.9523 15.8813C78.9786 15.8813 76.9181 18.3633 76.9181 21.8755C76.9181 25.5516 79.4235 27.5652 82.1162 27.5652C83.5679 27.5652 84.4811 26.9799 85.1835 26.1838H85.2772V27.3779C85.2772 28.8296 84.5981 29.6725 82.9825 29.6725C81.7181 29.6725 81.0859 29.134 80.8752 28.5018H77.1757C77.5503 31.0072 79.7279 32.3652 83.0293 32.3652ZM83.0059 24.7321C81.5776 24.7321 80.6411 23.5613 80.6411 21.7584C80.6411 19.9321 81.5776 18.7613 83.0059 18.7613C84.5981 18.7613 85.4411 20.1194 85.4411 21.735C85.4411 23.4208 84.6684 24.7321 83.0059 24.7321Z" fill="#060B13"/>
<path d="M96.533 25.8794C94.8705 25.8794 94.0042 24.4277 94.0042 22.2501C94.0042 20.0726 94.8705 18.5974 96.533 18.5974C98.1954 18.5974 99.0852 20.0726 99.0852 22.2501C99.0852 24.4277 98.1954 25.8794 96.533 25.8794ZM96.5564 28.5955C100.42 28.5955 102.949 25.856 102.949 22.2501C102.949 18.6443 100.42 15.9048 96.5564 15.9048C92.7164 15.9048 90.1407 18.6443 90.1407 22.2501C90.1407 25.856 92.7164 28.5955 96.5564 28.5955Z" fill="#060B13"/>
<path d="M104.063 28.2225H107.879V16.2342H104.063V28.2225ZM104.063 14.5718H107.879V11.481H104.063V14.5718Z" fill="#060B13"/>
<path d="M109.535 32.1779H113.352V26.9799H113.399C114.148 27.9867 115.248 28.5955 116.794 28.5955C119.931 28.5955 122.015 26.1135 122.015 22.2267C122.015 18.6208 120.072 15.8813 116.888 15.8813C115.248 15.8813 114.078 16.6072 113.258 17.6843H113.188V16.2325H109.535V32.1779ZM115.81 25.6452C114.171 25.6452 113.235 24.3106 113.235 22.3672C113.235 20.4238 114.078 18.9486 115.74 18.9486C117.379 18.9486 118.152 20.3067 118.152 22.3672C118.152 24.4043 117.262 25.6452 115.81 25.6452Z" fill="#060B13"/>
<path d="M128.229 28.5955C131.366 28.5955 133.684 27.2374 133.684 24.615C133.684 21.5477 131.202 21.0091 129.095 20.6579C127.573 20.3769 126.215 20.2599 126.215 19.4169C126.215 18.6677 126.941 18.3165 127.878 18.3165C128.931 18.3165 129.657 18.6443 129.798 19.7213H133.31C133.123 17.3565 131.296 15.8813 127.901 15.8813C125.068 15.8813 122.726 17.1925 122.726 19.7213C122.726 22.5311 124.951 23.093 127.035 23.4443C128.627 23.7252 130.079 23.8423 130.079 24.9194C130.079 25.6921 129.353 26.1135 128.205 26.1135C126.941 26.1135 126.145 25.5282 126.004 24.334H122.399C122.516 26.9799 124.717 28.5955 128.229 28.5955Z" fill="#060B13"/>
<path d="M138.871 28.5745C140.533 28.5745 141.587 27.9188 142.453 26.7481H142.524V28.2232H146.176V16.2349H142.36V22.9315C142.36 24.3598 141.564 25.3432 140.253 25.3432C139.035 25.3432 138.45 24.6174 138.45 23.3062V16.2349H134.656V24.1023C134.656 26.7715 136.108 28.5745 138.871 28.5745Z" fill="#060B13"/>
<path d="M147.836 28.2208H151.653V21.5008C151.653 20.0725 152.355 19.0657 153.549 19.0657C154.697 19.0657 155.235 19.815 155.235 21.1028V28.2208H159.052V21.5008C159.052 20.0725 159.731 19.0657 160.948 19.0657C162.096 19.0657 162.634 19.815 162.634 21.1028V28.2208H166.451V20.4238C166.451 17.7311 165.093 15.8813 162.377 15.8813C160.831 15.8813 159.543 16.5369 158.607 17.9886H158.56C157.951 16.7008 156.757 15.8813 155.188 15.8813C153.456 15.8813 152.308 16.7008 151.559 17.9418H151.489V16.2325H147.836V28.2208Z" fill="#060B13"/>
<path fill-rule="evenodd" clip-rule="evenodd" d="M20.9421 39.9291C31.7183 39.9291 40.4543 31.1932 40.4543 20.4169C40.4543 9.6407 31.7183 0.904785 20.9421 0.904785C10.1657 0.904785 1.42981 9.6407 1.42981 20.4169C1.42981 31.1932 10.1657 39.9291 20.9421 39.9291ZM27.0292 9.99439C27.3255 8.94191 26.3041 8.31955 25.3713 8.9841L12.35 18.2604C11.3383 18.9811 11.4975 20.4169 12.589 20.4169H16.0179V20.3904H22.7006L17.2554 22.3117L14.8549 30.8396C14.5586 31.8921 15.5799 32.5144 16.5128 31.8498L29.5342 22.5735C30.5458 21.8528 30.3865 20.4169 29.2951 20.4169H24.0953L27.0292 9.99439Z" fill="#060B13"/>
</g>
</g>
</g>
</g>
<defs>
<clipPath id="clip0_1_206">
<rect width="167" height="40" fill="white" transform="translate(0.589966 0.77002)"/>
</clipPath>
<clipPath id="clip1_1_206">
<rect width="167" height="40" fill="white" transform="translate(0.589966 0.77002)"/>
</clipPath>
<clipPath id="clip2_1_206">
<rect width="167" height="40" fill="white" transform="translate(0.589966 0.77002)"/>
</clipPath>
</defs>
</svg>
