<svg width="55" height="55" viewBox="0 0 55 55" fill="none" xmlns="http://www.w3.org/2000/svg">
<g filter="url(#filter0_f_1_8668)">
<circle cx="27.5" cy="27.5" r="7.5" fill="url(#paint0_linear_1_8668)"/>
</g>
<circle cx="27.5798" cy="19.5798" r="15.8298" fill="white" stroke="#F0F0F0" stroke-width="0.5"/>
<path fill-rule="evenodd" clip-rule="evenodd" d="M28.4452 16.149H30.4408V15.2916H28.4452V16.149ZM24.9958 16.149V15.2916H22.9999V16.149H24.9958ZM23.7883 13.3908L25.1959 14.8023L25.8022 14.1996L24.3946 12.7881L23.7883 13.3908ZM26.2918 12V13.9959H27.1489V12H26.2918ZM29.0464 12.7878L27.6388 14.1993L28.2448 14.802L29.6524 13.3905L29.0464 12.7878ZM26.7133 27H31.3771L33.22 24.8739V20.2647L32.8366 19.8936H31.7467L31.363 20.2647V19.2009L30.9796 18.8295H29.8894L29.5057 19.2009V18.1686L29.1226 17.7975H28.0324L27.649 18.1686L27.6484 15.0336L27.265 14.6625H26.1751L25.7914 15.0336V21.993L25.1473 20.6418L24.6439 20.4462L23.6416 20.8611L23.4394 21.348L24.4399 23.9355L26.7133 27Z" fill="black"/>
<defs>
<filter id="filter0_f_1_8668" x="0" y="0" width="55" height="55" filterUnits="userSpaceOnUse" color-interpolation-filters="sRGB">
<feFlood flood-opacity="0" result="BackgroundImageFix"/>
<feBlend mode="normal" in="SourceGraphic" in2="BackgroundImageFix" result="shape"/>
<feGaussianBlur stdDeviation="10" result="effect1_foregroundBlur_1_8668"/>
</filter>
<linearGradient id="paint0_linear_1_8668" x1="27.5" y1="35" x2="27.5" y2="20" gradientUnits="userSpaceOnUse">
<stop stop-color="#1D4EFF"/>
<stop offset="1" stop-color="#24B6FF"/>
</linearGradient>
</defs>
</svg>
