<svg width="70" height="82" viewBox="0 0 70 82" fill="none" xmlns="http://www.w3.org/2000/svg">
<path fill-rule="evenodd" clip-rule="evenodd" d="M52.3916 8.69761C52.3916 7.62642 51.5207 6.76167 50.4499 6.76167H49.5611V40.1956L52.3952 38.5408L52.3916 8.69761ZM52.3916 41.5056C58.7452 45.1569 63.5214 47.9006 70 51.6335V71.8721L52.3916 82L34.8052 71.8721V51.6335L52.3916 41.5056ZM61.5187 49.7156L55.7112 46.3668L40.6943 55.0038V59.8259L46.5017 63.1747V58.3526L61.5187 49.7156ZM16.2477 12.6512H36.3616C37.0291 12.6512 37.5752 12.1067 37.5752 11.4413V6.15657C37.5752 5.49109 37.0291 4.94663 36.3616 4.94663H34.4198V2.62632C34.4198 1.17432 33.2241 0.00355828 31.7892 0.00355828L20.8203 0C19.3639 0 18.1896 1.17086 18.1896 2.62276V4.94307H16.2479C15.5804 4.94307 15.0128 5.48755 15.0128 6.15301V11.4377C15.0128 12.1068 15.5587 12.6512 16.2477 12.6512ZM32.235 73.1418H4.22975C3.45875 73.1418 2.85196 72.5368 2.85196 71.7681V6.76158H1.94176C0.867352 6.76158 0 7.6299 0 8.69752V74.0494C0 75.117 0.870934 75.9675 1.94176 75.9888H36.7903L32.2357 73.3661L32.235 73.1418ZM46.8051 6.7614H40.1481V11.4411C40.1481 13.5193 38.449 15.2169 36.3645 15.2169L16.2469 15.2133C14.141 15.2133 12.4419 13.5193 12.4419 11.4375V6.75784L5.58149 6.7614V70.416H32.2344V59.726H24.6458C23.8962 59.726 23.2894 59.121 23.2894 58.3736C23.2894 57.6085 23.8962 57 24.6458 57H32.2344V50.1601L46.8045 41.7687L46.8051 6.7614ZM10.3794 25.1423C9.85472 24.5979 9.85472 23.7295 10.3794 23.2064C10.9041 22.6619 11.775 22.6619 12.3212 23.2064L12.4854 23.3665L14.7127 20.2384C15.1589 19.6335 16.0084 19.4911 16.6152 19.9146C17.2434 20.3594 17.3862 21.2064 16.94 21.8328L13.8453 26.1922C13.7846 26.2741 13.724 26.3737 13.6419 26.4556C13.0957 26.9787 12.2248 26.9787 11.7001 26.4556L10.3794 25.1423ZM10.3794 42.6942C9.85472 42.1498 9.85472 41.2814 10.3794 40.7583C10.9041 40.2138 11.775 40.2138 12.3212 40.7583L12.4854 40.9184L14.7127 37.7903C15.1589 37.1854 16.0084 37.043 16.6152 37.4665C17.2434 37.9113 17.3862 38.7583 16.94 39.3847L13.8453 43.7441C13.7846 43.826 13.724 43.9256 13.6419 44.0075C13.0957 44.5306 12.2248 44.5306 11.7001 44.0075L10.3794 42.6942ZM24.6461 24.6194C23.8966 24.6194 23.2897 24.0144 23.2897 23.2671C23.2897 22.502 23.8965 21.8934 24.6461 21.8934H41.0584C41.808 21.8934 42.4362 22.4984 42.4362 23.2671C42.4362 24.0144 41.808 24.6194 41.0584 24.6194H24.6461ZM24.6461 42.1713C23.8966 42.1713 23.2897 41.5663 23.2897 40.819C23.2897 40.0539 23.8965 39.4489 24.6461 39.4489H41.0584C41.808 39.4489 42.4362 40.0539 42.4362 40.819C42.4362 41.5663 41.808 42.1713 41.0584 42.1713H24.6461ZM10.3794 60.2498C9.85472 59.7053 9.85472 58.837 10.3794 58.3139C10.9041 57.7694 11.775 57.7694 12.3212 58.3139L12.4854 58.474L14.7127 55.3459C15.1589 54.7409 16.0084 54.5986 16.6152 55.022C17.2434 55.4669 17.3862 56.3139 16.94 56.9402L13.8453 61.2783C13.7846 61.3779 13.724 61.4811 13.6419 61.563C13.0957 62.0861 12.2248 62.0861 11.7001 61.563L10.3794 60.2498Z" fill="url(#paint0_linear_294_109723)"/>
<defs>
<linearGradient id="paint0_linear_294_109723" x1="35" y1="82" x2="35" y2="0" gradientUnits="userSpaceOnUse">
<stop stop-color="#1D4EFF"/>
<stop offset="1" stop-color="#24B6FF"/>
</linearGradient>
</defs>
</svg>
