<svg width="55" height="55" viewBox="0 0 55 55" fill="none" xmlns="http://www.w3.org/2000/svg">
<g filter="url(#filter0_f_1_8718)">
<circle cx="27.5" cy="27.5" r="7.5" fill="url(#paint0_linear_1_8718)"/>
</g>
<circle cx="27.5798" cy="19.5798" r="15.8298" fill="white" stroke="#F0F0F0" stroke-width="0.5"/>
<path d="M34.5289 19.0289H32.9083C32.6822 16.4095 30.5905 14.3178 27.9711 14.0917V12.4711C27.9711 12.2073 27.7638 12 27.5 12C27.2362 12 27.0289 12.2073 27.0289 12.4711V14.0917C24.4095 14.3178 22.3178 16.4095 22.0917 19.0289H20.4711C20.2073 19.0289 20 19.2362 20 19.5C20 19.7638 20.2073 19.9711 20.4711 19.9711H22.0917C22.3178 22.5905 24.4095 24.6822 27.0289 24.9083V26.5289C27.0289 26.7927 27.2362 27 27.5 27C27.7638 27 27.9711 26.7927 27.9711 26.5289V24.9083C30.5905 24.6822 32.6822 22.5905 32.9083 19.9711H34.5289C34.7927 19.9711 35 19.7638 35 19.5C35 19.2362 34.7927 19.0289 34.5289 19.0289ZM31.9661 19.9711C31.7399 22.0628 30.0817 23.7399 27.9711 23.9661C27.8204 23.9849 27.6508 23.9849 27.5 23.9849C27.3492 23.9849 27.1796 23.9849 27.0289 23.9661C24.9372 23.7399 23.26 22.0817 23.0339 19.9711C23.0151 19.8204 23.0151 19.6508 23.0151 19.5C23.0151 19.3492 23.0151 19.1796 23.0339 19.0289C23.26 16.9372 24.9183 15.26 27.0289 15.0339C27.1796 15.0151 27.3492 15.0151 27.5 15.0151C27.6508 15.0151 27.8204 15.0151 27.9711 15.0339C30.0628 15.26 31.7399 16.9372 31.9661 19.0289C31.9849 19.1796 31.9849 19.3304 31.9849 19.5C31.9849 19.6508 31.9849 19.8204 31.9661 19.9711Z" fill="black"/>
<path d="M27.5 21.5166C28.6136 21.5166 29.5164 20.6138 29.5164 19.5002C29.5164 18.3866 28.6136 17.4839 27.5 17.4839C26.3864 17.4839 25.4837 18.3866 25.4837 19.5002C25.4837 20.6138 26.3864 21.5166 27.5 21.5166Z" fill="black"/>
<defs>
<filter id="filter0_f_1_8718" x="0" y="0" width="55" height="55" filterUnits="userSpaceOnUse" color-interpolation-filters="sRGB">
<feFlood flood-opacity="0" result="BackgroundImageFix"/>
<feBlend mode="normal" in="SourceGraphic" in2="BackgroundImageFix" result="shape"/>
<feGaussianBlur stdDeviation="10" result="effect1_foregroundBlur_1_8718"/>
</filter>
<linearGradient id="paint0_linear_1_8718" x1="27.5" y1="35" x2="27.5" y2="20" gradientUnits="userSpaceOnUse">
<stop stop-color="#1D4EFF"/>
<stop offset="1" stop-color="#24B6FF"/>
</linearGradient>
</defs>
</svg>
