<svg width="44" height="44" viewBox="0 0 44 44" fill="none" xmlns="http://www.w3.org/2000/svg">
<rect width="44" height="44" rx="22" fill="white"/>
<rect x="0.5" y="0.5" width="43" height="43" rx="21.5" stroke="#9F6EFD" stroke-opacity="0.1"/>
<path d="M33.3032 29.618H32.8021V18.0715C32.8021 16.9513 31.8834 16.0243 30.7415 16.0243H28.8623C27.7204 16.0243 26.8016 16.9513 26.8016 18.0715V29.6193H24.5048L24.5061 14.0601C24.5061 12.9257 23.5874 12 22.4455 12H20.5519C19.4101 12 18.4913 12.927 18.4913 14.0601V29.618H16.1958V20.6839C16.1958 19.5494 15.2771 18.6367 14.1352 18.6367L12.256 18.638C11.1141 18.638 10.1954 19.5507 10.1954 20.6852V29.6193L9.69556 29.618C9.30535 29.618 9 29.9226 9 30.309C9 30.6824 9.30668 31 9.69556 31H33.3044C33.6946 31 34 30.6824 34 30.309C34 29.9226 33.6934 29.618 33.3032 29.618Z" fill="url(#paint0_linear_85_8708)"/>
<defs>
<linearGradient id="paint0_linear_85_8708" x1="21.5" y1="31" x2="21.5" y2="12" gradientUnits="userSpaceOnUse">
<stop stop-color="#1D4EFF"/>
<stop offset="1" stop-color="#24B6FF"/>
</linearGradient>
</defs>
</svg>
