<svg width="44" height="44" viewBox="0 0 44 44" fill="none" xmlns="http://www.w3.org/2000/svg">
<rect width="44" height="44" rx="22" fill="white"/>
<rect x="0.5" y="0.5" width="43" height="43" rx="21.5" stroke="#9F6EFD" stroke-opacity="0.1"/>
<path d="M27.3541 29.3525H24.4558C23.7799 29.3525 23.1672 29.0855 22.7233 28.6557C22.2794 28.225 22.0043 27.6305 22.0043 26.9746V21.1083C22.0043 20.7416 21.8502 20.4088 21.6017 20.1667C21.3531 19.9256 21.0092 19.7761 20.6313 19.7761H17.6624C17.5477 20.464 17.2102 21.0807 16.7232 21.5532C16.117 22.1415 15.2787 22.5063 14.3523 22.5063C13.4269 22.5063 12.5886 22.1424 11.9823 21.5532C11.376 20.965 11 20.1516 11 19.2536C11 18.3548 11.3751 17.5423 11.9823 16.9531C12.5885 16.3649 13.4268 16 14.3523 16C15.2786 16 16.116 16.364 16.7232 16.9531C17.2102 17.4256 17.5477 18.0415 17.6624 18.7303H20.6313C21.3073 18.7303 21.9199 18.9973 22.3638 19.428C22.8077 19.8587 23.0829 20.4532 23.0829 21.109V26.9754C23.0829 27.342 23.237 27.6749 23.4855 27.9169C23.734 28.1581 24.0771 28.3076 24.4549 28.3076H27.3248C27.4257 27.585 27.7705 26.9371 28.2768 26.4468C28.883 25.8585 29.7213 25.4937 30.6477 25.4937C31.5731 25.4937 32.4114 25.8576 33.0177 26.4468C33.624 27.035 34 27.8484 34 28.7464C34 29.6452 33.6249 30.4577 33.0177 31.0469C32.4115 31.6351 31.5732 32 30.6477 32C29.7214 32 28.884 31.636 28.2768 31.0469C27.8109 30.5939 27.4807 30.0084 27.3532 29.3534L27.3541 29.3525Z" fill="url(#paint0_linear_85_8612)"/>
<defs>
<linearGradient id="paint0_linear_85_8612" x1="22.5" y1="32" x2="22.5" y2="16" gradientUnits="userSpaceOnUse">
<stop stop-color="#1D4EFF"/>
<stop offset="1" stop-color="#24B6FF"/>
</linearGradient>
</defs>
</svg>
