<svg width="55" height="55" viewBox="0 0 55 55" fill="none" xmlns="http://www.w3.org/2000/svg">
<g filter="url(#filter0_f_1_8695)">
<circle cx="27.5" cy="27.5" r="7.5" fill="url(#paint0_linear_1_8695)"/>
</g>
<circle cx="27.5798" cy="19.5798" r="15.8298" fill="white" stroke="#F0F0F0" stroke-width="0.5"/>
<path fill-rule="evenodd" clip-rule="evenodd" d="M30.233 25.3765C30.2502 25.7728 30.1227 26.1627 29.8732 26.4653C29.5923 26.8047 29.1845 27 28.7558 27H24.7173C24.2737 27 23.8542 26.7918 23.5733 26.4323C23.2931 26.0728 23.1803 25.5996 23.2678 25.1444C23.367 24.6207 23.4311 23.8274 23.452 23.5364C22.7571 23.1808 22.0832 22.3332 21.6249 21.2127C20.7933 19.1807 20.6454 16.2841 22.0931 14.2908C23.0584 12.9608 24.7326 12 27.4283 12C29.2758 12 31.6843 12.3485 33.0822 15.644C33.3865 16.3611 33.3095 17.0393 33.1456 17.636C33.0773 17.8869 32.9935 18.1203 32.9282 18.3324C32.8851 18.472 32.845 18.5949 32.8493 18.7022C32.8524 18.783 32.9245 18.8684 32.9966 18.9699C33.1875 19.2427 33.4709 19.5272 33.7044 19.7451C33.7142 19.7548 33.7247 19.7651 33.7345 19.7761C33.9311 19.994 34.0259 20.2921 33.9939 20.5902C33.9625 20.8824 33.8128 21.1456 33.5879 21.3091C33.4025 21.4585 33.1906 21.6078 33.012 21.732L33.3471 22.3514C33.4666 22.5719 33.4161 22.8512 33.2276 23.0109L32.85 23.329V24.1482C32.85 24.6189 32.6405 25.0624 32.2845 25.3488C31.9272 25.6339 31.4646 25.729 31.0321 25.6049L30.233 25.3765ZM25.3486 20.0864V21.7985C25.3486 22.2104 25.5038 22.6048 25.781 22.8964C26.0588 23.1867 26.4346 23.3502 26.827 23.3502H27.8674C28.2592 23.3502 28.6356 23.1867 28.9128 22.8964C29.19 22.6048 29.3459 22.2104 29.3459 21.7985V20.0864C30.0795 19.4702 30.5508 18.5224 30.5508 17.4601C30.5508 15.6038 29.1149 14.0981 27.3476 14.0981C25.579 14.0981 24.1438 15.604 24.1438 17.4601C24.1438 18.5224 24.6143 19.4703 25.3486 20.0864ZM26.3342 21.0517H28.3597V21.7985C28.3597 21.9362 28.3079 22.0674 28.2155 22.165C28.1231 22.2614 27.9975 22.3157 27.8675 22.3157H26.827C26.6964 22.3157 26.5708 22.2614 26.4784 22.165C26.386 22.0674 26.3342 21.9362 26.3342 21.7985L26.3342 21.0517ZM28.3597 20.0172H27.8398V18.6827L28.4872 17.7316C28.5451 17.6469 28.579 17.5435 28.579 17.431C28.579 17.1452 28.3584 16.9137 28.0868 16.9137C27.9211 16.9137 27.7751 16.9991 27.6851 17.1303L27.3476 17.6275L27.0094 17.1303C26.9157 16.9946 26.7673 16.9137 26.6077 16.9137C26.5049 16.9137 26.4051 16.9474 26.3213 17.0101C26.1919 17.1071 26.1149 17.2635 26.1149 17.431C26.1149 17.539 26.147 17.6437 26.2067 17.7316L26.8541 18.6827V20.0172H26.3342V19.8245C26.3342 19.6525 26.2523 19.4909 26.1155 19.3952C25.5211 18.9775 25.1293 18.2663 25.1293 17.4601C25.1293 16.1754 26.1229 15.1326 27.3475 15.1326C28.5709 15.1326 29.5646 16.1755 29.5646 17.4601C29.5646 18.2664 29.1728 18.9776 28.5784 19.3952C28.4422 19.4909 28.3597 19.6525 28.3597 19.8245L28.3597 20.0172Z" fill="black"/>
<defs>
<filter id="filter0_f_1_8695" x="0" y="0" width="55" height="55" filterUnits="userSpaceOnUse" color-interpolation-filters="sRGB">
<feFlood flood-opacity="0" result="BackgroundImageFix"/>
<feBlend mode="normal" in="SourceGraphic" in2="BackgroundImageFix" result="shape"/>
<feGaussianBlur stdDeviation="10" result="effect1_foregroundBlur_1_8695"/>
</filter>
<linearGradient id="paint0_linear_1_8695" x1="27.5" y1="35" x2="27.5" y2="20" gradientUnits="userSpaceOnUse">
<stop stop-color="#1D4EFF"/>
<stop offset="1" stop-color="#24B6FF"/>
</linearGradient>
</defs>
</svg>
