<svg width="63" height="63" viewBox="0 0 63 63" fill="none" xmlns="http://www.w3.org/2000/svg">
<rect width="63" height="63" rx="31.5" fill="white"/>
<rect x="0.5" y="0.5" width="62" height="62" rx="31" stroke="#9F6EFD" stroke-opacity="0.1"/>
<path d="M50.8175 36.6689L44.0073 30.5589C43.8425 30.4133 43.6054 30.3769 43.4044 30.4699C43.2034 30.5589 43.0748 30.7591 43.0748 30.9775V34.0942L34.942 34.0962V25.9556H38.0588C38.2799 25.9556 38.4748 25.8261 38.5632 25.6239C38.6556 25.4216 38.6195 25.189 38.4748 25.0232L32.4198 18.179C32.2088 17.9403 31.8029 17.9403 31.5919 18.179L25.5333 25.0289C25.3846 25.1886 25.3484 25.4273 25.4408 25.6296C25.5293 25.8318 25.7282 25.9612 25.9452 25.9612H29.068V34.0998H20.9234V30.9832C20.9234 30.7648 20.7948 30.5645 20.5938 30.4756C20.3929 30.3866 20.1618 30.4189 19.997 30.5645L13.1909 36.6745C13.0683 36.7838 13 36.9334 13 37.0892C13 37.2489 13.0723 37.4047 13.1909 37.5078L19.997 43.6075C20.1557 43.7531 20.3929 43.7935 20.5938 43.6964C20.7948 43.6075 20.9234 43.4072 20.9234 43.1888V40.0722H27.8622C28.5314 40.0722 29.0659 40.6203 29.0659 41.2836V45.4418C29.0659 45.7472 29.3171 46 29.6205 46H34.3851C34.6986 46 34.9397 45.7472 34.9397 45.4418V41.2836C34.9397 40.6162 35.4843 40.0722 36.1434 40.0722H43.0724V43.1888C43.0724 43.4072 43.2011 43.6075 43.402 43.6964C43.603 43.7895 43.8341 43.7531 44.0049 43.6075L50.8151 37.5078C50.9336 37.3986 51 37.2489 51 37.0892C51.002 36.9274 50.9356 36.7777 50.8171 36.6685L50.8175 36.6689Z" fill="url(#paint0_linear_266_54461)"/>
<defs>
<linearGradient id="paint0_linear_266_54461" x1="32" y1="46" x2="32" y2="18" gradientUnits="userSpaceOnUse">
<stop stop-color="#1D4EFF"/>
<stop offset="1" stop-color="#24B6FF"/>
</linearGradient>
</defs>
</svg>
