<svg width="55" height="55" viewBox="0 0 55 55" fill="none" xmlns="http://www.w3.org/2000/svg">
<g filter="url(#filter0_f_1_8722)">
<circle cx="27.5" cy="27.5" r="7.5" fill="url(#paint0_linear_1_8722)"/>
</g>
<circle cx="27.5798" cy="19.5798" r="15.8298" fill="white" stroke="#F0F0F0" stroke-width="0.5"/>
<path d="M32.6013 20.4098C32.698 20.6844 32.8888 20.916 33.1399 21.0635C33.3909 21.2111 33.6861 21.2651 33.9731 21.216C34.2601 21.1669 34.5205 21.0178 34.7083 20.7953C34.896 20.5727 34.999 20.2909 34.999 19.9997C34.999 19.7085 34.896 19.4267 34.7083 19.2041C34.5205 18.9815 34.2601 18.8325 33.9731 18.7834C33.6861 18.7343 33.3909 18.7883 33.1399 18.9358C32.8888 19.0833 32.698 19.3149 32.6013 19.5895H29.233V15.4677H29.8892L31.4168 16.995C31.4937 17.0719 31.5979 17.115 31.7066 17.1151H32.6024C32.6991 17.3897 32.8899 17.6213 33.141 17.7688C33.392 17.9163 33.6872 17.9703 33.9742 17.9212C34.2612 17.8721 34.5216 17.7231 34.7094 17.5005C34.8971 17.2779 35.0001 16.9961 35.0001 16.7049C35.0001 16.4137 34.8971 16.1319 34.7094 15.9093C34.5216 15.6868 34.2612 15.5377 33.9742 15.4886C33.6872 15.4395 33.392 15.4935 33.141 15.6411C32.8899 15.7886 32.6991 16.0202 32.6024 16.2948H31.8756L30.3483 14.7675C30.3102 14.7294 30.2649 14.6992 30.2151 14.6786C30.1654 14.658 30.112 14.6474 30.0582 14.6474H29.1709C28.9385 13.7033 28.0723 13.0001 27.042 13.0001C26.6584 12.9974 26.2808 13.0958 25.9473 13.2855C25.6138 13.4751 25.3361 13.7493 25.1423 14.0803C25.0876 14.0773 25.0329 14.076 24.9782 14.076C23.3897 14.076 22.0972 15.3457 22.0972 16.9067C22.0975 17.0245 22.1053 17.1421 22.1204 17.2589C21.7632 17.5976 21.4794 18.0062 21.2867 18.4592C21.094 18.9122 20.9964 19.4 21.0001 19.8923C21.0038 20.3846 21.1086 20.8709 21.3081 21.3209C21.5076 21.771 21.7975 22.1753 22.1598 22.5086C22.1188 22.7006 22.0981 22.8963 22.0983 23.0926C22.0983 24.6536 23.3907 25.9234 24.9793 25.9234C25.034 25.9234 25.0887 25.9219 25.1434 25.919C25.3372 26.2499 25.6146 26.524 25.9479 26.7136C26.2812 26.9032 26.6586 27.0018 27.042 26.9993C28.0723 26.9993 28.9385 26.296 29.1709 25.3519H30.0582C30.112 25.3519 30.1654 25.3414 30.2151 25.3208C30.2649 25.3002 30.3102 25.27 30.3483 25.2319L31.8756 23.7045H32.6013C32.698 23.9792 32.8888 24.2107 33.1399 24.3583C33.3909 24.5058 33.6861 24.5598 33.9731 24.5107C34.2601 24.4616 34.5205 24.3126 34.7083 24.09C34.896 23.8674 34.999 23.5856 34.999 23.2944C34.999 23.0032 34.896 22.7214 34.7083 22.4988C34.5205 22.2762 34.2601 22.1272 33.9731 22.0781C33.6861 22.029 33.3909 22.083 33.1399 22.2305C32.8888 22.3781 32.698 22.6096 32.6013 22.8843H31.7055C31.5968 22.8843 31.4926 22.9275 31.4157 23.0043L29.8884 24.5317H29.2321V20.4098H32.6013ZM24.3786 16.3615C24.4492 16.3139 24.5328 16.2892 24.6179 16.2908C24.7031 16.2924 24.7856 16.3202 24.8544 16.3705C24.8835 16.3914 24.9099 16.4158 24.9328 16.4433C25.0439 16.5354 25.2716 16.6639 25.3933 16.6434C25.4083 16.6407 25.4543 16.6327 25.5128 16.5185C25.7939 15.9678 26.1417 15.6681 26.5471 15.6271C27.0737 15.5724 27.4221 15.9897 27.4598 16.0372L26.8186 16.5488L26.8225 16.5535C26.7867 16.5113 26.6929 16.4359 26.6281 16.4441C26.5515 16.4531 26.4047 16.5759 26.2434 16.8922C26.0547 17.2619 25.7394 17.4664 25.3665 17.4664C25.3253 17.4664 25.2841 17.4639 25.2432 17.459C25.0357 17.435 24.8194 17.3521 24.6009 17.2129C24.2586 16.9942 24.2299 16.8775 24.2107 16.7998C24.1905 16.7183 24.1958 16.6326 24.2258 16.5543C24.2558 16.4759 24.3092 16.4086 24.3786 16.3615ZM24.2531 20.8607C23.9668 20.625 23.811 20.2403 23.7883 19.7161C23.7508 19.7577 23.7142 19.8012 23.6822 19.8433C23.6168 19.9303 23.5194 19.9878 23.4116 20.003C23.3038 20.0183 23.1944 19.9901 23.1073 19.9246C23.0203 19.8592 22.9629 19.7618 22.9476 19.654C22.9324 19.5462 22.9606 19.4368 23.026 19.3497C23.2532 19.049 23.7027 18.5634 24.1596 18.7162C24.4549 18.8149 24.6045 19.108 24.6045 19.5879C24.6045 20.041 24.7215 20.1861 24.7718 20.2274C24.8049 20.2535 24.8456 20.2683 24.8877 20.2695C24.9406 20.2592 24.995 20.2593 25.0478 20.27C25.1006 20.2806 25.1507 20.3016 25.1954 20.3316C25.2401 20.3617 25.2785 20.4003 25.3083 20.4451C25.3381 20.49 25.3587 20.5403 25.3691 20.5931C25.3795 20.646 25.3793 20.7004 25.3686 20.7532C25.358 20.806 25.337 20.8561 25.307 20.9008C25.2769 20.9455 25.2384 20.9839 25.1935 21.0137C25.1486 21.0435 25.0984 21.0641 25.0455 21.0745C24.9944 21.0835 24.9426 21.0878 24.8907 21.0873C24.6583 21.0882 24.4328 21.0081 24.2531 20.8607ZM26.7765 22.6166C26.6382 22.636 26.4782 22.674 26.3631 22.7481C26.6314 23.0647 26.7374 23.4254 26.6639 23.7871C26.645 23.8797 26.5947 23.9629 26.5216 24.0226C26.4485 24.0824 26.357 24.1151 26.2625 24.1152C26.2349 24.1152 26.2075 24.1124 26.1805 24.1068C26.1277 24.096 26.0775 24.0749 26.0329 24.0448C25.9882 24.0146 25.95 23.976 25.9203 23.931C25.8906 23.8861 25.87 23.8357 25.8598 23.7829C25.8495 23.73 25.8498 23.6756 25.8606 23.6228C25.9306 23.2802 25.3465 22.9543 25.1863 22.8859C25.1324 22.8683 25.0827 22.8397 25.0404 22.802C24.9981 22.7642 24.9641 22.7181 24.9405 22.6665C24.917 22.6149 24.9044 22.559 24.9035 22.5023C24.9026 22.4456 24.9135 22.3893 24.9355 22.337C24.9575 22.2848 24.9901 22.2376 25.0312 22.1986C25.0724 22.1595 25.1211 22.1294 25.1745 22.1102C25.2278 22.091 25.2846 22.083 25.3412 22.0868C25.3977 22.0906 25.4529 22.1061 25.5032 22.1324C25.5193 22.1392 25.5973 22.1728 25.7058 22.2324C25.8915 22.0446 26.1879 21.8718 26.6628 21.8054C26.7162 21.7977 26.7706 21.8006 26.8229 21.8141C26.8752 21.8275 26.9243 21.8511 26.9675 21.8835C27.0106 21.9159 27.0469 21.9566 27.0744 22.0031C27.1018 22.0496 27.1197 22.101 27.1272 22.1545C27.1347 22.2079 27.1316 22.2623 27.118 22.3146C27.1044 22.3668 27.0806 22.4158 27.048 22.4589C27.0155 22.5019 26.9747 22.5381 26.9281 22.5653C26.8815 22.5926 26.83 22.6104 26.7765 22.6177V22.6166ZM27.2334 18.7583C27.1287 18.7731 26.9761 18.8051 26.8638 18.8732C27.0997 19.1712 27.1919 19.5078 27.1219 19.8463C27.103 19.9388 27.0527 20.022 26.9796 20.0818C26.9065 20.1416 26.8149 20.1743 26.7205 20.1744C26.6929 20.1744 26.6654 20.1715 26.6385 20.1659C26.5857 20.1551 26.5355 20.1341 26.4909 20.1039C26.4462 20.0738 26.408 20.0351 26.3782 19.9902C26.3485 19.9453 26.328 19.8949 26.3177 19.842C26.3075 19.7891 26.3078 19.7347 26.3186 19.682C26.382 19.3719 25.8595 19.0736 25.717 19.0107C25.6676 18.9893 25.6228 18.9584 25.5853 18.9198C25.5478 18.8811 25.5183 18.8355 25.4984 18.7854C25.4786 18.7353 25.4688 18.6818 25.4696 18.628C25.4704 18.5741 25.4818 18.521 25.5032 18.4715C25.5246 18.4221 25.5555 18.3773 25.5941 18.3398C25.6328 18.3023 25.6785 18.2728 25.7285 18.2529C25.7786 18.2331 25.8321 18.2233 25.8859 18.2241C25.9398 18.2249 25.993 18.2363 26.0424 18.2577C26.0566 18.2637 26.1244 18.293 26.216 18.3446C26.3948 18.1683 26.6765 18.0081 27.1208 17.946C27.1746 17.9375 27.2297 17.9397 27.2826 17.9527C27.3356 17.9657 27.3854 17.9891 27.4292 18.0216C27.4731 18.054 27.5099 18.0949 27.5378 18.1418C27.5656 18.1887 27.5838 18.2407 27.5913 18.2947C27.5988 18.3487 27.5954 18.4037 27.5814 18.4564C27.5674 18.5091 27.543 18.5585 27.5097 18.6017C27.4764 18.6448 27.4348 18.6809 27.3873 18.7078C27.3399 18.7347 27.2876 18.7519 27.2334 18.7583Z" fill="black"/>
<defs>
<filter id="filter0_f_1_8722" x="0" y="0" width="55" height="55" filterUnits="userSpaceOnUse" color-interpolation-filters="sRGB">
<feFlood flood-opacity="0" result="BackgroundImageFix"/>
<feBlend mode="normal" in="SourceGraphic" in2="BackgroundImageFix" result="shape"/>
<feGaussianBlur stdDeviation="10" result="effect1_foregroundBlur_1_8722"/>
</filter>
<linearGradient id="paint0_linear_1_8722" x1="27.5" y1="35" x2="27.5" y2="20" gradientUnits="userSpaceOnUse">
<stop stop-color="#1D4EFF"/>
<stop offset="1" stop-color="#24B6FF"/>
</linearGradient>
</defs>
</svg>
