<svg width="63" height="63" viewBox="0 0 63 63" fill="none" xmlns="http://www.w3.org/2000/svg">
<rect width="63" height="63" rx="31.5" fill="white"/>
<rect x="0.5" y="0.5" width="62" height="62" rx="31" stroke="#9F6EFD" stroke-opacity="0.1"/>
<path fill-rule="evenodd" clip-rule="evenodd" d="M19 21.2762V38.2095C19 39.6278 19.8916 40.9951 21.0087 41.7425C22.6772 42.8592 24.9832 42.4432 27.1993 42.4857C27.6113 42.4943 30.9237 46.0611 31.4669 46.5961C32.571 47.6876 33.8703 46.3117 34.7745 45.5006C35.2459 45.076 38.1929 42.5069 38.3798 42.4857C40.0445 42.3073 42.125 42.9613 43.9377 41.7551C45.0674 40.9994 45.9633 39.6407 45.9633 38.2095V21.2762C45.9633 19.0299 43.8784 17 41.543 17H23.4247C21.0723 17 19 19.0385 19 21.2762ZM28.1726 28.2434C28.1726 29.0502 28.8478 29.7506 29.574 29.7506C31.3745 29.7506 30.627 28.2772 32.415 28.2772C33.4468 28.2772 34.3471 29.7847 33.3576 30.7655C32.5422 31.5809 32.0328 30.9226 31.2724 31.6276C30.2661 32.5617 30.9542 34.2475 32.1982 34.2475C37.1025 34.2475 38.5208 27.8231 34.2705 25.7002C31.2853 24.2096 28.1729 26.6853 28.1729 28.2438L28.1726 28.2434ZM30.7971 37.1219C30.7971 37.8525 31.0304 38.345 31.7186 38.642C32.8946 39.1428 34.1727 37.9754 33.71 36.7272C33.4339 35.9797 32.882 35.7546 32.1644 35.7546C31.4762 35.7546 30.7971 36.4385 30.7971 37.1219Z" fill="url(#paint0_linear_266_54455)"/>
<defs>
<linearGradient id="paint0_linear_266_54455" x1="32.4817" y1="47.0005" x2="32.4817" y2="17" gradientUnits="userSpaceOnUse">
<stop stop-color="#1D4EFF"/>
<stop offset="1" stop-color="#24B6FF"/>
</linearGradient>
</defs>
</svg>
