<svg width="86" height="82" viewBox="0 0 86 82" fill="none" xmlns="http://www.w3.org/2000/svg">
<path d="M22.1831 20.3449C22.1831 31.4985 31.4985 40.5648 42.8907 40.5648C54.2884 40.5648 63.5984 31.4985 63.5984 20.3449C63.5984 9.19136 54.2878 0 42.8907 0C31.4937 0 22.1831 9.19087 22.1831 20.3449ZM44.7289 8.82287V10.7855C45.2172 10.91 45.7102 11.1541 46.1985 11.5227L48.1612 12.7482C49.018 13.2364 49.2622 14.4618 48.7739 15.1991C48.1612 16.0559 47.0602 16.3001 46.1985 15.6873L44.2358 14.4619C43.4986 13.9736 42.5221 13.8492 41.6604 14.2178C41.2918 14.3422 40.5594 14.706 40.3104 15.4432C39.9419 16.7932 40.186 17.2814 43.4986 18.6313C44.5996 19.1196 45.825 19.6127 46.8063 20.2254C48.769 21.5754 49.6258 23.4135 49.1327 25.7399C48.7641 27.5781 47.419 29.0477 45.7005 29.7849C45.3414 29.8998 45.0973 30.0242 44.7287 30.0242V31.8624C44.7287 32.8437 43.8719 33.7006 42.8905 33.7006C41.9092 33.7006 41.0524 32.8437 41.0524 31.8624V29.8997C40.5641 29.7753 40.071 29.5311 39.5828 29.287L37.5005 28.0616C36.6437 27.5733 36.3995 26.3479 37.0123 25.6107C37.5005 24.7538 38.7259 24.5097 39.5877 25.1224L41.6699 26.3478C42.4071 26.8361 43.5081 26.9606 44.365 26.592C44.7335 26.4675 45.4659 25.9792 45.5904 25.1224C45.7149 24.2656 45.5904 23.897 44.7335 23.2842C44.1208 22.796 43.1395 22.4274 42.1581 22.0588C39.5827 20.9578 35.2937 19.2393 36.8877 14.462C37.376 12.8679 38.7259 11.5229 40.5641 10.9101C40.8082 10.7857 40.9327 10.7857 41.1768 10.7857V8.94751C41.1768 7.96619 42.0337 7.10934 43.015 7.10934C43.9915 7.10934 44.7289 7.72192 44.7289 8.82287Z" fill="url(#paint0_linear_294_109738)"/>
<path d="M0 78.3039C0 81.3676 3.55184 83.0812 6.00274 81.2431L18.0131 72.1767C18.1376 72.1767 18.1376 72.0522 18.2573 72.0522C19.7268 71.4395 21.1964 71.1954 22.6708 71.1954L49.018 72.4208C50.6121 72.4208 52.0816 71.8081 53.1826 70.8268L85.782 40.1954L85.4134 39.5827C83.9438 37.2563 80.8802 36.5191 78.4293 37.869L53.0637 49.999C52.9393 53.3068 50.8569 56.6145 47.3051 56.739H28.0619C27.3247 56.739 26.8364 56.1263 26.8364 55.5135C26.8364 54.7764 27.4491 54.2881 28.0619 54.2881H47.1813C49.2636 54.2881 50.4891 51.8372 50.4891 49.6304C50.4891 48.7735 50.2449 46.0786 47.3009 46.0786H47.1765L22.2986 43.6277C21.5614 43.6277 20.7046 43.8718 19.9722 44.2404L1.47039 58.0843C0.489078 58.8215 0.000833269 59.9225 0.000833269 61.0234L0 78.3039Z" fill="url(#paint1_linear_294_109738)"/>
<defs>
<linearGradient id="paint0_linear_294_109738" x1="42.8907" y1="40.5648" x2="42.8907" y2="0" gradientUnits="userSpaceOnUse">
<stop stop-color="#1D4EFF"/>
<stop offset="1" stop-color="#24B6FF"/>
</linearGradient>
<linearGradient id="paint1_linear_294_109738" x1="42.891" y1="82.0002" x2="42.891" y2="37.1963" gradientUnits="userSpaceOnUse">
<stop stop-color="#1D4EFF"/>
<stop offset="1" stop-color="#24B6FF"/>
</linearGradient>
</defs>
</svg>
