<svg width="55" height="55" viewBox="0 0 55 55" fill="none" xmlns="http://www.w3.org/2000/svg">
<g filter="url(#filter0_f_1_8727)">
<circle cx="27.5" cy="27.5" r="7.5" fill="url(#paint0_linear_1_8727)"/>
</g>
<circle cx="27.5798" cy="19.5798" r="15.8298" fill="white" stroke="#F0F0F0" stroke-width="0.5"/>
<path d="M20.6267 18.2915C20.5844 18.2915 20.5421 18.2868 20.4991 18.2782C20.1602 18.2078 19.9434 17.8767 20.013 17.5378C20.3825 15.7564 21.3765 14.1487 22.8112 13.013C23.0828 12.7978 23.4765 12.844 23.6909 13.1148C23.9054 13.3856 23.86 13.7801 23.5892 13.9945C22.3846 14.9486 21.5502 16.2972 21.2402 17.7914C21.1792 18.0872 20.9185 18.2907 20.6274 18.2907L20.6267 18.2915Z" fill="black"/>
<path d="M34.72 18.2919C34.4296 18.2919 34.1689 18.0884 34.1071 17.7925C33.7972 16.2975 32.9628 14.949 31.7582 13.9957C31.4873 13.7812 31.4412 13.3875 31.6564 13.1159C31.8709 12.8451 32.2646 12.7997 32.5362 13.0142C33.9708 14.1499 34.964 15.7568 35.3343 17.5389C35.4048 17.8778 35.1872 18.2089 34.8483 18.2794C34.8052 18.288 34.7622 18.2927 34.7207 18.2927L34.72 18.2919Z" fill="black"/>
<path d="M25.3534 26.3408C25.726 27.2574 26.6245 27.9062 27.6733 27.9062C28.7221 27.9062 29.6206 27.2574 29.9932 26.3408H25.3526H25.3534Z" fill="black"/>
<path d="M33.9928 22.9252C33.5451 22.1785 33.3087 21.3245 33.3087 20.4542V19.14C33.3087 16.6104 31.633 14.465 29.3334 13.7551C29.4719 13.4929 29.5517 13.1955 29.5517 12.8785C29.5517 11.8422 28.7096 11 27.6733 11C26.637 11 25.7948 11.8422 25.7948 12.8785C25.7948 13.1947 25.8746 13.4929 26.0132 13.7551C23.7135 14.4658 22.0378 16.6104 22.0378 19.14V20.4542C22.0378 21.3246 21.8014 22.1785 21.3537 22.9244C21.0078 23.5012 20.9992 24.1947 21.3302 24.7793C21.6621 25.3648 22.2609 25.7139 22.9332 25.7139H32.4131C33.0855 25.7139 33.685 25.3648 34.0161 24.7793C34.3472 24.1939 34.3386 23.5004 33.9926 22.9244L33.9928 22.9252ZM27.0472 12.8784C27.0472 12.5332 27.3281 12.2522 27.6733 12.2522C28.0185 12.2522 28.2995 12.5332 28.2995 12.8784C28.2995 13.2236 28.0185 13.5045 27.6733 13.5045C27.3281 13.5045 27.0472 13.2236 27.0472 12.8784ZM31.1171 18.827C30.7711 18.827 30.4909 18.5468 30.4909 18.2008C30.4909 17.3375 29.7889 16.6354 28.9255 16.6354C28.5796 16.6354 28.2994 16.3552 28.2994 16.0093C28.2994 15.6633 28.5796 15.3831 28.9255 15.3831C30.4792 15.3831 31.7431 16.6472 31.7431 18.2007C31.7431 18.5467 31.463 18.827 31.1171 18.827Z" fill="black"/>
<defs>
<filter id="filter0_f_1_8727" x="0" y="0" width="55" height="55" filterUnits="userSpaceOnUse" color-interpolation-filters="sRGB">
<feFlood flood-opacity="0" result="BackgroundImageFix"/>
<feBlend mode="normal" in="SourceGraphic" in2="BackgroundImageFix" result="shape"/>
<feGaussianBlur stdDeviation="10" result="effect1_foregroundBlur_1_8727"/>
</filter>
<linearGradient id="paint0_linear_1_8727" x1="27.5" y1="35" x2="27.5" y2="20" gradientUnits="userSpaceOnUse">
<stop stop-color="#1D4EFF"/>
<stop offset="1" stop-color="#24B6FF"/>
</linearGradient>
</defs>
</svg>
