<svg width="83" height="82" viewBox="0 0 83 82" fill="none" xmlns="http://www.w3.org/2000/svg">
<path d="M21.2068 13.8451C20.4454 14.3527 19.5572 14.8602 18.9227 15.6216C17.7807 16.8905 16.3849 19.1746 16.3849 22.6007C16.1311 22.7276 15.8773 22.8544 15.4967 23.1082L7.24868 14.8602L5.09152 16.8905C4.45706 17.525 3.18814 17.2712 2.93436 16.2561L0.0158397 1.53659C-0.111052 0.648346 0.6503 -0.113005 1.53854 0.0138866L16.258 2.9324C17.2731 3.18619 17.6538 4.32821 16.8925 5.08957L14.7353 7.24673L21.2068 13.8451Z" fill="url(#paint0_linear_2003_2)"/>
<path d="M16.8927 76.9104C17.6541 77.6717 17.2734 78.8138 16.2583 79.0676L1.53879 81.9861C0.523657 82.113 -0.110803 81.3516 0.016089 80.4634L2.9346 65.7439C3.18839 64.7288 4.45731 64.475 5.09177 65.1094L7.24893 67.2666L14.3549 60.1606C14.6087 60.2875 14.8625 60.4144 15.1162 60.5413C15.2431 64.7288 16.8927 68.028 19.3037 70.0582L14.7356 74.6263L16.8927 76.9104Z" fill="url(#paint1_linear_2003_2)"/>
<path d="M82.4956 1.53659L79.5771 16.2561C79.3233 17.2712 78.0544 17.525 77.4199 16.8905L75.2627 14.7334L66.8879 23.1082C66.5072 22.8544 66.2534 22.7276 65.8727 22.4738C65.8727 18.7939 64.35 15.6216 61.1777 13.8451L67.7761 7.24673L65.619 5.08957C64.8576 4.32821 65.2383 3.18619 66.2534 2.9324L80.846 0.0138866C81.8611 -0.113005 82.6225 0.648346 82.4956 1.53659Z" fill="url(#paint2_linear_2003_2)"/>
<path d="M80.9733 81.9861L66.2538 79.0676C65.2387 78.9407 64.858 77.6717 65.6194 76.9104L67.7765 74.7532L63.0815 70.0582C65.7463 67.6473 67.0152 64.3481 67.1421 60.6682C67.5228 60.5413 67.7765 60.2875 68.0303 60.1606L75.2632 67.3935L77.4203 65.2363C78.1817 64.475 79.3237 64.8556 79.5775 65.8708L82.496 80.5903C82.6229 81.2247 81.9885 82.113 80.9733 81.9861Z" fill="url(#paint3_linear_2003_2)"/>
<path d="M39.8606 60.5413C35.927 61.6833 31.7396 61.4295 29.2017 58.2572C28.1866 56.9883 30.09 55.3387 31.232 56.6076C33.6429 59.653 38.211 58.511 39.9875 57.8765V51.1513C39.2262 51.405 38.4648 51.5319 37.4497 51.5319C36.1808 51.5319 34.785 51.1513 33.3892 50.1361C31.9933 49.121 33.516 47.0907 34.9119 48.1059C36.8152 49.5017 38.9724 48.8672 39.9875 48.3596V34.4015C38.3379 34.0208 34.4043 33.2595 33.0085 35.5436C32.7547 35.9242 32.374 36.0511 31.9933 36.0511C31.7396 36.0511 31.4858 35.9242 31.232 35.7973C30.5975 35.4167 30.4706 34.6553 30.8513 34.0208C33.0085 30.7217 37.5766 31.2292 39.9875 31.7368V26.1535C39.2262 26.5342 38.211 26.6611 37.1959 26.6611C35.8001 26.6611 34.1505 26.1535 32.7547 24.7577C31.4858 23.6157 33.2623 21.7123 34.5312 22.8544C36.8152 24.8846 39.0993 23.7426 39.9875 23.1081V11.3072C38.4648 10.1652 36.4346 8.89624 34.1505 9.27691C31.7396 9.65759 29.8362 11.4341 28.4404 14.8602C26.6639 14.7333 23.1109 14.9871 20.8268 17.398C19.3041 19.0476 18.6697 21.3317 19.0504 24.1233C17.4008 24.7577 14.6091 26.1535 13.594 28.9452C12.8327 30.9754 13.0864 33.1326 14.4822 35.5436C13.4671 36.4318 12.0713 38.2083 11.8175 40.4923C11.5637 42.9033 12.452 45.4411 14.6091 47.8521C13.7209 49.3748 12.452 52.5471 13.4671 55.2118C14.1016 56.9883 15.6243 58.2572 17.7814 59.0186C17.6545 60.6682 17.6545 63.7136 19.431 66.3783C20.9537 68.6624 23.3647 70.1851 26.7908 70.8195C27.679 71.3271 31.3589 73.2305 35.2925 73.2305C36.8152 73.2305 38.4648 72.9767 39.9875 72.0884V60.5413H39.8606ZM28.6941 14.9871C29.3286 14.7333 30.09 14.9871 30.3437 15.6215L31.232 17.6518C31.4858 18.2862 31.232 19.0476 30.5975 19.3014C29.9631 19.5552 29.2017 19.3014 28.9479 18.6669L28.0597 16.6366C27.679 16.0022 28.0597 15.2408 28.6941 14.9871ZM19.6848 23.8695C20.3193 23.4888 21.0806 23.6157 21.4613 24.2502C21.4613 24.3771 23.8723 27.6763 27.8059 27.8031C28.5673 27.8031 29.0748 28.4376 29.0748 29.0721C29.0748 29.7065 28.4404 30.341 27.8059 30.341C22.6033 30.2141 19.5579 25.7729 19.431 25.646C18.9235 25.1384 19.1773 24.2502 19.6848 23.8695ZM14.9898 35.036C15.3705 34.5284 16.2587 34.4015 16.7663 34.7822C16.7663 34.7822 18.9235 36.4318 21.5882 36.4318C22.3496 36.4318 22.8571 37.0663 22.8571 37.7007C22.8571 38.3352 22.2227 38.9696 21.5882 38.9696C18.1621 38.8427 15.4974 36.9394 15.3705 36.8125C14.736 36.3049 14.6091 35.5436 14.9898 35.036ZM24.2529 52.1664C23.7454 51.0244 23.3647 50.0092 23.2378 48.9941C20.8268 49.7555 17.9083 49.5017 15.7512 48.7403C14.1016 48.2327 14.9898 45.8218 16.5125 46.3294C16.6394 46.3294 20.1924 47.4714 23.2378 46.2025C23.3647 45.4411 23.6185 44.6798 23.9991 44.0453C26.4101 39.8579 32.7547 39.0965 33.0085 39.0965C33.6429 38.9696 34.2774 39.4772 34.4043 40.2386C34.5312 40.873 34.0236 41.5075 33.2623 41.6344C33.2623 41.6344 27.9328 42.2688 26.1563 45.3142C24.2529 48.8672 28.1866 51.6588 26.0294 52.674C25.2681 53.1815 24.5067 52.8009 24.2529 52.1664ZM27.4252 70.6926C26.7908 70.9464 26.0294 70.6926 25.7756 70.0582C25.0143 68.2817 23.8723 65.1094 24.8874 63.4598C25.2681 62.8253 26.0294 62.6984 26.6639 63.0791C27.2983 63.4598 27.4252 64.2211 27.0446 64.8556C26.9177 65.3632 27.4252 67.3934 28.0597 69.1699C28.4404 69.6775 28.1866 70.4388 27.4252 70.6926Z" fill="url(#paint4_linear_2003_2)"/>
<path d="M70.5685 40.4923C70.3147 38.0814 68.9189 36.4318 67.9037 35.5436C69.2995 33.1326 69.5533 30.9754 68.792 28.9452C67.7768 26.1535 64.8583 24.7577 63.3356 24.1233C63.7163 21.2048 63.0818 18.9207 61.5591 17.398C59.2751 14.9871 55.7221 14.8602 53.9456 14.8602C52.5498 11.561 50.6464 9.65759 48.2355 9.27691C45.9514 8.89624 43.9211 10.1652 42.3984 11.3072V23.3619C43.4136 23.9964 45.6976 25.1384 47.8548 23.1081C48.3624 22.6006 49.1237 22.6006 49.6313 23.1081C50.1388 23.6157 50.1388 24.3771 49.6313 24.8846C48.1086 26.2804 46.5859 26.788 45.1901 26.788C44.1749 26.788 43.2867 26.5342 42.3984 26.2804V31.8637C44.8094 31.3561 49.3775 30.8486 51.5347 34.1477C51.9153 34.7822 51.7884 35.5436 51.154 35.9242C50.9002 36.0511 50.6464 36.178 50.3926 36.178C50.012 36.178 49.6313 35.9242 49.3775 35.6704C47.8548 33.5133 44.048 34.1477 42.3984 34.5284V48.6134C43.4136 49.121 45.5707 49.7555 47.4741 48.3596C47.9817 47.979 48.8699 48.1059 49.2506 48.6134C49.6313 49.121 49.5044 50.0092 48.9968 50.3899C47.0934 51.7857 44.6825 52.0395 42.3984 51.2782V58.1303C44.1749 58.7648 48.6161 59.9068 51.154 56.8614C51.5347 56.3538 52.4229 56.2269 52.9305 56.7345C53.438 57.1152 53.5649 58.0034 53.0574 58.511C50.5195 61.6833 46.3321 61.9371 42.3984 60.7951V72.2153C47.7279 75.1338 54.3263 71.7078 55.7221 70.9464C59.0213 70.312 61.4322 68.7892 63.0818 66.5052C64.8583 63.8405 64.8583 60.7951 64.7314 59.1455C66.8886 58.3841 68.4113 57.1152 69.0458 55.3387C70.0609 52.5471 68.6651 49.3748 67.9037 47.979C69.8071 45.3142 70.8222 42.9033 70.5685 40.4923ZM65.3659 34.7822C65.8735 34.4015 66.7617 34.5284 67.1424 35.036C67.5231 35.5436 67.3962 36.4318 66.8886 36.8125C66.7617 36.9394 64.097 38.8427 60.6709 38.9696C60.0364 38.9696 59.402 38.4621 59.402 37.7007C59.402 36.9394 59.9095 36.4318 60.6709 36.4318C63.2087 36.3049 65.3659 34.7822 65.3659 34.7822ZM60.6709 24.2502C61.0516 23.6157 61.8129 23.4888 62.4474 23.8695C63.0818 24.2502 63.2087 25.0115 62.828 25.646C62.7012 25.7729 59.6557 30.2141 54.4532 30.341C53.8187 30.341 53.1843 29.8334 53.1843 29.0721C53.1843 28.3107 53.6918 27.8031 54.4532 27.8031C58.2599 27.6763 60.6709 24.2502 60.6709 24.2502ZM51.5347 19.4283C50.9002 19.1745 50.6464 18.4131 50.9002 17.7787L51.7884 15.7484C52.0422 15.1139 52.8036 14.8602 53.438 15.1139C54.0725 15.3677 54.3263 16.1291 54.0725 16.7635L53.1843 18.7938C52.9305 19.4283 52.1691 19.6821 51.5347 19.4283ZM56.3566 70.0582C56.1028 70.6926 55.3414 70.9464 54.707 70.6926C54.0725 70.4388 53.8187 69.6775 54.0725 69.043C54.8338 67.2665 55.3414 65.2363 55.0876 64.7287C54.707 64.0942 54.9607 63.3329 55.4683 62.9522C56.1028 62.5715 56.8641 62.8253 57.2448 63.3329C58.2599 64.9825 57.1179 68.2817 56.3566 70.0582ZM63.5894 59.2724C62.9549 59.5261 62.1936 59.2724 61.9398 58.6379L60.0364 54.3236C59.7826 53.6891 60.0364 52.9278 60.6709 52.674C61.3053 52.4202 62.0667 52.674 62.3205 53.3084L64.2239 57.6228C64.6045 58.2572 64.2239 59.0186 63.5894 59.2724ZM66.5079 48.8672C66.381 48.8672 64.4776 49.5017 62.1936 49.5017C61.1784 49.5017 60.0364 49.3748 59.0213 48.9941C58.8944 50.0092 58.5137 51.0244 58.0062 52.1664C57.7524 52.8009 56.991 53.0546 56.3566 52.8009C55.7221 52.5471 55.4683 51.7857 55.7221 51.1513C56.8641 48.8672 56.991 46.9638 56.1028 45.4411C54.707 42.9033 50.5195 41.8881 48.9968 41.7613C48.3624 41.6344 47.8548 41.1268 47.8548 40.3654C47.9817 39.731 48.4892 39.2234 49.2506 39.2234C49.5044 39.2234 55.849 39.9848 58.2599 44.1722C58.6406 44.8067 58.8944 45.568 59.0213 46.3294C62.0667 47.5983 65.7466 46.4563 65.7466 46.4563C66.381 46.2025 67.1424 46.5832 67.3962 47.2176C67.523 47.979 67.2693 48.6134 66.5079 48.8672Z" fill="url(#paint5_linear_2003_2)"/>
<defs>
<linearGradient id="paint0_linear_2003_2" x1="10.6044" y1="23.1082" x2="10.6044" y2="0" gradientUnits="userSpaceOnUse">
<stop stop-color="#1D4EFF"/>
<stop offset="1" stop-color="#24B6FF"/>
</linearGradient>
<linearGradient id="paint1_linear_2003_2" x1="9.65183" y1="82" x2="9.65183" y2="60.1606" gradientUnits="userSpaceOnUse">
<stop stop-color="#1D4EFF"/>
<stop offset="1" stop-color="#24B6FF"/>
</linearGradient>
<linearGradient id="paint2_linear_2003_2" x1="71.8436" y1="23.1082" x2="71.8436" y2="0" gradientUnits="userSpaceOnUse">
<stop stop-color="#1D4EFF"/>
<stop offset="1" stop-color="#24B6FF"/>
</linearGradient>
<linearGradient id="paint3_linear_2003_2" x1="72.7968" y1="81.9983" x2="72.7968" y2="60.1606" gradientUnits="userSpaceOnUse">
<stop stop-color="#1D4EFF"/>
<stop offset="1" stop-color="#24B6FF"/>
</linearGradient>
<linearGradient id="paint4_linear_2003_2" x1="25.8815" y1="73.2305" x2="25.8815" y2="9.20801" gradientUnits="userSpaceOnUse">
<stop stop-color="#1D4EFF"/>
<stop offset="1" stop-color="#24B6FF"/>
</linearGradient>
<linearGradient id="paint5_linear_2003_2" x1="56.5027" y1="73.3734" x2="56.5027" y2="9.20801" gradientUnits="userSpaceOnUse">
<stop stop-color="#1D4EFF"/>
<stop offset="1" stop-color="#24B6FF"/>
</linearGradient>
</defs>
</svg>
