<svg width="164" height="40" viewBox="0 0 164 40" fill="none" xmlns="http://www.w3.org/2000/svg">
<g clip-path="url(#clip0_1_167)">
<g clip-path="url(#clip1_1_167)">
<g clip-path="url(#clip2_1_167)">
<mask id="mask0_1_167" style="mask-type:luminance" maskUnits="userSpaceOnUse" x="0" y="0" width="164" height="40">
<path d="M163.806 0H0.878906V40H163.806V0Z" fill="white"/>
</mask>
<g mask="url(#mask0_1_167)">
<path d="M48.3242 28.0911H59.9847V24.5789H52.4686V11.3496H48.3242V28.0911Z" fill="#060B13"/>
<path d="M66.8922 25.75C65.2298 25.75 64.3634 24.2983 64.3634 22.1208C64.3634 19.9432 65.2298 18.4681 66.8922 18.4681C68.5546 18.4681 69.4444 19.9432 69.4444 22.1208C69.4444 24.2983 68.5546 25.75 66.8922 25.75ZM66.9156 28.4661C70.779 28.4661 73.3078 25.7266 73.3078 22.1208C73.3078 18.5149 70.779 15.7754 66.9156 15.7754C63.0756 15.7754 60.5 18.5149 60.5 22.1208C60.5 25.7266 63.0756 28.4661 66.9156 28.4661Z" fill="#060B13"/>
<path d="M79.994 32.2359C81.7735 32.2359 83.3423 31.8378 84.396 30.9012C85.356 30.0349 85.9882 28.7237 85.9882 26.9207V16.1032H82.3355V17.391H82.2887C81.5862 16.3841 80.5092 15.752 78.917 15.752C75.9433 15.752 73.8828 18.2339 73.8828 21.7461C73.8828 25.4222 76.3882 27.4359 79.0809 27.4359C80.5326 27.4359 81.4457 26.8505 82.1482 26.0544H82.2418V27.2485C82.2418 28.7002 81.5628 29.5432 79.9472 29.5432C78.6828 29.5432 78.0506 29.0046 77.8399 28.3724H74.1404C74.515 30.8778 76.6926 32.2359 79.994 32.2359ZM79.9706 24.6027C78.5423 24.6027 77.6057 23.432 77.6057 21.629C77.6057 19.8027 78.5423 18.632 79.9706 18.632C81.5628 18.632 82.4057 19.99 82.4057 21.6056C82.4057 23.2915 81.6331 24.6027 79.9706 24.6027Z" fill="#060B13"/>
<path d="M93.5016 25.75C91.8391 25.75 90.9728 24.2983 90.9728 22.1208C90.9728 19.9432 91.8391 18.4681 93.5016 18.4681C95.164 18.4681 96.0538 19.9432 96.0538 22.1208C96.0538 24.2983 95.164 25.75 93.5016 25.75ZM93.525 28.4661C97.3884 28.4661 99.9175 25.7266 99.9175 22.1208C99.9175 18.5149 97.3884 15.7754 93.525 15.7754C89.685 15.7754 87.1094 18.5149 87.1094 22.1208C87.1094 25.7266 89.685 28.4661 93.525 28.4661Z" fill="#060B13"/>
<path d="M101.031 28.0911H104.848V16.1028H101.031V28.0911ZM101.031 14.4403H104.848V11.3496H101.031V14.4403Z" fill="#060B13"/>
<path d="M106.504 32.0485H110.32V26.8505H110.367C111.117 27.8573 112.217 28.4661 113.762 28.4661C116.9 28.4661 118.984 25.9841 118.984 22.0973C118.984 18.4915 117.04 15.752 113.856 15.752C112.217 15.752 111.046 16.4778 110.227 17.5549H110.157V16.1032H106.504V32.0485ZM112.779 25.5159C111.14 25.5159 110.203 24.1812 110.203 22.2378C110.203 20.2944 111.046 18.8193 112.709 18.8193C114.348 18.8193 115.12 20.1773 115.12 22.2378C115.12 24.2749 114.231 25.5159 112.779 25.5159Z" fill="#060B13"/>
<path d="M125.197 28.4661C128.335 28.4661 130.653 27.1081 130.653 24.4856C130.653 21.4183 128.171 20.8798 126.064 20.5285C124.542 20.2476 123.184 20.1305 123.184 19.2876C123.184 18.5383 123.91 18.1871 124.846 18.1871C125.9 18.1871 126.626 18.5149 126.766 19.592H130.278C130.091 17.2271 128.265 15.752 124.87 15.752C122.036 15.752 119.695 17.0632 119.695 19.592C119.695 22.4017 121.919 22.9637 124.003 23.3149C125.595 23.5959 127.047 23.7129 127.047 24.79C127.047 25.5627 126.321 25.9841 125.174 25.9841C123.91 25.9841 123.114 25.3988 122.973 24.2046H119.367C119.484 26.8505 121.685 28.4661 125.197 28.4661Z" fill="#060B13"/>
<path d="M135.836 28.4411C137.498 28.4411 138.552 27.7855 139.418 26.6147H139.488V28.0899H143.141V16.1016H139.325V22.7981C139.325 24.2264 138.528 25.2099 137.217 25.2099C136 25.2099 135.414 24.484 135.414 23.1728V16.1016H131.621V23.9689C131.621 26.6381 133.073 28.4411 135.836 28.4411Z" fill="#060B13"/>
<path d="M144.801 28.0915H148.617V21.3715C148.617 19.9432 149.32 18.9363 150.514 18.9363C151.661 18.9363 152.2 19.6856 152.2 20.9734V28.0915H156.016V21.3715C156.016 19.9432 156.695 18.9363 157.913 18.9363C159.06 18.9363 159.599 19.6856 159.599 20.9734V28.0915H163.415V20.2944C163.415 17.6017 162.057 15.752 159.341 15.752C157.796 15.752 156.508 16.4076 155.572 17.8593H155.525C154.916 16.5715 153.722 15.752 152.153 15.752C150.42 15.752 149.273 16.5715 148.524 17.8124H148.453V16.1032H144.801V28.0915Z" fill="#060B13"/>
<path fill-rule="evenodd" clip-rule="evenodd" d="M9.32069 3.79527C7.92492 4.77123 6.66278 5.92513 5.56712 7.22408C10.0445 6.8084 15.7328 7.48715 22.3369 10.7892C29.3892 14.3153 35.068 14.4345 39.0202 13.6722C38.6616 12.5864 38.2101 11.5429 37.6754 10.5509C33.1512 11.0281 27.3512 10.3964 20.5917 7.01684C16.2995 4.87069 12.5158 3.98662 9.32069 3.79527ZM35.0325 6.7892C31.4597 2.79735 26.2676 0.285156 20.4887 0.285156C18.7916 0.285156 17.145 0.501846 15.5753 0.909039C17.7013 1.48914 19.9598 2.33782 22.3369 3.52639C27.2858 6.00079 31.5584 6.7975 35.0325 6.7892ZM39.8652 17.4833C35.0906 18.4261 28.4973 18.2324 20.5917 14.2797C13.2009 10.5843 7.31845 10.6308 3.3511 11.5125C3.14632 11.5579 2.94636 11.6057 2.75123 11.6555C2.2318 12.7851 1.81718 13.973 1.51969 15.2066C1.83743 15.1217 2.16576 15.041 2.50452 14.9657C7.31761 13.8962 14.1181 13.9426 22.3369 18.0521C29.7278 21.7475 35.6103 21.7009 39.5777 20.8193C39.7136 20.7891 39.8475 20.7579 39.9793 20.7257C39.9937 20.4181 40.0009 20.1085 40.0009 19.7973C40.0009 19.0144 39.9549 18.2422 39.8652 17.4833ZM39.3422 24.8435C34.6139 25.6701 28.2126 25.3528 20.5917 21.5425C13.2009 17.8471 7.31845 17.8936 3.3511 18.7753C2.47047 18.9709 1.67826 19.2092 0.979421 19.4608C0.977516 19.5727 0.976562 19.6849 0.976562 19.7973C0.976562 30.5736 9.71246 39.3095 20.4887 39.3095C29.52 39.3095 37.1183 33.1738 39.3422 24.8435Z" fill="#060B13"/>
</g>
</g>
</g>
</g>
<defs>
<clipPath id="clip0_1_167">
<rect width="164" height="40" fill="white"/>
</clipPath>
<clipPath id="clip1_1_167">
<rect width="164" height="40" fill="white"/>
</clipPath>
<clipPath id="clip2_1_167">
<rect width="164" height="40" fill="white"/>
</clipPath>
</defs>
</svg>
