<svg width="44" height="44" viewBox="0 0 44 44" fill="none" xmlns="http://www.w3.org/2000/svg">
<rect width="44" height="44" rx="22" fill="white"/>
<rect x="0.5" y="0.5" width="43" height="43" rx="21.5" stroke="#9F6EFD" stroke-opacity="0.1"/>
<path d="M25.5203 25.5664L21.9686 27.2449C21.8946 27.2803 21.8144 27.2972 21.7347 27.2972C21.6544 27.2972 21.5747 27.28 21.5005 27.2449L17.9499 25.567L13 27.9049L21.735 32.0327L30.4688 27.9049L25.5203 25.5664Z" fill="url(#paint0_linear_85_8716)"/>
<path d="M30.4688 22.0163L25.5173 19.6772L21.9686 21.3536C21.8946 21.3889 21.8144 21.4059 21.7347 21.4059C21.6544 21.4059 21.5747 21.3886 21.5005 21.3536L17.952 19.6772L13 22.0163L21.735 26.144L30.4688 22.0163Z" fill="url(#paint1_linear_85_8716)"/>
<path d="M30.4688 16.1261L21.735 12L13 16.1261L21.735 20.253L30.4688 16.1261Z" fill="url(#paint2_linear_85_8716)"/>
<defs>
<linearGradient id="paint0_linear_85_8716" x1="21.7344" y1="32.0327" x2="21.7344" y2="25.5664" gradientUnits="userSpaceOnUse">
<stop stop-color="#1D4EFF"/>
<stop offset="1" stop-color="#24B6FF"/>
</linearGradient>
<linearGradient id="paint1_linear_85_8716" x1="21.7344" y1="26.144" x2="21.7344" y2="19.6772" gradientUnits="userSpaceOnUse">
<stop stop-color="#1D4EFF"/>
<stop offset="1" stop-color="#24B6FF"/>
</linearGradient>
<linearGradient id="paint2_linear_85_8716" x1="21.7344" y1="20.253" x2="21.7344" y2="12" gradientUnits="userSpaceOnUse">
<stop stop-color="#1D4EFF"/>
<stop offset="1" stop-color="#24B6FF"/>
</linearGradient>
</defs>
</svg>
