<svg width="44" height="44" viewBox="0 0 44 44" fill="none" xmlns="http://www.w3.org/2000/svg">
<rect width="44" height="44" rx="22" fill="white"/>
<rect x="0.5" y="0.5" width="43" height="43" rx="21.5" stroke="#9F6EFD" stroke-opacity="0.1"/>
<path fill-rule="evenodd" clip-rule="evenodd" d="M25.2171 14.2527C25.2257 14.2444 25.2343 14.2361 25.2441 14.229C25.1656 14.0948 25.1214 13.9403 25.1214 13.7764C25.1214 13.2633 25.551 12.8487 26.0799 12.8487C26.6101 12.8487 27.0384 13.2645 27.0384 13.7764C27.0384 14.2896 26.6088 14.7041 26.0799 14.7041C25.983 14.7041 25.8897 14.6899 25.8013 14.6637C25.7854 14.6922 25.7645 14.7207 25.74 14.7445L24.1335 16.3421C24.0623 16.4134 23.9666 16.449 23.8709 16.449V16.4502H22.1994V19.7191L23.5604 19.7203L25.319 17.8459C25.3914 17.7687 25.4908 17.7295 25.5902 17.7295H28.7725C28.7934 17.7295 28.813 17.7306 28.8326 17.7342C28.9824 17.3114 29.3972 17.0073 29.8856 17.0073C30.5005 17.0073 30.9987 17.4895 30.9987 18.0846C30.9987 18.6797 30.5005 19.1632 29.8856 19.1632C29.3972 19.1632 28.9824 18.8591 28.8326 18.4362C28.813 18.4398 28.7934 18.441 28.7725 18.441H25.7523L23.9948 20.313C23.9273 20.3831 23.8316 20.4282 23.7236 20.4282L22.2006 20.4258V21.7075H25.5362C25.557 21.7075 25.5767 21.7086 25.5963 21.7122C25.746 21.2894 26.1608 20.9853 26.6493 20.9853C27.2641 20.9853 27.7624 21.4675 27.7624 22.0626C27.7624 22.6578 27.2642 23.14 26.6493 23.14C26.1608 23.14 25.746 22.8359 25.5963 22.4131C25.5767 22.4166 25.557 22.4178 25.5362 22.4178L22.2018 22.4202V23.5736L23.7249 23.5724C23.8316 23.5724 23.9286 23.6175 23.9949 23.6876L25.7523 25.5596H28.7738C28.7946 25.5596 28.8143 25.5608 28.8339 25.5643C28.9836 25.1415 29.3984 24.8374 29.8869 24.8374C30.5017 24.8374 31 25.3196 31 25.9148C31 26.5098 30.5018 26.9933 29.8869 26.9933C29.3984 26.9933 28.9836 26.6892 28.8339 26.2664C28.8143 26.2699 28.7946 26.2711 28.7738 26.2711L25.5915 26.2699C25.4921 26.2687 25.3927 26.2295 25.3203 26.1535L23.5616 24.2803L22.2006 24.2815V27.5504H23.8721V27.5516C23.9678 27.5516 24.0623 27.5872 24.1348 27.6585L25.7412 29.2561C25.7658 29.281 25.7866 29.3083 25.8026 29.3368C25.8909 29.3107 25.9842 29.2965 26.0812 29.2965C26.6113 29.2965 27.0396 29.7122 27.0396 30.2242C27.0396 30.7373 26.6101 31.1518 26.0812 31.1518C25.551 31.1518 25.1227 30.7361 25.1227 30.2242C25.1227 30.0602 25.1669 29.9058 25.2442 29.7728C25.2356 29.7656 25.2258 29.7573 25.2172 29.749L23.72 28.2595H22.2019V30.2337C21.9957 30.7777 21.6201 31.229 21.1464 31.5379C20.6568 31.8586 20.0616 32.0273 19.4418 31.9964C18.8208 31.9643 18.2477 31.7363 17.796 31.3692C17.3444 31.0022 17.0131 30.495 16.8732 29.9082C16.775 29.496 16.7811 29.0791 16.8781 28.6848C16.9762 28.2833 17.1677 27.9067 17.4402 27.5884C17.5678 27.4376 17.5457 27.2142 17.3898 27.0907C17.234 26.9672 17.0032 26.9886 16.8756 27.1394C16.532 27.5433 16.289 28.0184 16.1651 28.5244C16.1552 28.566 16.1454 28.6087 16.1368 28.6503C15.8337 28.5909 15.5478 28.4745 15.2949 28.313C14.9501 28.092 14.6641 27.7844 14.4727 27.4138C14.2812 27.042 14.2002 26.6358 14.2248 26.2367C14.2432 25.9373 14.323 25.6428 14.4604 25.3672C14.5095 25.3886 14.5586 25.4076 14.6089 25.4266C14.8912 25.5311 15.1833 25.6024 15.4766 25.6368C15.6778 25.6594 15.8595 25.5204 15.884 25.3256C15.9073 25.1308 15.7638 24.955 15.5625 24.9313C15.322 24.9028 15.0888 24.8469 14.8679 24.765C14.7427 24.7186 14.62 24.6628 14.5022 24.5987L14.4813 24.5868C14.3991 24.5417 14.3181 24.4918 14.2383 24.4383C13.8063 24.1437 13.4725 23.7482 13.2614 23.2992C13.0503 22.8502 12.9607 22.3478 13.016 21.8382C13.07 21.3298 13.2651 20.8558 13.5682 20.4579C13.81 20.1396 14.1217 19.87 14.4862 19.6716C14.6887 19.9567 14.9341 20.2156 15.2152 20.4389C15.371 20.5625 15.6018 20.5411 15.7294 20.3902C15.857 20.2394 15.8349 20.0161 15.6791 19.8925C15.3821 19.6573 15.1354 19.3711 14.9476 19.0528C14.9427 19.0421 14.9366 19.0326 14.9305 19.0219C14.8642 18.9055 14.8053 18.7843 14.7537 18.6596C14.5635 18.1904 14.4936 17.6725 14.5684 17.1475C14.6629 16.4799 14.9832 15.8813 15.4533 15.4275C15.9221 14.9738 16.5406 14.6638 17.2303 14.5723C17.4573 14.5414 17.6831 14.5367 17.904 14.5533C17.9139 14.5545 17.9237 14.5557 17.9335 14.5557C18.0268 14.564 18.1188 14.5759 18.2108 14.5913C18.5348 14.6483 18.8465 14.7541 19.135 14.9049C19.3129 14.9975 19.535 14.9334 19.6308 14.76C19.7265 14.5877 19.6602 14.3728 19.4823 14.2801C19.1288 14.096 18.7434 13.9641 18.3409 13.8941L18.2967 13.8869C18.3004 13.4653 18.4477 13.0685 18.6993 12.749C19.0036 12.3618 19.4602 12.0874 19.9977 12.0173C20.5352 11.9473 21.0519 12.0934 21.4507 12.3867C21.8435 12.6742 22.1233 13.1054 22.2043 13.6125V15.7399H23.7223L25.2171 14.2527Z" fill="url(#paint0_linear_85_8692)"/>
<defs>
<linearGradient id="paint0_linear_85_8692" x1="22" y1="32" x2="22" y2="12" gradientUnits="userSpaceOnUse">
<stop stop-color="#1D4EFF"/>
<stop offset="1" stop-color="#24B6FF"/>
</linearGradient>
</defs>
</svg>
