<svg width="68" height="82" viewBox="0 0 68 82" fill="none" xmlns="http://www.w3.org/2000/svg">
<path d="M64.9536 2.72614C63.2267 0.992288 60.8313 0 58.3837 0H9.29255C6.84494 0 4.44956 0.992288 2.72266 2.72266C0.992288 4.44956 0 6.84494 0 9.29255V22.9304C0 25.378 0.992288 27.7734 2.72266 29.4968C4.44956 31.2272 6.84494 32.2194 9.29255 32.2194H29.1062L32.7759 36.8918C32.9395 37.1007 33.1902 37.2261 33.4583 37.233H33.4757C33.7368 37.233 33.984 37.1181 34.1511 36.9197L38.1829 32.2195H58.3798C60.8274 32.2195 63.2228 31.2272 64.9497 29.4968C66.68 27.7699 67.6723 25.3746 67.6723 22.9269L67.6758 9.29268C67.6758 6.84507 66.684 4.44956 64.9536 2.72614ZM24.7157 14.4245L22.1776 16.9627V20.514C22.1776 20.8134 22.0279 21.0919 21.7772 21.259C21.631 21.3565 21.4569 21.4053 21.2863 21.4053C21.1679 21.4053 21.046 21.3809 20.9346 21.3322L17.3625 19.8037L13.7903 21.3322C13.5153 21.454 13.1984 21.4227 12.9477 21.2556C12.6971 21.0884 12.5474 20.8099 12.5474 20.5105L12.5508 16.9626L10.0127 14.4245C9.78636 14.1982 9.69933 13.8639 9.78289 13.5576C9.86993 13.2477 10.1136 13.0074 10.427 12.9308L14.5946 11.8863L16.6453 9.06963C16.6731 9.03134 16.7114 9.01045 16.7462 8.97563C16.781 8.94081 16.8019 8.89903 16.8402 8.87118C16.8507 8.86421 16.8646 8.86073 16.875 8.85377C16.9273 8.81895 16.983 8.80154 17.0422 8.77717C17.0944 8.75628 17.1431 8.73191 17.1988 8.72147C17.2511 8.71102 17.3033 8.7145 17.3555 8.7145C17.4182 8.7145 17.4774 8.70754 17.5366 8.72147C17.5853 8.73191 17.6306 8.75628 17.6793 8.77369C17.7385 8.79806 17.8012 8.81895 17.8534 8.85377C17.8638 8.86073 17.8778 8.86073 17.8882 8.87118C17.93 8.89903 17.9509 8.94081 17.9822 8.97563C18.0136 9.00696 18.0553 9.03133 18.0832 9.06963L20.1339 11.8863L24.3015 12.9308C24.6113 13.0074 24.8585 13.2477 24.9456 13.5576C25.0291 13.8639 24.942 14.1982 24.7157 14.4245ZM41.187 14.4245L38.6489 16.9627V20.514C38.6489 20.8134 38.4991 21.0919 38.2485 21.259C38.1022 21.3565 37.9282 21.4053 37.7576 21.4053C37.6392 21.4053 37.5173 21.3809 37.4059 21.3322L33.8372 19.8037L30.2651 21.3322C29.99 21.454 29.6732 21.4227 29.4225 21.2556C29.1718 21.0884 29.0221 20.8099 29.0221 20.5105L29.0256 16.9626L26.4874 14.4245C26.2611 14.1982 26.1741 13.8639 26.2576 13.5576C26.3447 13.2477 26.5884 13.0074 26.9018 12.9308L31.0658 11.8863L33.1165 9.06963C33.1444 9.03134 33.1827 9.01045 33.2175 8.97563C33.2523 8.94081 33.2732 8.89903 33.3115 8.87118C33.322 8.86421 33.3359 8.86073 33.3463 8.85377C33.3986 8.81895 33.4543 8.80154 33.5135 8.77717C33.5657 8.75628 33.6144 8.73191 33.6701 8.72147C33.7223 8.71102 33.7746 8.7145 33.8268 8.7145C33.8895 8.7145 33.9487 8.70754 34.0078 8.72147C34.0566 8.73191 34.1018 8.75628 34.1506 8.77369C34.2098 8.79806 34.2724 8.81895 34.3247 8.85377C34.3351 8.86073 34.349 8.86073 34.3595 8.87118C34.4013 8.89903 34.4222 8.94081 34.4535 8.97563C34.4848 9.00696 34.5266 9.03133 34.5545 9.06963L36.6052 11.8863L40.7692 12.9308C41.0791 13.0074 41.3263 13.2477 41.4134 13.5576C41.5039 13.8639 41.4168 14.1982 41.187 14.4245ZM57.6619 14.4245L55.1237 16.9627V20.514C55.1237 20.8134 54.974 21.0919 54.7233 21.259C54.4726 21.4262 54.1558 21.454 53.8808 21.3356L50.3086 19.8072L46.7364 21.3356C46.625 21.3844 46.5032 21.4088 46.3848 21.4088C46.2142 21.4088 46.0401 21.36 45.8939 21.2625C45.6432 21.0954 45.4935 20.8169 45.4935 20.5175L45.497 16.9627L42.9588 14.4245C42.7325 14.1982 42.6455 13.864 42.729 13.5576C42.8161 13.2477 43.0598 13.0075 43.3731 12.9309L47.5407 11.8863L49.5914 9.06965C49.6192 9.03135 49.6575 9.01046 49.6889 8.97913C49.7237 8.94431 49.7446 8.90253 49.7864 8.87468C49.7968 8.86771 49.8107 8.86423 49.8212 8.85727C49.8734 8.82245 49.9256 8.80504 49.9813 8.78415C50.0336 8.76326 50.0858 8.73541 50.1415 8.72497C50.1937 8.71452 50.2425 8.72149 50.2947 8.718C50.3574 8.718 50.42 8.71104 50.4792 8.72497C50.528 8.73541 50.5732 8.7563 50.6185 8.77719C50.6812 8.80156 50.7403 8.82245 50.7961 8.85727C50.8065 8.86423 50.8204 8.86423 50.8309 8.87468C50.8692 8.90253 50.8935 8.94431 50.9249 8.97913C50.9562 9.01046 50.998 9.03484 51.0258 9.07314L53.0766 11.8898L57.2441 12.9343C57.554 13.0109 57.8012 13.2512 57.8882 13.561C57.9753 13.8639 57.8882 14.1982 57.6619 14.4245Z" fill="url(#paint0_linear_294_109726)"/>
<path d="M33.838 60.8804C26.631 60.8804 20.7715 66.74 20.7715 73.9469V81.1087C20.7715 81.6031 21.1719 82 21.6628 82H46.0132C46.5041 82 46.9045 81.6031 46.9045 81.1087V73.9469C46.9045 66.7399 41.0449 60.8804 33.838 60.8804Z" fill="url(#paint1_linear_294_109726)"/>
<path d="M42.2501 49.9552C42.2501 54.5997 38.4829 58.3669 33.8384 58.3669C29.1939 58.3669 25.4268 54.5997 25.4268 49.9552C25.4268 45.3072 29.1939 41.54 33.8384 41.54C38.4829 41.54 42.2501 45.3072 42.2501 49.9552Z" fill="url(#paint2_linear_294_109726)"/>
<defs>
<linearGradient id="paint0_linear_294_109726" x1="33.8379" y1="37.233" x2="33.8379" y2="0" gradientUnits="userSpaceOnUse">
<stop stop-color="#1D4EFF"/>
<stop offset="1" stop-color="#24B6FF"/>
</linearGradient>
<linearGradient id="paint1_linear_294_109726" x1="33.838" y1="82" x2="33.838" y2="60.8804" gradientUnits="userSpaceOnUse">
<stop stop-color="#1D4EFF"/>
<stop offset="1" stop-color="#24B6FF"/>
</linearGradient>
<linearGradient id="paint2_linear_294_109726" x1="33.8384" y1="58.3669" x2="33.8384" y2="41.54" gradientUnits="userSpaceOnUse">
<stop stop-color="#1D4EFF"/>
<stop offset="1" stop-color="#24B6FF"/>
</linearGradient>
</defs>
</svg>
