<svg width="44" height="44" viewBox="0 0 44 44" fill="none" xmlns="http://www.w3.org/2000/svg">
<rect width="44" height="44" rx="22" fill="white"/>
<rect x="0.5" y="0.5" width="43" height="43" rx="21.5" stroke="#9F6EFD" stroke-opacity="0.1"/>
<path fill-rule="evenodd" clip-rule="evenodd" d="M29.9998 17.4532V29.1378C29.9998 30.7129 28.6614 32 27.0247 32H17.3527V20.129C17.3527 19.8526 17.1194 19.629 16.8322 19.629C16.5461 19.629 16.3127 19.8526 16.3127 20.129L16.3137 31.9543C15.0017 31.7179 14.0002 30.6027 14.0002 29.2745V14.7275C13.9809 13.2334 15.295 12 16.8332 12H30C28.4414 12 27.166 13.2275 27.166 14.7255C27.166 15.8944 27.9402 16.8984 29.0208 17.284C29.3263 17.3944 29.656 17.4529 30 17.4529L29.9998 17.4532ZM14.9996 14.718L14.9955 15.677C14.9935 16.6506 15.8215 17.4534 16.8331 17.4534H27.4296C26.6462 16.7688 26.1713 15.7854 26.1713 14.7258C26.1713 14.0872 26.3418 13.4837 26.6422 12.9573L16.833 12.9583C15.8214 12.9583 14.9955 13.7444 14.9996 14.718ZM18.3946 18.4122H20.1267V20.2414L19.2166 19.8253L18.3957 20.2414L18.3946 18.4122Z" fill="url(#paint0_linear_85_8700)"/>
<defs>
<linearGradient id="paint0_linear_85_8700" x1="22" y1="32" x2="22" y2="12" gradientUnits="userSpaceOnUse">
<stop stop-color="#1D4EFF"/>
<stop offset="1" stop-color="#24B6FF"/>
</linearGradient>
</defs>
</svg>
