<svg width="48" height="48" viewBox="0 0 48 48" fill="none" xmlns="http://www.w3.org/2000/svg">
<g clip-path="url(#clip0_85_8518)">
<g clip-path="url(#clip1_85_8518)">
<g clip-path="url(#clip2_85_8518)">
<path d="M48 24C48 10.7452 37.2548 0 24 0C10.7452 0 0 10.7452 0 24C0 37.2548 10.7452 48 24 48C37.2548 48 48 37.2548 48 24Z" fill="url(#paint0_linear_85_8518)"/>
<path d="M23.7605 12.5713C21.6805 12.5713 20.0005 14.2309 20.0005 16.2856C20.0005 18.3245 21.6805 19.984 23.7445 19.9999C23.2325 19.984 22.8325 19.5731 22.8325 19.0673C22.8325 18.5616 23.2485 18.1348 23.7765 18.1348C26.0165 18.1348 30.9925 18.1348 33.1845 18.1348C34.7365 18.1348 36.0005 16.8862 36.0005 15.3531C36.0005 13.8199 34.7365 12.5713 33.1845 12.5713H23.7605Z" fill="white"/>
<path opacity="0.9" d="M19.1887 20C17.1087 20 15.4287 21.6596 15.4287 23.7143C15.4287 25.7532 17.1087 27.4128 19.1727 27.4286C18.6607 27.4128 18.2607 27.0018 18.2607 26.496C18.2607 25.9903 18.6767 25.5635 19.2047 25.5635C21.4447 25.5635 26.4207 25.5635 28.6127 25.5635C30.1647 25.5635 31.4287 24.3149 31.4287 22.7818C31.4287 21.2486 30.1647 20 28.6127 20H19.1887Z" fill="white"/>
<path opacity="0.75" d="M16.0286 27.4282C13.8 27.4282 12 29.2155 12 31.4282C12 33.624 13.8 35.4112 16.0114 35.4282C15.4629 35.4112 15.0343 34.9687 15.0343 34.424C15.0343 33.8793 15.48 33.4197 16.0457 33.4197C18.4457 33.4197 23.7772 33.4197 26.1257 33.4197C27.7886 33.4197 29.1429 32.075 29.1429 30.424C29.1429 28.7729 27.7886 27.4282 26.1257 27.4282H16.0286Z" fill="white"/>
</g>
</g>
</g>
<defs>
<linearGradient id="paint0_linear_85_8518" x1="24" y1="48" x2="24" y2="0" gradientUnits="userSpaceOnUse">
<stop stop-color="#1D4EFF"/>
<stop offset="1" stop-color="#24B6FF"/>
</linearGradient>
<clipPath id="clip0_85_8518">
<rect width="48" height="48" fill="white"/>
</clipPath>
<clipPath id="clip1_85_8518">
<rect width="48" height="48" fill="white"/>
</clipPath>
<clipPath id="clip2_85_8518">
<rect width="48" height="48" fill="white"/>
</clipPath>
</defs>
</svg>
