<svg width="78" height="82" viewBox="0 0 78 82" fill="none" xmlns="http://www.w3.org/2000/svg">
<path fill-rule="evenodd" clip-rule="evenodd" d="M14.6124 66.5424L18.1629 62.5121C20.3446 59.9879 16.5766 56.7516 14.4127 59.1654L10.855 63.2028C8.67333 65.6629 12.3986 68.9811 14.6159 66.5388L14.6124 66.5424ZM20.088 71.363C19.6495 71.865 19.0256 72.1712 18.3626 72.2103C17.3537 72.2709 16.4055 71.7226 15.9564 70.8183C15.5072 69.914 15.6427 68.8317 16.2986 68.0627L19.8563 64.0324L19.8598 64.036C20.776 62.9964 22.3624 62.8967 23.4033 63.8117C24.4442 64.7267 24.5441 66.3146 23.6279 67.3542L20.088 71.363ZM21.8668 72.8761L25.3818 68.8922C27.5528 66.4321 31.3244 69.7217 29.1784 72.1926L25.61 76.2299H25.6064C24.6796 77.2624 23.0896 77.3479 22.0594 76.4222C21.0256 75.4965 20.9399 73.9086 21.8668 72.8761ZM27.3425 77.743C25.1501 80.1676 28.9573 83.5213 31.1105 81.079L34.6504 77.0702C35.5452 76.0235 35.4311 74.4569 34.4008 73.549C33.3706 72.6412 31.7985 72.7266 30.8752 73.7413L27.3353 77.7501L27.3425 77.743ZM27.9627 34.9058C26.7578 35.8066 25.8345 37.0349 25.3069 38.4412L21.8953 46.7793C20.6083 49.7414 20.6083 51.9559 21.2928 53.259C23.5031 57.4708 31.5596 53.8714 33.4131 50.5247C33.8409 49.7486 35.5592 46.3129 36.0974 45.9676C36.6357 45.6222 41.2522 45.4941 42.2112 45.4407H42.2076C43.8617 45.3125 45.4944 45.8715 46.7171 46.9929L59.9855 58.6957C61.0834 59.7709 61.1511 61.5154 60.1387 62.6725C59.1263 63.8296 57.3831 63.9969 56.171 63.0499L48.9344 56.6699C48.4567 56.2498 47.7294 56.2961 47.3088 56.7696C46.8882 57.2467 46.9345 57.9729 47.4086 58.393L57.4473 67.2331C58.6522 68.2977 58.7663 70.1312 57.7039 71.3346C56.6416 72.5379 54.8021 72.6519 53.5972 71.5909L43.5586 62.7508C43.0774 62.3769 42.3894 62.441 41.99 62.9003C41.5872 63.356 41.6121 64.0467 42.0435 64.474L50.5385 71.9648C51.6829 73.0329 51.7685 74.813 50.7382 75.9915C49.7044 77.1664 47.9255 77.3124 46.7171 76.3226L38.2042 68.8211H38.2007C37.7265 68.401 36.9993 68.4437 36.5787 68.9208C36.158 69.3979 36.2008 70.1242 36.6785 70.5442L43.9258 76.9242C46.7278 79.4663 42.9027 83.7422 40.0651 81.2429L36.6428 78.2273C37.78 76.6644 37.8763 74.5745 36.8817 72.9154C35.8871 71.2599 33.9941 70.3556 32.0798 70.6262C32.0976 69.2234 31.5059 67.8777 30.4543 66.9484C29.4027 66.0192 27.9946 65.5955 26.6042 65.7842C26.6256 64.3814 26.0303 63.0393 24.9787 62.1101C23.9235 61.1844 22.5189 60.7607 21.1286 60.9566C21.1357 59.0625 20.0342 57.3357 18.3088 56.549C16.5835 55.7657 14.5586 56.0612 13.1326 57.3109L9.20772 53.8467L26.2195 34.5035L27.9806 34.8488L27.9627 34.9058ZM30.2336 33.0296L31.1462 33.2218C31.6203 33.1578 36.8677 29.9784 39.0851 29.5049C40.9103 29.1204 47.1702 29.6402 49.4057 29.7506L49.4093 29.747C50.6177 26.0836 49.8121 22.0569 47.2918 19.1335C44.7714 16.2141 40.9035 14.8255 37.0962 15.4771C33.2889 16.1286 30.1019 18.724 28.7009 22.3163C27.2964 25.9122 27.8846 29.9744 30.2445 33.0293L30.2336 33.0296ZM24.8578 32.6202C25.1145 32.2748 25.9058 31.7087 25.4068 31.2352L20.0239 26.4965V26.493C19.9205 26.4004 19.7815 26.3541 19.6424 26.3612C19.5034 26.3719 19.3751 26.436 19.2824 26.5393L0 48.4135V49.1149C1.82521 50.7099 3.58626 52.3049 5.39367 53.8715C5.91413 54.2987 6.30627 53.5154 6.72689 53.1416C12.7764 46.37 18.8545 39.4702 24.8147 32.6454L24.8578 32.6202ZM65.2761 25.1009L64.9873 24.5704C64.2387 23.2175 62.5347 22.7191 61.1729 23.4595L54.9416 27.1871H54.938C53.9826 27.7496 53.4514 28.8213 53.5798 29.9214L51.7546 29.8288C52.8454 25.941 52.1075 21.7683 49.7476 18.4925C47.3877 15.2134 43.6659 13.1806 39.6304 12.9741C35.5914 12.764 31.6808 14.4017 28.9931 17.4173C26.3088 20.4364 25.1431 24.5093 25.8275 28.4893L21.539 24.7154C20.3661 23.6901 18.5873 23.8005 17.5499 24.9611L12.8229 30.3193L12.6055 30.2552L12.6019 22.2624L16.3985 21.0305V21.0341C16.7657 20.9131 17.0509 20.6211 17.1578 20.2508C19.2396 12.6959 20.8082 17.0502 17.4965 10.4885L23.1468 4.83841L26.7045 6.66126C27.0431 6.84284 27.4495 6.84284 27.7882 6.66126C34.6042 2.79836 32.6506 6.99949 34.925 0H42.9281L44.1615 3.79172V3.78816C44.2827 4.15487 44.5751 4.43969 44.9458 4.5465C52.5105 6.62565 48.1506 8.19221 54.7207 4.87405L60.3781 10.5242L58.5529 14.0773C58.3711 14.4191 58.3711 14.8249 58.5529 15.1632C62.4208 21.9811 58.2143 20.03 65.2228 22.2979V25.0785L65.2761 25.1009ZM60.9697 56.5242L67.7857 54.1459L54.6816 32.2716L41.1669 31.588C40.0796 31.524 38.9924 31.7554 38.0298 32.2645L29.8164 36.4193C28.6757 37.0566 27.8094 38.0926 27.3887 39.3281L23.9487 47.7588C22.651 51.1303 22.4051 53.4374 25.8273 52.8073C28.0376 52.3978 30.5543 50.8918 31.3671 49.4428L33.6023 45.3877C34.1976 44.3054 35.3169 43.6147 36.5504 43.5648L42.026 43.2266C44.2862 43.0522 46.5178 43.8176 48.1932 45.3414L60.9697 56.5775V56.5242ZM65.4614 29.8649C64.7591 28.8823 63.1514 25.5641 62.6309 25.4359C62.5025 25.3861 62.3599 25.3861 62.2316 25.4359L56.1 29.0816C55.5082 29.427 56.1 30.1034 56.3389 30.5128L70.4806 54.1635C70.8656 54.8186 71.0295 55.3384 71.6926 54.9824L77.7421 51.3366L77.7457 51.3402C77.9917 51.1907 78.0737 50.8703 77.9275 50.6175L65.4614 29.8649Z" fill="url(#paint0_linear_294_109732)"/>
<defs>
<linearGradient id="paint0_linear_294_109732" x1="39" y1="82" x2="39" y2="0" gradientUnits="userSpaceOnUse">
<stop stop-color="#1D4EFF"/>
<stop offset="1" stop-color="#24B6FF"/>
</linearGradient>
</defs>
</svg>
