<svg width="44" height="44" viewBox="0 0 44 44" fill="none" xmlns="http://www.w3.org/2000/svg">
<rect width="44" height="44" rx="22" fill="white"/>
<rect x="0.5" y="0.5" width="43" height="43" rx="21.5" stroke="#9F6EFD" stroke-opacity="0.1"/>
<path fill-rule="evenodd" clip-rule="evenodd" d="M15.0249 25.7221V24.729C15.0192 24.4752 15.0931 24.2255 15.2352 24.0144C16.5117 22.0816 16.7302 20.452 16.6316 18.547H20.337C20.1728 19.559 20.1769 20.5915 20.3494 21.6018C20.4857 22.4429 20.6015 23.3029 20.7387 24.1523C20.8225 24.678 20.9112 25.2037 21.0164 25.7229L15.0249 25.7221ZM21.4411 26.1698H29.1962C29.4746 26.1698 29.7424 26.2807 29.9396 26.4778C30.1367 26.6749 30.2476 26.9419 30.2476 27.2212V27.4003V27.3995C30.1449 27.3781 30.0406 27.3666 29.9363 27.3658H20.6838C20.5795 27.3666 20.4751 27.3781 20.3725 27.3995V27.2204V27.2212C20.3725 26.6405 20.8431 26.1698 21.4239 26.1698H21.4411ZM20.6961 27.82H29.9486C30.2279 27.82 30.4948 27.9309 30.692 28.1281C30.8899 28.3252 31 28.593 31 28.8715V30.0617H19.6447V28.8764C19.6447 28.2957 20.1153 27.825 20.6961 27.825V27.82ZM14.0557 27.82H19.6241C19.3481 28.101 19.192 28.478 19.1903 28.8715V30.0617H13V28.8764C13 28.2957 13.4707 27.825 14.0514 27.825L14.0557 27.82ZM14.7999 26.169L20.3683 26.1698C20.0923 26.4499 19.937 26.8277 19.9354 27.2212V27.3666H14.0474V27.3658C13.9423 27.3666 13.838 27.3781 13.7361 27.3995V27.2204V27.2212C13.7361 26.6405 14.2068 26.1698 14.7875 26.1698L14.7999 26.169ZM29.8542 20.9817C30.3758 20.9817 30.7988 20.5595 30.7988 20.0379C30.7988 19.531 29.7786 18.1141 29.478 17.6722C29.0763 17.0816 28.9753 16.5994 28.7108 16.3242C28.2902 15.8913 27.9559 15.4157 27.6364 15.0625C27.8048 14.7783 27.9682 14.4949 28.1325 14.2107C27.3103 14.0981 26.479 14.0702 25.6509 14.1269C24.1518 14.2871 22.6397 15.0707 21.75 16.2716C20.6985 17.7017 20.4883 19.6469 20.793 21.5287C20.9343 22.3953 21.1922 24.3461 21.4764 25.722H29.1289C29.0615 25.0361 28.9794 24.2286 28.8553 23.9912C28.1785 22.6893 26.8075 21.6255 26.1216 20.2898C25.9475 19.9275 25.807 19.5505 25.7011 19.1628C26.1126 19.4914 26.5463 19.792 26.9989 20.0606C27.2774 20.2126 27.5846 20.3046 27.9009 20.33C28.1103 20.3481 28.3214 20.353 28.5317 20.3448C28.9104 20.6455 29.3433 20.9757 29.8542 20.9757L29.8542 20.9817ZM16.2219 16.6479H20.9829C20.7381 17.1055 20.5533 17.5926 20.4318 18.0969H16.2261C15.8408 18.0764 15.5394 17.7577 15.5394 17.3724C15.5394 16.9872 15.8408 16.6685 16.2261 16.6479H16.2219ZM15.3471 16.5913C15.1762 16.4705 15.0735 16.275 15.0711 16.0656V13.3319C15.0694 13.2448 15.1031 13.1602 15.1639 13.0977C15.2247 13.0353 15.3076 13 15.3955 13H16.0749H16.074C16.1619 13 16.2449 13.0353 16.3057 13.0977C16.3665 13.1602 16.4002 13.2448 16.3985 13.3319V14.2362C16.3985 14.4153 16.5431 14.5599 16.7222 14.5599H17.3908C17.5699 14.5599 17.7144 14.4153 17.7144 14.2362V13.3319C17.7144 13.1528 17.859 13.0074 18.0389 13.0057H19.317C19.4961 13.0074 19.6407 13.1528 19.6407 13.3319V14.2362C19.6407 14.4153 19.7861 14.5599 19.9643 14.5599H20.6338C20.812 14.5599 20.9574 14.4153 20.9574 14.2362V13.3319C20.9574 13.1528 21.102 13.0074 21.2811 13.0057H21.9604C22.1395 13.0074 22.2841 13.1528 22.2841 13.3319V15.079C21.8865 15.4043 21.539 15.7855 21.2515 16.2109C21.2121 16.2085 21.1735 16.2085 21.1341 16.2109H16.222C15.8894 16.2077 15.5713 16.3457 15.3471 16.5913Z" fill="url(#paint0_linear_85_8598)"/>
<defs>
<linearGradient id="paint0_linear_85_8598" x1="22" y1="30.0617" x2="22" y2="13" gradientUnits="userSpaceOnUse">
<stop stop-color="#1D4EFF"/>
<stop offset="1" stop-color="#24B6FF"/>
</linearGradient>
</defs>
</svg>
