<svg width="80" height="80" viewBox="0 0 80 80" fill="none" xmlns="http://www.w3.org/2000/svg">
<rect x="0.5" y="0.5" width="79" height="79" rx="39.5" fill="url(#paint0_linear_85_8866)"/>
<rect x="0.5" y="0.5" width="79" height="79" rx="39.5" stroke="#004CD3"/>
<path fill-rule="evenodd" clip-rule="evenodd" d="M39.3915 39.3731C40.164 40.2299 40.3865 41.4438 39.9697 42.5149C39.4855 43.738 38.2711 44.5903 36.7245 44.789C36.5913 44.806 36.4566 44.8185 36.3234 44.8278V46.2683H36.3218C36.3265 46.4483 36.2576 46.6222 36.1306 46.751C36.0053 46.8783 35.8314 46.9513 35.6496 46.9513C35.4678 46.9513 35.2955 46.8783 35.1685 46.751C35.0416 46.6222 34.9727 46.4483 34.9774 46.2683V44.7858C34.3647 44.7067 33.7708 44.5251 33.2193 44.2503C32.0738 43.6899 31.2496 42.6437 30.9769 41.4065C30.8939 41.048 31.1195 40.6909 31.4815 40.6087C31.8435 40.5264 32.2054 40.7499 32.2885 41.1085C32.7413 43.0597 34.7564 43.6992 36.5506 43.468V43.4664C37.483 43.4152 38.3134 42.8641 38.7162 42.029C38.9528 41.4096 38.8149 40.7111 38.3605 40.2268C37.6349 39.3637 36.8295 39.2442 35.8126 39.0921H35.811C35.1842 39.0176 34.5652 38.8779 33.9666 38.6776L33.9447 38.6698C32.4138 38.0551 31.5128 36.8816 31.5332 35.5296H31.5347C31.6084 34.072 32.5815 32.8116 33.9808 32.3583C34.3036 32.2403 34.6373 32.1534 34.9774 32.1006V30.5996C34.9868 30.2379 35.2861 29.9492 35.6496 29.9492C36.0147 29.9492 36.3124 30.2379 36.3218 30.5996V32.082C38.0612 32.3444 39.5075 33.5427 40.0732 35.1928C40.2048 35.5374 40.0293 35.9208 39.683 36.0512C39.3351 36.1816 38.9481 36.0093 38.8164 35.6647C38.0941 33.7756 36.2968 32.9265 34.4476 33.6079C33.5748 33.8796 32.9558 34.6479 32.8791 35.5513C32.8681 36.3415 33.4369 37.0275 34.4397 37.4327C34.949 37.6004 35.4755 37.7152 36.0083 37.7758C37.1005 37.9388 38.3384 38.1219 39.3914 39.3761L39.3915 39.3731ZM42.4251 51.169H42.4267C42.0851 50.5589 41.8093 49.9132 41.604 49.2457C39.7519 50.2563 37.6725 50.7856 35.5588 50.7856C35.1577 50.7856 34.7565 50.7669 34.3554 50.7266V50.7281C31.2215 50.4239 28.3194 48.9586 26.2306 46.624C24.1434 44.2878 23.0231 41.2577 23.0967 38.1391C23.1719 35.0205 24.4333 32.0448 26.6286 29.8096C28.8255 27.5743 31.7934 26.244 34.9383 26.0872C38.0832 25.9304 41.1717 26.9565 43.585 28.9605C45.9981 30.966 47.5556 33.8006 47.9458 36.8958C48.6102 36.6661 49.2981 36.5062 49.9969 36.4192C49.4172 32.3397 47.1043 28.6997 43.6412 26.4164C40.1782 24.1345 35.8956 23.4267 31.8717 24.4729C27.8494 25.5176 24.4694 28.217 22.5828 31.8897C20.6978 35.5623 20.4862 39.8576 22.0031 43.6947C23.5199 47.5318 26.6194 50.5431 30.5209 51.9713C34.4227 53.3979 38.7552 53.1061 42.4253 51.1673L42.4251 51.169ZM46.6512 37.4454H46.6527C46.3628 34.2461 44.6784 31.3325 42.0412 29.4652C39.404 27.5978 36.0774 26.9629 32.9276 27.7251C29.7796 28.4872 27.1219 30.5719 25.6521 33.4342C24.1823 36.2966 24.046 39.6513 25.2776 42.6205C26.5092 45.5916 28.9866 47.8827 32.0625 48.8948C35.1385 49.9069 38.5073 49.539 41.2888 47.8889C40.9582 45.8104 41.2998 43.6823 42.2635 41.807C43.2271 39.9303 44.7628 38.4044 46.6524 37.4449L46.6512 37.4454ZM60 46.3368C60 48.6341 59.0786 50.8383 57.4396 52.462C55.799 54.0873 53.5755 55 51.2564 55C48.9373 55 46.7122 54.0873 45.0732 52.462C43.4326 50.8384 42.5112 48.6341 42.5112 46.3368C42.5112 44.0395 43.4326 41.8368 45.0732 40.2116C46.7122 38.5863 48.9373 37.6751 51.2564 37.6751C53.5739 37.6767 55.7973 38.591 57.4364 40.2147C59.0754 41.8383 59.9984 44.0411 60 46.3368ZM57.5947 43.3037H57.5963C57.5994 43.5536 57.4929 43.7942 57.3033 43.9603L54.3965 46.4439C54.1113 46.6923 53.6851 46.6923 53.3999 46.4439C53.2103 46.2778 53.1038 46.0388 53.1069 45.7889V45.2502H48.3622C48.1851 45.2502 48.0128 45.1803 47.8874 45.0546C47.7605 44.9304 47.69 44.7597 47.69 44.5843V42.023C47.69 41.6551 47.9908 41.3571 48.3622 41.3571H53.1085V40.8169C53.1054 40.567 53.2119 40.3279 53.4015 40.1618C53.6867 39.9166 54.1114 39.9166 54.3981 40.1618L57.3033 42.6486C57.4913 42.8131 57.5978 43.0538 57.5947 43.3037ZM56.0105 43.3037L54.4498 44.6355V44.5828H54.453C54.453 44.2149 54.1521 43.9168 53.7807 43.9153H49.0344V42.6905H53.7807C54.1521 42.6905 54.4545 42.3909 54.4545 42.0231V41.9734L56.0152 43.3053L56.0105 43.3037ZM54.8212 48.0909V50.6522C54.8212 51.0201 54.5204 51.3181 54.149 51.3181H49.4043V51.8568C49.4074 52.1067 49.3008 52.3457 49.1112 52.5118C48.826 52.7586 48.4014 52.7586 48.1162 52.5118L45.2095 50.0266H45.2079C45.0214 49.859 44.9165 49.6215 44.9165 49.3731C44.9165 49.1232 45.0214 48.8857 45.2079 48.7181L48.1146 46.2329H48.1162C48.4014 45.9861 48.826 45.9861 49.1112 46.2329C49.3008 46.399 49.4074 46.638 49.4027 46.8879V47.4266H54.149C54.3276 47.4266 54.4984 47.4964 54.6254 47.6222C54.7507 47.7463 54.8212 47.9155 54.8212 48.0925L54.8212 48.0909ZM53.4767 48.7569V49.9831L48.7304 49.9847C48.359 49.9847 48.0582 50.2827 48.0582 50.6506V50.7034L46.5006 49.3715L48.0582 48.0397V48.0924V48.0909C48.0582 48.2678 48.1287 48.437 48.2556 48.5628C48.381 48.687 48.5533 48.7568 48.7304 48.7568L53.4767 48.7569Z" fill="white"/>
<defs>
<linearGradient id="paint0_linear_85_8866" x1="40" y1="80" x2="40" y2="0" gradientUnits="userSpaceOnUse">
<stop stop-color="#1D4EFF"/>
<stop offset="1" stop-color="#24B6FF"/>
</linearGradient>
</defs>
</svg>
