<svg width="80" height="80" viewBox="0 0 80 80" fill="none" xmlns="http://www.w3.org/2000/svg">
<rect x="0.5" y="0.5" width="79" height="79" rx="39.5" fill="url(#paint0_linear_85_8872)"/>
<rect x="0.5" y="0.5" width="79" height="79" rx="39.5" stroke="#004CD3"/>
<path d="M52.9511 43.5384C52.874 43.2918 46.6576 45.7856 46.4252 45.8277C46.5176 47.848 44.7229 49.679 42.6915 49.6274C41.9125 49.7044 38.3021 48.4043 37.5019 48.2137C36.8042 47.9882 37.1181 46.9402 37.827 47.1419L41.9222 48.3875C43.3891 48.882 45.1208 47.8187 45.2749 46.2551C45.4304 45.2576 44.9233 44.2236 44.0588 43.7024L40.37 41.4579C38.564 40.3581 36.3504 40.2516 34.4437 41.1721L30.469 43.0859C30.7254 43.7206 30.787 44.6187 30.9341 45.308L32.0101 51.3296C32.0942 51.8172 32.055 52.3117 31.8812 52.7657L42.1409 53.9776C43.5335 54.1471 44.9696 53.8249 46.1604 53.0795L54.2501 48.023C56.3125 46.7593 55.3654 43.52 52.95 43.5397L52.9511 43.5384Z" fill="white"/>
<path d="M29.6897 44.7055L29.544 43.8746C29.4025 42.9794 28.489 42.3615 27.5979 42.5227L25.3885 42.9093C24.9458 42.9822 24.5591 43.2288 24.3013 43.6001C24.0435 43.9643 23.9482 44.4084 24.0267 44.8456L25.3885 52.4938C25.5286 53.3022 26.2404 53.8738 27.0418 53.8738C27.137 53.892 29.3787 53.4913 29.5426 53.4647C30.4295 53.3274 31.081 52.4069 30.9044 51.5229L29.6883 44.7039L29.6897 44.7055Z" fill="white"/>
<path d="M45.3031 40.553C49.3226 40.553 52.5912 37.2816 52.5912 33.2577C52.1919 23.5795 38.4113 23.582 38.0146 33.2577C38.0146 37.2816 41.2836 40.553 45.3031 40.553ZM45.3031 33.8183C42.6789 33.7889 42.2334 30.0663 44.7427 29.4024V28.7678C44.7427 28.4595 44.9949 28.206 45.3031 28.206C45.6113 28.206 45.8635 28.4581 45.8635 28.7678V29.3296H46.9843C47.7199 29.345 47.7213 30.4364 46.9843 30.4518H45.3031C44.6866 30.4518 44.1823 30.9562 44.1823 31.574C44.1823 32.1919 44.6866 32.6963 45.3031 32.6963C46.5416 32.6963 47.5461 33.7008 47.5461 34.9407C47.5461 35.9845 46.8344 36.8658 45.8635 37.1123V37.747C45.8635 38.0552 45.6113 38.3088 45.3031 38.3088C44.9949 38.3088 44.7427 38.0566 44.7427 37.747V37.1852H43.6218C42.8863 37.1698 42.8849 36.0784 43.6218 36.063H45.3031C46.7812 36.0209 46.7812 33.859 45.3031 33.8183Z" fill="white"/>
<defs>
<linearGradient id="paint0_linear_85_8872" x1="40" y1="80" x2="40" y2="0" gradientUnits="userSpaceOnUse">
<stop stop-color="#1D4EFF"/>
<stop offset="1" stop-color="#24B6FF"/>
</linearGradient>
</defs>
</svg>
