<svg width="80" height="80" viewBox="0 0 80 80" fill="none" xmlns="http://www.w3.org/2000/svg">
<rect x="0.5" y="0.5" width="79" height="79" rx="39.5" fill="url(#paint0_linear_2005_9)"/>
<rect x="0.5" y="0.5" width="79" height="79" rx="39.5" stroke="#004CD3"/>
<path fill-rule="evenodd" clip-rule="evenodd" d="M25 43.9862C25 36.7267 30.885 30.8418 38.1444 30.8418C45.4039 30.8418 51.2888 36.7267 51.2888 43.9862C51.2888 51.2457 45.4039 57.1306 38.1444 57.1306C30.885 57.1306 25 51.2457 25 43.9862ZM36.6839 38.8945C35.0409 39.0762 33.7629 40.4692 33.7629 42.1606C33.7629 43.9754 35.2342 45.4467 37.049 45.4467H39.2398C39.4415 45.4467 39.6049 45.6101 39.6049 45.8118C39.6049 46.0135 39.4415 46.1769 39.2398 46.1769H35.2234V49.0979H36.6839V50.5584H39.6049V49.0779C41.2479 48.8962 42.5259 47.5032 42.5259 45.8118C42.5259 43.997 41.0546 42.5257 39.2398 42.5257H37.049C36.8474 42.5257 36.6839 42.3623 36.6839 42.1606C36.6839 41.9589 36.8474 41.7955 37.049 41.7955H41.0654V38.8745H39.6049V37.414H36.6839V38.8945Z" fill="white"/>
<path fill-rule="evenodd" clip-rule="evenodd" d="M48.7955 25.4278C49.3658 24.8574 50.2906 24.8574 50.861 25.4278L55.2424 29.8092L53.177 31.8747L49.8282 28.5259L46.4795 31.8747L44.4141 29.8092L48.7955 25.4278Z" fill="white"/>
<path fill-rule="evenodd" clip-rule="evenodd" d="M48.3677 43.9863V26.4604H51.2887V43.9863H48.3677Z" fill="white"/>
<defs>
<linearGradient id="paint0_linear_2005_9" x1="40" y1="80" x2="40" y2="0" gradientUnits="userSpaceOnUse">
<stop stop-color="#1D4EFF"/>
<stop offset="1" stop-color="#24B6FF"/>
</linearGradient>
</defs>
</svg>
