<svg width="80" height="80" viewBox="0 0 80 80" fill="none" xmlns="http://www.w3.org/2000/svg">
<rect x="0.5" y="0.5" width="79" height="79" rx="39.5" fill="url(#paint0_linear_85_8887)"/>
<rect x="0.5" y="0.5" width="79" height="79" rx="39.5" stroke="#004CD3"/>
<path d="M48.2753 44.5889C48.7527 44.5889 49.1403 44.9752 49.1403 45.4526V45.5424C49.5566 45.6707 49.9442 45.9001 50.2671 46.2229L50.5849 46.5407C50.9227 46.8785 50.9227 47.4257 50.5849 47.7622C50.2471 48.1 49.7012 48.1 49.3634 47.7622L49.0456 47.4456C48.8748 47.2761 48.6542 47.1764 48.4261 47.154C48.3775 47.1627 48.3264 47.1664 48.2753 47.1664C48.2404 47.1664 48.2067 47.1639 48.1743 47.1602C48.0721 47.1764 47.9724 47.2076 47.8764 47.2549L47.8278 47.2799C47.687 47.3497 47.5686 47.4593 47.4888 47.594C47.3131 47.8881 47.4876 48.2683 47.8266 48.3256L49.0082 48.5213C50.5487 48.7781 51.3465 50.5069 50.5438 51.8468C50.2932 52.2631 49.9305 52.5984 49.4955 52.8165L49.4469 52.8402C49.3459 52.8913 49.2437 52.9349 49.1403 52.9723V53.0982C49.1403 53.5756 48.7527 53.962 48.2753 53.962C47.7979 53.962 47.4103 53.5756 47.4103 53.0982V53.0085C46.994 52.8801 46.6051 52.6507 46.2823 52.3279L45.9657 52.0101C45.6279 51.6723 45.6279 51.1251 45.9657 50.7886C46.3035 50.4508 46.8494 50.4508 47.1872 50.7886L47.505 51.1052C47.6757 51.2747 47.8951 51.3744 48.1232 51.3969C48.1731 51.3881 48.2242 51.3844 48.2753 51.3844C48.3102 51.3844 48.3438 51.3869 48.3762 51.3906C48.4784 51.3744 48.5782 51.3433 48.6741 51.2959L48.7227 51.271C48.8636 51.2012 48.9795 51.0915 49.0605 50.9569C49.2375 50.6627 49.0618 50.2825 48.7227 50.2252L47.5424 50.0295C46.0018 49.7728 45.2029 48.044 46.0068 46.704C46.2573 46.2877 46.62 45.9524 47.055 45.7343L47.1037 45.7106C47.2046 45.6595 47.3068 45.6159 47.4103 45.5785V45.4526C47.4103 44.9752 47.7979 44.5889 48.2753 44.5889Z" fill="white"/>
<path fill-rule="evenodd" clip-rule="evenodd" d="M48.275 40.9658C52.8643 40.9658 56.5848 44.6863 56.5848 49.2757C56.5848 53.8651 52.8643 57.5856 48.275 57.5856C43.6856 57.5856 39.9651 53.8651 39.9651 49.2757C39.9651 44.6863 43.6856 40.9658 48.275 40.9658ZM48.275 42.9601C44.7874 42.9601 41.9594 45.7882 41.9594 49.2757C41.9594 52.7632 44.7875 55.5913 48.275 55.5913C51.7624 55.5913 54.5906 52.7632 54.5906 49.2757C54.5906 45.7882 51.7624 42.9601 48.275 42.9601Z" fill="white"/>
<path fill-rule="evenodd" clip-rule="evenodd" d="M40.2982 29.0002C42.4632 29.0002 44.1881 28.9989 45.5369 29.1797C46.9142 29.3654 48.0484 29.758 48.9472 30.6554C49.8447 31.5541 50.2373 32.6883 50.423 34.0658C50.6037 35.4144 50.6025 37.1394 50.6025 39.3045V39.4478C49.6602 39.14 48.6556 38.9717 47.6111 38.9717C42.2875 38.9717 37.9713 43.2879 37.9713 48.6115C37.9713 51.0271 38.8637 53.2331 40.332 54.9246C40.3207 54.9246 40.3095 54.9258 40.2983 54.9258H38.304C36.139 54.9258 34.4141 54.9283 33.0653 54.7476C31.7728 54.5731 30.6946 54.2166 29.826 53.4326L29.6552 53.2706C28.7578 52.3731 28.3652 51.2389 28.1795 49.8615C27.9988 48.5116 28 46.7878 28 44.6228V39.3043C28 37.1393 27.9988 35.4144 28.1795 34.0656C28.3652 32.6883 28.7578 31.5541 29.6552 30.6552C30.5539 29.7578 31.6882 29.3652 33.0656 29.1795C34.4142 28.9988 36.1393 29 38.3043 29L40.2982 29.0002ZM33.651 43.6257C33.1001 43.6257 32.6539 44.0719 32.6539 44.6228C32.6539 45.1725 33.1001 45.6199 33.651 45.6199H37.6396C38.1893 45.6199 38.6367 45.1725 38.6367 44.6228C38.6367 44.0719 38.1893 43.6257 37.6396 43.6257H33.651ZM33.651 39.6371C33.1001 39.6371 32.6539 40.0833 32.6539 40.6343C32.6539 41.184 33.1001 41.6314 33.651 41.6314H40.2982C40.8491 41.6314 41.2953 41.184 41.2953 40.6343C41.2953 40.0833 40.8491 39.6371 40.2982 39.6371H33.651ZM33.651 35.6486C33.1001 35.6486 32.6539 36.0948 32.6539 36.6457C32.6539 37.1954 33.1001 37.6429 33.651 37.6429H44.2867C44.8376 37.6429 45.2838 37.1954 45.2838 36.6457C45.2838 36.0948 44.8376 35.6486 44.2867 35.6486H33.651Z" fill="white"/>
<defs>
<linearGradient id="paint0_linear_85_8887" x1="40" y1="80" x2="40" y2="0" gradientUnits="userSpaceOnUse">
<stop stop-color="#1D4EFF"/>
<stop offset="1" stop-color="#24B6FF"/>
</linearGradient>
</defs>
</svg>
