<svg width="40" height="41" viewBox="0 0 40 41" fill="none" xmlns="http://www.w3.org/2000/svg">
<rect y="0.27002" width="40" height="40" rx="20" fill="url(#paint0_linear_1_8971)"/>
<g clip-path="url(#clip0_1_8971)">
<g clip-path="url(#clip1_1_8971)">
<path d="M29.75 14.9992C29.75 14.7992 29.67 14.6092 29.53 14.4692L25.81 10.7492C25.52 10.4592 25.04 10.4592 24.75 10.7492C24.46 11.0392 24.46 11.5192 24.75 11.8092L27.2 14.2592H11C10.59 14.2592 10.25 14.5992 10.25 15.0092C10.25 15.4192 10.59 15.7492 11 15.7492H27.19L24.75 18.1892C24.46 18.4792 24.46 18.9592 24.75 19.2492C24.9 19.3992 25.09 19.4692 25.28 19.4692C25.47 19.4692 25.66 19.3992 25.81 19.2492L29.52 15.5392C29.59 15.4692 29.65 15.3792 29.69 15.2792C29.69 15.2692 29.69 15.2592 29.7 15.2492C29.73 15.1692 29.75 15.0892 29.75 14.9992Z" fill="white"/>
<path d="M29 24.7903H12.81L15.25 22.3503C15.54 22.0603 15.54 21.5803 15.25 21.2903C14.96 21.0003 14.48 21.0003 14.19 21.2903L10.48 25.0003C10.41 25.0703 10.35 25.1603 10.31 25.2603C10.31 25.2703 10.31 25.2803 10.3 25.2903C10.27 25.3703 10.25 25.4603 10.25 25.5503C10.25 25.7503 10.33 25.9403 10.47 26.0803L14.19 29.8003C14.34 29.9503 14.53 30.0203 14.72 30.0203C14.91 30.0203 15.1 29.9503 15.25 29.8003C15.54 29.5103 15.54 29.0303 15.25 28.7403L12.8 26.2903H29C29.41 26.2903 29.75 25.9503 29.75 25.5403C29.75 25.1303 29.41 24.7903 29 24.7903Z" fill="white"/>
</g>
</g>
<defs>
<linearGradient id="paint0_linear_1_8971" x1="20" y1="40.27" x2="20" y2="0.27002" gradientUnits="userSpaceOnUse">
<stop stop-color="#1D4EFF"/>
<stop offset="1" stop-color="#24B6FF"/>
</linearGradient>
<clipPath id="clip0_1_8971">
<rect width="24" height="24" fill="white" transform="translate(8 8.27002)"/>
</clipPath>
<clipPath id="clip1_1_8971">
<rect width="24" height="24" fill="white" transform="translate(8 8.27002)"/>
</clipPath>
</defs>
</svg>
