<svg width="40" height="41" viewBox="0 0 40 41" fill="none" xmlns="http://www.w3.org/2000/svg">
<rect x="0.5" y="0.77002" width="39" height="39" rx="19.5" fill="url(#paint0_linear_1_8979)"/>
<rect x="0.5" y="0.77002" width="39" height="39" rx="19.5" stroke="#58479E"/>
<g clip-path="url(#clip0_1_8979)">
<g clip-path="url(#clip1_1_8979)">
<path d="M24.24 10.27H15.76C13 10.27 12 11.27 12 14.08V26.46C12 29.27 13 30.27 15.76 30.27H24.23C27 30.27 28 29.27 28 26.46V14.08C28 11.27 27 10.27 24.24 10.27ZM20 27.57C19.04 27.57 18.25 26.78 18.25 25.82C18.25 24.86 19.04 24.07 20 24.07C20.96 24.07 21.75 24.86 21.75 25.82C21.75 26.78 20.96 27.57 20 27.57ZM22 14.52H18C17.59 14.52 17.25 14.18 17.25 13.77C17.25 13.36 17.59 13.02 18 13.02H22C22.41 13.02 22.75 13.36 22.75 13.77C22.75 14.18 22.41 14.52 22 14.52Z" fill="white"/>
</g>
</g>
<defs>
<linearGradient id="paint0_linear_1_8979" x1="20" y1="40.27" x2="20" y2="0.27002" gradientUnits="userSpaceOnUse">
<stop stop-color="#1D4EFF"/>
<stop offset="1" stop-color="#24B6FF"/>
</linearGradient>
<clipPath id="clip0_1_8979">
<rect width="24" height="24" fill="white" transform="translate(8 8.27002)"/>
</clipPath>
<clipPath id="clip1_1_8979">
<rect width="24" height="24" fill="white" transform="translate(8 8.27002)"/>
</clipPath>
</defs>
</svg>
