<svg width="40" height="40" viewBox="0 0 40 40" fill="none" xmlns="http://www.w3.org/2000/svg">
<rect x="0.5" y="0.5" width="39" height="39" rx="19.5" fill="url(#paint0_linear_1_8988)"/>
<rect x="0.5" y="0.5" width="39" height="39" rx="19.5" stroke="#58479E"/>
<g clip-path="url(#clip0_1_8988)">
<g clip-path="url(#clip1_1_8988)">
<path d="M10.7518 26.6508C10.3418 26.6508 10.0018 26.3108 10.0018 25.9008V20.2008C9.95177 17.4908 10.9618 14.9308 12.8418 13.0108C14.7218 11.1008 17.2418 10.0508 19.9518 10.0508C25.4918 10.0508 30.0018 14.5608 30.0018 20.1008V25.8008C30.0018 26.2108 29.6618 26.5508 29.2518 26.5508C28.8418 26.5508 28.5018 26.2108 28.5018 25.8008V20.1008C28.5018 15.3908 24.6718 11.5508 19.9518 11.5508C17.6418 11.5508 15.5018 12.4408 13.9118 14.0608C12.3118 15.6908 11.4618 17.8608 11.5018 20.1808V25.8908C11.5018 26.3108 11.1718 26.6508 10.7518 26.6508Z" fill="white"/>
<path d="M13.94 20.4492H13.81C11.71 20.4492 10 22.1592 10 24.2592V26.1392C10 28.2392 11.71 29.9492 13.81 29.9492H13.94C16.04 29.9492 17.75 28.2392 17.75 26.1392V24.2592C17.75 22.1592 16.04 20.4492 13.94 20.4492Z" fill="white"/>
<path d="M26.19 20.4492H26.06C23.96 20.4492 22.25 22.1592 22.25 24.2592V26.1392C22.25 28.2392 23.96 29.9492 26.06 29.9492H26.19C28.29 29.9492 30 28.2392 30 26.1392V24.2592C30 22.1592 28.29 20.4492 26.19 20.4492Z" fill="white"/>
</g>
</g>
<defs>
<linearGradient id="paint0_linear_1_8988" x1="20" y1="40" x2="20" y2="0" gradientUnits="userSpaceOnUse">
<stop stop-color="#1D4EFF"/>
<stop offset="1" stop-color="#24B6FF"/>
</linearGradient>
<clipPath id="clip0_1_8988">
<rect width="24" height="24" fill="white" transform="translate(8 8)"/>
</clipPath>
<clipPath id="clip1_1_8988">
<rect width="24" height="24" fill="white" transform="translate(8 8)"/>
</clipPath>
</defs>
</svg>
