<svg width="40" height="40" viewBox="0 0 40 40" fill="none" xmlns="http://www.w3.org/2000/svg">
<rect width="40" height="40" rx="20" fill="url(#paint0_linear_1_8999)"/>
<g clip-path="url(#clip0_1_8999)">
<g clip-path="url(#clip1_1_8999)">
<path d="M24 10H16C12 10 10 12 10 16V29C10 29.55 10.45 30 11 30H24C28 30 30 28 30 24V16C30 12 28 10 24 10ZM19.11 24.66C18.86 24.91 18.4 25.14 18.06 25.19L15.98 25.48C15.9 25.49 15.82 25.5 15.75 25.5C15.4 25.5 15.08 25.38 14.85 25.15C14.57 24.87 14.45 24.46 14.52 24.02L14.81 21.94C14.86 21.6 15.09 21.13 15.34 20.89L19.11 17.12C19.17 17.3 19.25 17.48 19.34 17.68C19.43 17.86 19.52 18.04 19.62 18.21C19.7 18.35 19.79 18.49 19.87 18.59C19.97 18.74 20.07 18.87 20.14 18.94C20.18 19 20.22 19.04 20.23 19.06C20.45 19.31 20.68 19.55 20.9 19.73C20.96 19.79 21 19.82 21.01 19.83C21.14 19.93 21.26 20.04 21.38 20.11C21.51 20.21 21.65 20.3 21.79 20.38C21.96 20.48 22.14 20.58 22.33 20.67C22.52 20.76 22.7 20.83 22.88 20.89L19.11 24.66ZM24.55 19.23L23.77 20.01C23.72 20.06 23.65 20.09 23.58 20.09C23.56 20.09 23.52 20.09 23.5 20.08C21.78 19.59 20.41 18.22 19.92 16.5C19.89 16.41 19.92 16.31 19.99 16.24L20.78 15.45C22.07 14.16 23.29 14.19 24.55 15.45C25.19 16.09 25.51 16.71 25.5 17.35C25.5 17.98 25.19 18.59 24.55 19.23Z" fill="white"/>
</g>
</g>
<defs>
<linearGradient id="paint0_linear_1_8999" x1="20" y1="40" x2="20" y2="0" gradientUnits="userSpaceOnUse">
<stop stop-color="#1D4EFF"/>
<stop offset="1" stop-color="#24B6FF"/>
</linearGradient>
<clipPath id="clip0_1_8999">
<rect width="24" height="24" fill="white" transform="translate(8 8)"/>
</clipPath>
<clipPath id="clip1_1_8999">
<rect width="24" height="24" fill="white" transform="translate(8 8)"/>
</clipPath>
</defs>
</svg>
