<svg width="44" height="45" viewBox="0 0 44 45" fill="none" xmlns="http://www.w3.org/2000/svg">
<rect y="0.47998" width="44" height="44" rx="22" fill="white"/>
<rect x="0.5" y="0.97998" width="43" height="43" rx="21.5" stroke="#9F6EFD" stroke-opacity="0.1"/>
<g clip-path="url(#clip0_1_8783)">
<g clip-path="url(#clip1_1_8783)">
<g clip-path="url(#clip2_1_8783)">
<mask id="mask0_1_8783" style="mask-type:luminance" maskUnits="userSpaceOnUse" x="12" y="12" width="20" height="21">
<path d="M32 12.48H12V32.48H32V12.48Z" fill="white"/>
</mask>
<g mask="url(#mask0_1_8783)">
<path d="M13.6667 30.8135H22.8334C26.9756 30.8135 30.3334 27.4556 30.3334 23.3135C30.3334 19.1713 26.9756 15.8135 22.8334 15.8135C18.9729 15.8135 15.7479 18.7302 15.3334 22.4802" stroke="#1D4EFF" stroke-width="1.5" stroke-linecap="round"/>
<path d="M27.4168 17.0633L28.2502 16.23M16.5835 16.23L17.4168 17.0633" stroke="#1D4EFF" stroke-width="1.5" stroke-linecap="round" stroke-linejoin="round"/>
<path d="M25.7501 19.98L23.3006 22.4294M23.3006 22.4294C23.0744 22.2032 22.7619 22.0633 22.4167 22.0633C21.7264 22.0633 21.1667 22.623 21.1667 23.3133C21.1667 24.0037 21.7264 24.5633 22.4167 24.5633C23.1071 24.5633 23.6667 24.0037 23.6667 23.3133C23.6667 22.9682 23.5268 22.6557 23.3006 22.4294Z" stroke="#1D4EFF" stroke-width="1.5" stroke-linecap="round"/>
<path d="M22.4167 15.3967V14.1467" stroke="#1D4EFF" stroke-width="1.5" stroke-linecap="round" stroke-linejoin="round"/>
<path d="M20.75 14.1467H24.0833" stroke="#1D4EFF" stroke-width="1.5" stroke-linecap="round" stroke-linejoin="round"/>
<path d="M13.6667 24.98H16.1667" stroke="#1D4EFF" stroke-width="1.5" stroke-linecap="round" stroke-linejoin="round"/>
<path d="M13.6667 28.3135H17.8334" stroke="#1D4EFF" stroke-width="1.5" stroke-linecap="round" stroke-linejoin="round"/>
</g>
</g>
</g>
</g>
<defs>
<clipPath id="clip0_1_8783">
<rect width="20" height="20" fill="white" transform="translate(12 12.48)"/>
</clipPath>
<clipPath id="clip1_1_8783">
<rect width="20" height="20" fill="white" transform="translate(12 12.48)"/>
</clipPath>
<clipPath id="clip2_1_8783">
<rect width="20" height="20" fill="white" transform="translate(12 12.48)"/>
</clipPath>
</defs>
</svg>
