<svg width="45" height="45" viewBox="0 0 45 45" fill="none" xmlns="http://www.w3.org/2000/svg">
<rect width="45" height="45" rx="12" fill="black"/>
<path d="M32.3271 29.8695L25.2357 20.9082L32.2331 14.7188C32.3914 14.5753 32.4729 14.3875 32.4601 14.196C32.4473 14.0046 32.3412 13.8249 32.1647 13.6959C31.9882 13.5669 31.7556 13.4991 31.5173 13.5071C31.2791 13.5151 31.0543 13.5983 30.8919 13.7387L24.2264 19.6339L19.6396 13.8379C19.5578 13.7344 19.4449 13.6492 19.3112 13.5901C19.1776 13.531 19.0275 13.5 18.875 13.5H13.4375C13.275 13.4999 13.1155 13.535 12.9756 13.6015C12.8358 13.6681 12.7207 13.7636 12.6426 13.8781C12.5644 13.9927 12.526 14.122 12.5313 14.2526C12.5366 14.3832 12.5855 14.5102 12.6728 14.6204L19.7642 23.5808L12.7669 29.7748C12.6851 29.8454 12.6217 29.9283 12.5801 30.0187C12.5385 30.1092 12.5197 30.2054 12.5247 30.3017C12.5297 30.3981 12.5585 30.4926 12.6093 30.58C12.6601 30.6673 12.7319 30.7457 12.8207 30.8106C12.9094 30.8754 13.0133 30.9255 13.1263 30.9578C13.2393 30.9901 13.3591 31.0041 13.4789 30.9989C13.5986 30.9938 13.7159 30.9695 13.8239 30.9276C13.9319 30.8857 14.0285 30.827 14.1081 30.7549L20.7736 24.8596L25.3603 30.6556C25.4428 30.7583 25.556 30.8426 25.6897 30.9009C25.8233 30.9591 25.973 30.9894 26.125 30.989H31.5625C31.7248 30.9889 31.8841 30.9538 32.0238 30.8874C32.1635 30.8209 32.2784 30.7255 32.3565 30.6111C32.4347 30.4967 32.4732 30.3675 32.468 30.2371C32.4628 30.1066 32.4142 29.9797 32.3271 29.8695ZM26.6223 29.5316L15.088 14.9574H18.3731L29.912 29.5316H26.6223Z" fill="white"/>
</svg>
